<?xml version="1.0" encoding="utf-8"?>
<!-- Generator: Adobe Illustrator 15.1.0, SVG Export Plug-In . SVG Version: 6.00 Build 0)  -->
<!DOCTYPE svg PUBLIC "-//W3C//DTD SVG 1.1//EN" "http://www.w3.org/Graphics/SVG/1.1/DTD/svg11.dtd">
<svg version="1.1" id="Layer_1" xmlns="http://www.w3.org/2000/svg" xmlns:xlink="http://www.w3.org/1999/xlink" x="0px" y="0px"
	 width="497.874px" height="60.056px" viewBox="0 -26.945 497.874 60.056" enable-background="new 0 -26.945 497.874 60.056"
	 xml:space="preserve">
<g>
	<g>
		<g>
			<rect x="25.527" y="-11.234" fill="#E20613" width="5.363" height="4.794"/>
			<rect x="22.238" y="-5.448" fill="#9C1915" width="2.941" height="3.142"/>
			<rect x="19.471" y="-11.73" fill="#9C1915" width="3.632" height="3.144"/>
			<rect x="14.112" y="-13.715" fill="#E20613" width="3.284" height="2.978"/>
			<rect x="19.3" y="-17.349" fill="#9C1915" width="2.594" height="3.142"/>
			<rect x="24.316" y="-19.005" fill="#9C1915" width="4.325" height="3.969"/>
			<rect x="30.891" y="-16.688" fill="#9C1915" width="3.978" height="4.297"/>
			<rect x="7.362" y="-6.606" fill="#9C1915" width="1.903" height="1.654"/>
			<rect x="2" y="1.329" fill="#E20613" width="2.075" height="2.149"/>
			<rect x="7.709" y="-1.646" fill="#9C1915" width="3.805" height="3.306"/>
			<rect x="11.688" y="4.968" fill="#9C1915" width="4.152" height="4.626"/>
			<rect x="11.514" y="11.91" fill="#E20613" width="3.114" height="2.974"/>
			<rect x="17.916" y="9.095" fill="#9C1915" width="2.769" height="2.978"/>
			<rect x="17.742" y="16.54" fill="#9C1915" width="2.075" height="2.81"/>
			<rect x="21.72" y="13.067" fill="#9C1915" width="3.118" height="3.307"/>
			<rect x="24.662" y="18.854" fill="#E20613" width="4.327" height="4.46"/>
			<rect x="30.891" y="21.334" fill="#9C1915" width="4.498" height="4.628"/>
			<rect x="27.084" y="10.09" fill="#9C1915" width="5.192" height="5.292"/>
			<rect x="17.396" y="1.329" fill="#E20613" width="5.188" height="5.126"/>
			<rect x="14.112" y="-6.274" fill="#9C1915" width="4.495" height="3.804"/>
		</g>
		<g>
			
				<linearGradient id="SVGID_1_" gradientUnits="userSpaceOnUse" x1="-447.1445" y1="803.9597" x2="-439.6162" y2="803.9597" gradientTransform="matrix(1 0 0 1 484.7998 -800.4033)">
				<stop  offset="0.3333" style="stop-color:#9D191A"/>
				<stop  offset="0.6047" style="stop-color:#CD1319"/>
				<stop  offset="0.7515" style="stop-color:#E21118"/>
			</linearGradient>
			<path fill="url(#SVGID_1_)" d="M38.481-3.347c-0.281,0-0.555,0.025-0.826,0.056V10.4c0.271,0.037,0.547,0.061,0.826,0.061
				c3.701,0,6.703-3.092,6.703-6.905C45.184-0.254,42.182-3.347,38.481-3.347z"/>
			<g>
				
					<linearGradient id="SVGID_2_" gradientUnits="userSpaceOnUse" x1="-446.8887" y1="792.2615" x2="-424.4531" y2="792.2615" gradientTransform="matrix(1 0 0 1 484.7998 -800.4033)">
					<stop  offset="0.3333" style="stop-color:#9D191A"/>
					<stop  offset="0.6047" style="stop-color:#CD1319"/>
					<stop  offset="0.7515" style="stop-color:#E21118"/>
				</linearGradient>
				<path fill="url(#SVGID_2_)" d="M57.346,2.715h3.001C59.916-9.352,50.295-18.998,38.479-18.998c-0.187,0-0.375,0.011-0.568,0.017
					v3.095c0.19-0.005,0.381-0.015,0.568-0.015C48.636-15.9,56.915-7.641,57.346,2.715z"/>
				
					<linearGradient id="SVGID_3_" gradientUnits="userSpaceOnUse" x1="-446.8867" y1="818.7458" x2="-425.519" y2="818.7458" gradientTransform="matrix(1 0 0 1 484.7998 -800.4033)">
					<stop  offset="0.3333" style="stop-color:#9D191A"/>
					<stop  offset="0.6047" style="stop-color:#CD1319"/>
					<stop  offset="0.7515" style="stop-color:#E21118"/>
				</linearGradient>
				<path fill="url(#SVGID_3_)" d="M56.094,10.574c-2.733,7.276-9.587,12.44-17.613,12.44c-0.187,0-0.377-0.009-0.568-0.015v3.094
					c0.192,0.005,0.381,0.018,0.568,0.018c9.708,0,17.938-6.521,20.8-15.535h-3.187V10.574z"/>
			</g>
			<g>
				
					<linearGradient id="SVGID_4_" gradientUnits="userSpaceOnUse" x1="-447.1489" y1="800.7703" x2="-429.3032" y2="800.7703" gradientTransform="matrix(1 0 0 1 484.7998 -800.4033)">
					<stop  offset="0.3333" style="stop-color:#9D191A"/>
					<stop  offset="0.6047" style="stop-color:#CD1319"/>
					<stop  offset="0.7515" style="stop-color:#E21118"/>
				</linearGradient>
				<path fill="url(#SVGID_4_)" d="M53.165,3.554c0,3.506-1.159,6.729-3.1,9.292l1.546,1.869c2.427-3.035,3.886-6.921,3.886-11.161
					c0-9.684-7.618-17.534-17.018-17.534c-0.275,0-0.554,0.007-0.828,0.022v2.408c0.274-0.012,0.553-0.021,0.828-0.021
					C46.591-11.57,53.165-4.797,53.165,3.554z"/>
				
					<linearGradient id="SVGID_5_" gradientUnits="userSpaceOnUse" x1="-447.147" y1="819.8494" x2="-439.7495" y2="819.8494" gradientTransform="matrix(1 0 0 1 484.7998 -800.4033)">
					<stop  offset="0.3333" style="stop-color:#9D191A"/>
					<stop  offset="0.6047" style="stop-color:#CD1319"/>
					<stop  offset="0.7515" style="stop-color:#E21118"/>
				</linearGradient>
				<path fill="url(#SVGID_5_)" d="M43.444,17.801c-1.55,0.574-3.221,0.886-4.965,0.886c-0.275,0-0.554-0.011-0.826-0.025v2.407
					c0.272,0.017,0.551,0.023,0.826,0.023c2.33,0,4.548-0.485,6.571-1.356L43.444,17.801z"/>
			</g>
			
				<linearGradient id="SVGID_6_" gradientUnits="userSpaceOnUse" x1="-447.1445" y1="805.0369" x2="-434.5786" y2="805.0369" gradientTransform="matrix(1 0 0 1 484.7998 -800.4033)">
				<stop  offset="0.3333" style="stop-color:#9D191A"/>
				<stop  offset="0.6047" style="stop-color:#CD1319"/>
				<stop  offset="0.7515" style="stop-color:#E21118"/>
			</linearGradient>
			<path fill="url(#SVGID_6_)" d="M44.453-6.713l0.039,2.499c2.217,1.822,3.639,4.624,3.639,7.77c0,5.494-4.32,9.943-9.65,9.943
				c-0.277,0-0.555-0.02-0.826-0.04l0.023,2.478c0.274,0.021,0.551,0.043,0.831,0.043c6.667-0.031,11.894-5.984,11.708-12.5
				C50.098-0.599,47.521-5.133,44.453-6.713z"/>
		</g>
	</g>
	<g>
		<path fill="#1D1D1B" d="M82.915-10.788v9.487h-0.746c-0.244-1.82-0.678-3.272-1.308-4.352c-0.626-1.078-1.52-1.934-2.676-2.567
			c-1.159-0.637-2.361-0.95-3.603-0.95c-1.401,0-2.562,0.426-3.478,1.282c-0.923,0.856-1.374,1.833-1.374,2.927
			c0,0.834,0.289,1.594,0.87,2.284c0.836,1.011,2.825,2.358,5.968,4.046c2.565,1.374,4.31,2.428,5.25,3.167
			c0.934,0.733,1.656,1.598,2.161,2.596c0.503,1,0.76,2.042,0.76,3.134c0,2.077-0.81,3.868-2.417,5.367
			c-1.613,1.509-3.688,2.258-6.221,2.258c-0.796,0-1.548-0.059-2.246-0.184c-0.419-0.067-1.288-0.317-2.599-0.734
			c-1.313-0.429-2.146-0.64-2.5-0.64c-0.337,0-0.6,0.098-0.799,0.304c-0.194,0.203-0.342,0.619-0.432,1.252h-0.747V8.485h0.747
			c0.348,1.97,0.819,3.439,1.418,4.42c0.59,0.979,1.5,1.791,2.719,2.435c1.221,0.651,2.559,0.973,4.016,0.973
			c1.687,0,3.015-0.442,3.994-1.334c0.978-0.89,1.468-1.941,1.468-3.156c0-0.672-0.187-1.352-0.557-2.045
			c-0.372-0.687-0.951-1.326-1.732-1.917c-0.523-0.408-1.96-1.266-4.309-2.579c-2.344-1.314-4.012-2.364-5.003-3.145
			c-0.994-0.782-1.746-1.649-2.259-2.59c-0.515-0.94-0.77-1.986-0.77-3.116c0-1.968,0.752-3.667,2.265-5.088
			c1.512-1.421,3.434-2.133,5.766-2.133c1.458,0,3.001,0.358,4.629,1.073c0.757,0.336,1.288,0.507,1.602,0.507
			c0.348,0,0.635-0.105,0.856-0.317c0.226-0.208,0.403-0.63,0.538-1.264L82.915-10.788L82.915-10.788z"/>
		<path fill="#1D1D1B" d="M97.547-5.127v9.36h5.2c1.354,0,2.256-0.199,2.711-0.608c0.607-0.536,0.944-1.477,1.015-2.831h0.644v8.25
			h-0.644c-0.166-1.153-0.327-1.892-0.492-2.217c-0.208-0.414-0.552-0.733-1.031-0.964c-0.478-0.233-1.211-0.347-2.203-0.347h-5.2
			v7.809c0,1.045,0.046,1.682,0.14,1.912c0.093,0.228,0.253,0.406,0.484,0.541c0.233,0.137,0.676,0.203,1.329,0.203h4.014
			c1.343,0,2.313-0.095,2.918-0.28c0.606-0.189,1.19-0.554,1.748-1.104c0.72-0.722,1.462-1.811,2.216-3.268h0.701l-2.044,5.94
			H90.798v-0.645h0.841c0.559,0,1.087-0.138,1.59-0.401c0.372-0.186,0.625-0.47,0.76-0.838c0.133-0.375,0.201-1.139,0.201-2.289
			V-2.296c0-1.502-0.152-2.429-0.457-2.783c-0.415-0.464-1.114-0.695-2.095-0.695h-0.841V-6.42h18.256l0.263,5.191h-0.681
			c-0.245-1.248-0.516-2.105-0.81-2.569c-0.299-0.466-0.74-0.823-1.32-1.063c-0.464-0.175-1.288-0.265-2.464-0.265H97.547z"/>
		<path fill="#1D1D1B" d="M136.147-6.962l0.538,8.053h-0.538c-0.726-2.411-1.753-4.144-3.094-5.205
			c-1.338-1.058-2.947-1.589-4.822-1.589c-1.572,0-2.996,0.399-4.261,1.195c-1.271,0.798-2.271,2.073-2.999,3.817
			c-0.727,1.746-1.089,3.92-1.089,6.517c0,2.142,0.343,4.001,1.029,5.572c0.688,1.576,1.724,2.776,3.103,3.617
			c1.38,0.839,2.958,1.257,4.724,1.257c1.539,0,2.894-0.327,4.071-0.981c1.179-0.661,2.471-1.966,3.878-3.927l0.545,0.352
			c-1.19,2.107-2.574,3.653-4.158,4.627c-1.583,0.978-3.467,1.465-5.643,1.465c-3.925,0-6.967-1.456-9.116-4.364
			c-1.609-2.165-2.416-4.72-2.416-7.652c0-2.36,0.529-4.535,1.588-6.518c1.062-1.976,2.52-3.512,4.379-4.597
			c1.858-1.093,3.888-1.636,6.087-1.636c1.711,0,3.401,0.422,5.063,1.258c0.494,0.256,0.841,0.384,1.051,0.384
			c0.316,0,0.59-0.11,0.823-0.332c0.301-0.316,0.515-0.75,0.647-1.311L136.147-6.962L136.147-6.962z"/>
		<path fill="#1D1D1B" d="M158.218-5.774V-6.42h8.387v0.646h-0.893c-0.93,0-1.647,0.392-2.148,1.172
			c-0.246,0.357-0.368,1.197-0.368,2.513v9.609c0,2.378-0.236,4.218-0.708,5.527c-0.47,1.311-1.396,2.438-2.775,3.373
			c-1.382,0.937-3.259,1.408-5.635,1.408c-2.587,0-4.547-0.45-5.889-1.348c-1.337-0.896-2.291-2.101-2.847-3.62
			c-0.372-1.033-0.562-2.985-0.562-5.832v-9.259c0-1.456-0.197-2.415-0.599-2.865c-0.404-0.455-1.052-0.683-1.949-0.683h-0.891
			v-0.646h10.237v0.646h-0.909c-0.979,0-1.678,0.31-2.096,0.928c-0.292,0.419-0.438,1.293-0.438,2.62V8.095
			c0,0.921,0.083,1.974,0.251,3.163c0.173,1.19,0.477,2.113,0.922,2.777c0.443,0.661,1.078,1.209,1.911,1.639
			c0.834,0.434,1.854,0.65,3.067,0.65c1.549,0,2.936-0.336,4.157-1.014c1.223-0.678,2.057-1.542,2.508-2.594
			c0.447-1.051,0.67-2.841,0.67-5.352v-9.594c0-1.479-0.162-2.405-0.487-2.779c-0.456-0.505-1.129-0.768-2.024-0.768h-0.894V-5.774z
			"/>
		<path fill="#1D1D1B" d="M193.85,17.265h-6.323l-8.021-11.074c-0.592,0.027-1.076,0.035-1.445,0.035
			c-0.154,0-0.316-0.004-0.489-0.005c-0.177-0.011-0.356-0.016-0.544-0.029v6.883c0,1.494,0.162,2.418,0.491,2.777
			c0.44,0.511,1.105,0.77,1.987,0.77h0.928v0.646h-10.149v-0.646h0.893c1.002,0,1.716-0.326,2.145-0.979
			c0.246-0.357,0.367-1.217,0.367-2.568V-2.229c0-1.49-0.161-2.417-0.486-2.779c-0.457-0.505-1.131-0.768-2.025-0.768h-0.893v-0.646
			h8.629c2.515,0,4.369,0.183,5.563,0.551c1.196,0.369,2.209,1.043,3.042,2.028c0.832,0.984,1.249,2.156,1.249,3.518
			c0,1.457-0.479,2.719-1.425,3.79c-0.948,1.076-2.419,1.829-4.41,2.273l4.893,6.794c1.118,1.562,2.078,2.6,2.883,3.109
			c0.801,0.514,1.849,0.841,3.142,0.979v0.646H193.85z M177.026,5.089c0.222,0,0.413,0.007,0.576,0.017
			c0.162,0.003,0.298,0.003,0.4,0.003c2.263,0,3.965-0.488,5.111-1.464c1.146-0.975,1.72-2.223,1.72-3.736
			c0-1.479-0.464-2.683-1.387-3.609c-0.926-0.924-2.152-1.389-3.678-1.389c-0.676,0-1.588,0.11-2.743,0.333V5.089L177.026,5.089z"/>
		<path fill="#1D1D1B" d="M203.697-5.127v9.36h5.205c1.349,0,2.252-0.199,2.707-0.608c0.606-0.536,0.947-1.477,1.016-2.831h0.646
			v8.25h-0.647c-0.164-1.153-0.328-1.892-0.492-2.217c-0.207-0.414-0.553-0.733-1.031-0.964c-0.476-0.233-1.209-0.347-2.199-0.347
			h-5.205v7.809c0,1.045,0.045,1.682,0.14,1.912c0.091,0.228,0.253,0.406,0.487,0.541c0.23,0.137,0.674,0.203,1.326,0.203h4.019
			c1.34,0,2.308-0.095,2.917-0.28c0.606-0.189,1.188-0.554,1.745-1.104c0.725-0.722,1.464-1.811,2.22-3.268h0.702l-2.046,5.94
			h-18.257v-0.645h0.841c0.557,0,1.089-0.138,1.588-0.401c0.374-0.186,0.625-0.47,0.762-0.838c0.131-0.375,0.2-1.139,0.2-2.289
			V-2.296c0-1.502-0.152-2.429-0.453-2.783c-0.422-0.464-1.119-0.695-2.097-0.695h-0.841V-6.42h18.257l0.263,5.191h-0.68
			c-0.245-1.248-0.516-2.105-0.812-2.569c-0.299-0.466-0.738-0.823-1.32-1.063c-0.466-0.175-1.289-0.265-2.463-0.265H203.697z"/>
		<path fill="#1D1D1B" d="M221.366,17.265V16.62h0.892c1.003,0,1.712-0.322,2.134-0.965c0.255-0.383,0.382-1.243,0.382-2.584v-15.3
			c0-1.479-0.162-2.405-0.487-2.779c-0.455-0.505-1.131-0.768-2.028-0.768h-0.892v-0.646h9.643c3.542,0,6.235,0.403,8.081,1.203
			c1.846,0.809,3.333,2.143,4.458,4.023c1.122,1.873,1.685,4.039,1.685,6.495c0,3.293-1.004,6.052-3.004,8.266
			c-2.251,2.471-5.672,3.701-10.273,3.701H221.366L221.366,17.265z M228.128,15.555c1.479,0.328,2.718,0.488,3.72,0.488
			c2.701,0,4.945-0.944,6.728-2.845c1.781-1.899,2.673-4.474,2.673-7.722c0-3.273-0.892-5.854-2.673-7.739
			c-1.779-1.887-4.07-2.829-6.866-2.829c-1.046,0-2.242,0.171-3.581,0.506V15.555L228.128,15.555z"/>
	</g>
	<g>
		<path fill="#B20E10" d="M263.257-8.937V1.909h6.03c1.562,0,2.607-0.233,3.135-0.704c0.697-0.625,1.091-1.719,1.174-3.281h0.747
			v9.545h-0.747c-0.19-1.333-0.375-2.19-0.567-2.564c-0.24-0.475-0.639-0.849-1.194-1.118c-0.554-0.27-1.401-0.401-2.547-0.401
			h-6.03v9.039c0,1.215,0.055,1.956,0.163,2.215c0.108,0.264,0.295,0.475,0.566,0.625c0.271,0.154,0.781,0.234,1.539,0.234h4.652
			c1.551,0,2.674-0.108,3.379-0.321c0.7-0.217,1.373-0.647,2.02-1.275c0.838-0.836,1.695-2.096,2.573-3.786h0.809l-2.365,6.883
			h-21.14v-0.754h0.968c0.648,0,1.264-0.151,1.841-0.462c0.431-0.216,0.727-0.538,0.882-0.97c0.151-0.428,0.229-1.316,0.229-2.65
			V-5.658c0-1.735-0.176-2.808-0.526-3.214c-0.483-0.54-1.292-0.811-2.429-0.811h-0.967v-0.75h21.139l0.306,6.009h-0.791
			c-0.281-1.442-0.599-2.434-0.942-2.974c-0.347-0.542-0.85-0.951-1.529-1.235c-0.539-0.202-1.489-0.307-2.851-0.307h-7.525V-8.937z
			"/>
		<path fill="#B20E10" d="M282.541-6.693h6.43l14.482,17.767V-2.585c0-1.455-0.164-2.365-0.491-2.728
			c-0.43-0.489-1.114-0.733-2.045-0.733h-0.819v-0.648h8.245v0.646h-0.838c-1.001,0-1.709,0.306-2.132,0.911
			c-0.26,0.372-0.386,1.22-0.386,2.551v19.965h-0.628L288.743-1.697V12.89c0,1.456,0.158,2.365,0.475,2.723
			c0.442,0.489,1.12,0.738,2.04,0.738h0.838v0.649h-8.244v-0.649h0.819c1.019,0,1.73-0.305,2.15-0.909
			c0.255-0.374,0.385-1.223,0.385-2.553V-3.583c-0.688-0.806-1.206-1.333-1.563-1.587c-0.355-0.255-0.875-0.494-1.561-0.717
			c-0.342-0.105-0.853-0.157-1.539-0.157v-0.649H282.541z"/>
		<path fill="#B20E10" d="M332.234-6.693l0.26,5.555h-0.662c-0.13-0.975-0.303-1.676-0.522-2.095
			c-0.359-0.675-0.842-1.172-1.441-1.497c-0.604-0.314-1.388-0.477-2.367-0.477h-3.337v18.096c0,1.455,0.154,2.366,0.472,2.723
			c0.437,0.488,1.116,0.737,2.04,0.737h0.821v0.649h-10.044v-0.647h0.838c1,0,1.712-0.305,2.13-0.909
			c0.254-0.374,0.388-1.223,0.388-2.553V-5.205h-2.851c-1.104,0-1.89,0.079-2.357,0.242c-0.603,0.222-1.123,0.648-1.556,1.278
			c-0.429,0.625-0.687,1.48-0.771,2.546h-0.657l0.278-5.555H332.234z"/>
		<path fill="#B20E10" d="M343.552-5.396v9.364h5.206c1.348,0,2.247-0.204,2.702-0.614c0.606-0.535,0.946-1.476,1.018-2.832h0.644
			v8.252h-0.644c-0.162-1.158-0.329-1.895-0.493-2.217c-0.211-0.412-0.554-0.73-1.03-0.963c-0.478-0.236-1.212-0.348-2.198-0.348
			h-5.208v7.809c0,1.043,0.041,1.681,0.137,1.91c0.091,0.227,0.26,0.412,0.491,0.542c0.23,0.134,0.676,0.204,1.326,0.204h4.021
			c1.337,0,2.311-0.098,2.916-0.285c0.606-0.182,1.188-0.549,1.747-1.098c0.721-0.723,1.463-1.809,2.222-3.266h0.7l-2.046,5.94
			h-18.258v-0.646h0.839c0.555,0,1.084-0.137,1.586-0.404c0.376-0.183,0.628-0.464,0.766-0.834c0.131-0.379,0.2-1.134,0.2-2.292
			V-2.565c0-1.504-0.149-2.428-0.455-2.779c-0.417-0.466-1.118-0.699-2.097-0.699h-0.837v-0.648h18.257l0.261,5.191h-0.679
			c-0.245-1.248-0.517-2.105-0.814-2.567c-0.298-0.469-0.738-0.821-1.319-1.063c-0.462-0.179-1.288-0.265-2.462-0.265H343.552z"/>
		<path fill="#B20E10" d="M384.783,17.001h-6.319l-8.021-11.076c-0.593,0.023-1.076,0.036-1.448,0.036
			c-0.151,0-0.314-0.005-0.494-0.009c-0.172-0.009-0.353-0.016-0.538-0.027v6.881c0,1.497,0.158,2.419,0.486,2.777
			c0.441,0.513,1.107,0.772,1.99,0.772h0.928v0.646h-10.148v-0.646h0.891c0.999,0,1.715-0.329,2.147-0.98
			c0.242-0.357,0.366-1.213,0.366-2.569V-2.495c0-1.491-0.163-2.419-0.492-2.777c-0.453-0.511-1.129-0.771-2.025-0.771h-0.889
			v-0.648h8.629c2.516,0,4.368,0.185,5.563,0.551c1.194,0.368,2.206,1.042,3.04,2.03c0.83,0.982,1.25,2.156,1.25,3.515
			c0,1.457-0.477,2.72-1.424,3.792c-0.949,1.076-2.424,1.827-4.412,2.271l4.894,6.794c1.115,1.563,2.079,2.598,2.885,3.111
			c0.798,0.509,1.847,0.839,3.142,0.979V17.001L384.783,17.001z M367.966,4.818c0.221,0,0.412,0.009,0.576,0.014
			c0.162,0.003,0.295,0.007,0.396,0.007c2.26,0,3.967-0.489,5.116-1.468c1.145-0.977,1.721-2.225,1.721-3.738
			c0-1.479-0.463-2.681-1.393-3.606c-0.925-0.924-2.153-1.39-3.678-1.39c-0.673,0-1.587,0.11-2.739,0.333V4.818L367.966,4.818z"/>
		<path fill="#B20E10" d="M394.49,5.903v6.901c0,1.495,0.16,2.417,0.491,2.776c0.448,0.512,1.111,0.771,2.008,0.771h0.908v0.649
			h-10.149v-0.649h0.894c0.999,0,1.719-0.33,2.147-0.979c0.23-0.357,0.347-1.214,0.347-2.568V-2.497c0-1.491-0.152-2.419-0.47-2.777
			c-0.455-0.511-1.134-0.771-2.026-0.771h-0.892v-0.649h8.685c2.12,0,3.789,0.221,5.014,0.656c1.22,0.435,2.248,1.172,3.091,2.205
			c0.839,1.04,1.256,2.27,1.256,3.689c0,1.93-0.636,3.506-1.907,4.72c-1.278,1.208-3.079,1.813-5.409,1.813
			c-0.57,0-1.188-0.038-1.855-0.119C395.958,6.192,395.248,6.067,394.49,5.903z M394.49,4.908c0.619,0.116,1.168,0.206,1.646,0.262
			c0.477,0.061,0.885,0.09,1.221,0.09c1.213,0,2.253-0.471,3.135-1.407c0.88-0.938,1.321-2.152,1.321-3.645
			c0-1.022-0.207-1.975-0.632-2.854c-0.418-0.883-1.015-1.535-1.78-1.976c-0.77-0.433-1.643-0.653-2.618-0.653
			c-0.593,0-1.352,0.11-2.291,0.33L394.49,4.908L394.49,4.908z"/>
		<path fill="#B20E10" d="M433.913,17.001h-6.323l-8.02-11.076c-0.594,0.023-1.077,0.036-1.449,0.036
			c-0.151,0-0.314-0.005-0.49-0.009c-0.174-0.009-0.354-0.016-0.541-0.027v6.881c0,1.497,0.162,2.419,0.49,2.777
			c0.438,0.513,1.104,0.772,1.99,0.772h0.928v0.646h-10.155v-0.646h0.893c1.002,0,1.719-0.329,2.15-0.98
			c0.242-0.357,0.366-1.213,0.366-2.569V-2.495c0-1.491-0.166-2.419-0.49-2.777c-0.455-0.511-1.131-0.771-2.03-0.771h-0.893v-0.648
			h8.636c2.516,0,4.372,0.185,5.561,0.551c1.194,0.368,2.21,1.042,3.042,2.03c0.838,0.982,1.251,2.156,1.251,3.515
			c0,1.457-0.477,2.72-1.426,3.792c-0.949,1.076-2.42,1.827-4.413,2.271l4.894,6.794c1.115,1.563,2.078,2.598,2.882,3.111
			c0.806,0.509,1.856,0.839,3.146,0.979L433.913,17.001L433.913,17.001z M417.092,4.818c0.221,0,0.412,0.009,0.574,0.014
			c0.167,0.003,0.297,0.007,0.403,0.007c2.257,0,3.963-0.489,5.11-1.468c1.147-0.977,1.716-2.225,1.716-3.738
			c0-1.479-0.458-2.681-1.383-3.606c-0.929-0.924-2.155-1.39-3.676-1.39c-0.679,0-1.593,0.11-2.743,0.333L417.092,4.818
			L417.092,4.818z"/>
		<path fill="#B20E10" d="M447.325,16.353v0.647h-10.147v-0.647h0.834c0.982,0,1.689-0.285,2.134-0.859
			c0.274-0.369,0.418-1.269,0.418-2.69V-2.497c0-1.202-0.076-1.993-0.224-2.376c-0.121-0.291-0.356-0.543-0.717-0.754
			c-0.516-0.276-1.048-0.419-1.611-0.419h-0.834v-0.647h10.147v0.647h-0.856c-0.968,0-1.668,0.287-2.116,0.857
			c-0.292,0.37-0.437,1.268-0.437,2.69v15.301c0,1.197,0.079,1.991,0.23,2.377c0.116,0.292,0.357,0.539,0.732,0.748
			c0.5,0.281,1.033,0.422,1.59,0.422L447.325,16.353L447.325,16.353z"/>
		<path fill="#B20E10" d="M467.284-7.235v8.198h-0.646c-0.21-1.576-0.585-2.828-1.126-3.758c-0.543-0.93-1.319-1.671-2.315-2.219
			c-1.004-0.546-2.037-0.821-3.109-0.821c-1.21,0-2.21,0.37-3.009,1.11c-0.789,0.741-1.184,1.582-1.184,2.524
			c0,0.722,0.249,1.383,0.748,1.973c0.722,0.876,2.443,2.041,5.152,3.494c2.216,1.19,3.724,2.1,4.529,2.732
			c0.812,0.637,1.44,1.387,1.877,2.25c0.433,0.859,0.653,1.762,0.653,2.705c0,1.8-0.695,3.34-2.087,4.644
			c-1.391,1.293-3.182,1.94-5.37,1.94c-0.689,0-1.336-0.049-1.938-0.153c-0.361-0.056-1.109-0.269-2.245-0.639
			c-1.135-0.361-1.854-0.555-2.159-0.555c-0.289,0-0.524,0.094-0.689,0.266c-0.168,0.177-0.293,0.542-0.376,1.081h-0.645V9.419
			h0.645c0.303,1.699,0.714,2.97,1.221,3.817c0.515,0.841,1.294,1.544,2.349,2.106c1.057,0.561,2.212,0.837,3.471,0.837
			c1.456,0,2.611-0.389,3.449-1.155c0.843-0.764,1.268-1.674,1.268-2.721c0-0.587-0.159-1.172-0.478-1.766
			c-0.324-0.596-0.82-1.147-1.498-1.664c-0.453-0.347-1.695-1.086-3.723-2.224c-2.027-1.134-3.468-2.041-4.323-2.719
			c-0.856-0.673-1.504-1.423-1.95-2.235c-0.44-0.814-0.661-1.711-0.661-2.692c0-1.699,0.658-3.164,1.959-4.395
			c1.302-1.226,2.967-1.842,4.976-1.842c1.261,0,2.592,0.309,4.004,0.925c0.654,0.291,1.112,0.438,1.38,0.438
			c0.303,0,0.549-0.092,0.74-0.271c0.191-0.181,0.347-0.546,0.462-1.093h0.646l0,0H467.284z"/>
		<path fill="#B20E10" d="M480.937-5.396v9.364h5.208c1.348,0,2.247-0.204,2.702-0.614c0.61-0.535,0.946-1.476,1.018-2.832h0.646
			v8.252h-0.646c-0.166-1.158-0.324-1.895-0.491-2.217c-0.21-0.412-0.557-0.73-1.033-0.963c-0.479-0.236-1.205-0.348-2.195-0.348
			h-5.21v7.809c0,1.043,0.05,1.681,0.141,1.91c0.094,0.227,0.256,0.412,0.492,0.542c0.229,0.134,0.674,0.204,1.328,0.204h4.019
			c1.34,0,2.308-0.098,2.914-0.285c0.604-0.182,1.188-0.549,1.746-1.098c0.724-0.723,1.463-1.809,2.225-3.266h0.693l-2.043,5.94
			h-18.254v-0.646h0.838c0.557,0,1.088-0.137,1.591-0.404c0.37-0.183,0.623-0.464,0.757-0.834c0.133-0.379,0.202-1.134,0.202-2.292
			V-2.565c0-1.504-0.151-2.428-0.455-2.779c-0.417-0.466-1.117-0.699-2.097-0.699h-0.836v-0.648h18.254L492.71-1.5h-0.677
			c-0.247-1.248-0.518-2.105-0.811-2.567c-0.301-0.469-0.738-0.821-1.321-1.063c-0.465-0.179-1.286-0.265-2.46-0.265H480.937z"/>
	</g>
</g>
</svg>
