<svg id="Layer_1" data-name="Layer 1" xmlns="http://www.w3.org/2000/svg" xmlns:xlink="http://www.w3.org/1999/xlink" viewBox="0 0 281.7 37"><defs><style>.cls-1{fill:#231f20;}.cls-2{fill:#2b74b9;}.cls-3{fill:url(#linear-gradient);}.cls-4{fill:url(#linear-gradient-2);}.cls-5{fill:url(#linear-gradient-3);}</style><linearGradient id="linear-gradient" x1="330.3" y1="316.63" x2="340.55" y2="316.63" gradientUnits="userSpaceOnUse"><stop offset="0" stop-color="#28aae1"/><stop offset="1" stop-color="#005085"/></linearGradient><linearGradient id="linear-gradient-2" x1="316.62" y1="303.8" x2="325.86" y2="303.8" xlink:href="#linear-gradient"/><linearGradient id="linear-gradient-3" x1="317.81" y1="307.91" x2="350.8" y2="307.91" gradientUnits="userSpaceOnUse"><stop offset="0" stop-color="#28aae1"/><stop offset="1" stop-color="#0473ba"/></linearGradient></defs><title>Unify</title><path class="cls-1" d="M373.1,310.4H360.8a4.4,4.4,0,0,0,4.6,3.9,5,5,0,0,0,4.1-1.9l2.5,3.3a7.8,7.8,0,0,1-6.7,3.2c-5.6,0-9.3-4.3-9.3-10.1s3.7-10.2,8.7-10.2,8.4,3.9,8.4,10.2Zm-12.4-3.3h8c-.3-2.5-1.9-4.1-4-4.1S361,304.5,360.7,307.1Z" transform="translate(-316.6 -289.4)"/><path class="cls-1" d="M392.9,307.3v11.3h-4.7V308.2c0-3.2-1.2-4.6-3.3-4.6s-3.9,1.7-3.9,5.3v9.7h-4.7V298.9h4.5v2.3a6.9,6.9,0,0,1,5.4-2.6C390,298.6,392.9,301.3,392.9,307.3Z" transform="translate(-316.6 -289.4)"/><path class="cls-1" d="M407.6,317.7a6.2,6.2,0,0,1-3.8,1.2c-3.9,0-6.1-2.4-6.1-7.1v-8h-2.5v-4.4h2.5v-4.8h4.7v4.8h4.1v4.4h-4.1v8c0,1.7.8,2.6,2,2.6a2.7,2.7,0,0,0,1.9-.8Z" transform="translate(-316.6 -289.4)"/><path class="cls-1" d="M425.6,310.4H413.3a4.5,4.5,0,0,0,4.6,3.9,4.9,4.9,0,0,0,4.1-1.9l2.5,3.3a7.8,7.8,0,0,1-6.7,3.2c-5.6,0-9.2-4.3-9.2-10.1s3.7-10.2,8.6-10.2,8.5,3.9,8.5,10.2C425.7,309.3,425.6,309.9,425.6,310.4Zm-12.4-3.3h8c-.3-2.5-1.8-4.1-4-4.1S413.6,304.5,413.2,307.1Z" transform="translate(-316.6 -289.4)"/><path class="cls-1" d="M438.9,298.6v5.3h-1.1c-2.6,0-4.3,1.8-4.3,5.5v9.3h-4.7V298.9h4.5v2.6A6.1,6.1,0,0,1,438.9,298.6Z" transform="translate(-316.6 -289.4)"/><path class="cls-1" d="M459.4,308.8c0,6.2-3.6,10.1-8.1,10.1a5.9,5.9,0,0,1-4.9-2.4v9.2h-4.7V298.9h4.5v2.3a5.9,5.9,0,0,1,5.1-2.6C455.8,298.6,459.4,302.6,459.4,308.8Zm-4.8,0c0-3.4-1.8-5.5-4.1-5.5s-4.2,2.1-4.2,5.5,1.8,5.4,4.2,5.4S454.6,312.2,454.6,308.8Z" transform="translate(-316.6 -289.4)"/><path class="cls-1" d="M472.6,298.6v5.3h-1.1c-2.6,0-4.3,1.8-4.3,5.5v9.3h-4.7V298.9H467v2.6A6.2,6.2,0,0,1,472.6,298.6Z" transform="translate(-316.6 -289.4)"/><path class="cls-1" d="M474.8,293a3,3,0,0,1,3-3.2,2.9,2.9,0,0,1,2.9,3.1,3,3,0,1,1-5.9.1Zm.6,5.9h4.7v19.7h-4.7Z" transform="translate(-316.6 -289.4)"/><path class="cls-1" d="M482.9,316.8l1.6-4.1a9.7,9.7,0,0,0,5.6,1.9c2.2,0,3-.7,3-1.8,0-3.2-9.8.1-9.8-7.8,0-3.7,2.8-6.4,7.5-6.4a11.7,11.7,0,0,1,6.3,1.8l-1.6,4a8,8,0,0,0-4.7-1.4c-2.1,0-3,.8-3,1.8,0,3.4,9.8.1,9.8,7.9,0,3.6-2.8,6.2-7.6,6.2A12.2,12.2,0,0,1,482.9,316.8Z" transform="translate(-316.6 -289.4)"/><path class="cls-1" d="M516.3,310.4H504a4.6,4.6,0,0,0,4.7,3.9,5,5,0,0,0,4.1-1.9l2.5,3.3a7.8,7.8,0,0,1-6.7,3.2c-5.6,0-9.3-4.3-9.3-10.1s3.7-10.2,8.7-10.2,8.4,3.9,8.4,10.2A8.6,8.6,0,0,1,516.3,310.4ZM504,307.1h8c-.3-2.5-1.9-4.1-4-4.1S504.3,304.5,504,307.1Z" transform="translate(-316.6 -289.4)"/><path class="cls-2" d="M535.9,298.9v19.7h-4.4v-2.3a6.3,6.3,0,0,1-5.1,2.6c-4.1,0-6.9-2.8-6.9-8.8V298.9h4.7v10.3c0,3.3,1.2,4.8,3.3,4.8s3.7-1.7,3.7-5.3v-9.8Z" transform="translate(-316.6 -289.4)"/><path class="cls-2" d="M556.9,307.3v11.3h-4.7V308.2c0-3.2-1.2-4.6-3.3-4.6s-3.9,1.7-3.9,5.3v9.7h-4.7V298.9h4.5v2.3a6.9,6.9,0,0,1,5.4-2.6C554,298.6,556.9,301.3,556.9,307.3Z" transform="translate(-316.6 -289.4)"/><path class="cls-2" d="M560.6,293a3,3,0,0,1,2.9-3.2,2.8,2.8,0,0,1,2.9,3.1c0,1.9-1.1,3.3-2.9,3.3A3,3,0,0,1,560.6,293Zm.6,5.9h4.7v19.7h-4.7Z" transform="translate(-316.6 -289.4)"/><path class="cls-2" d="M575.4,299.4h4.2v4.4h-4.1v14.8h-4.7V303.8h-2.5v-4.4h2.5v-.9c0-4.4,2.2-7.3,6.3-7.3a6.1,6.1,0,0,1,3.6,1l-1.3,4.2a2.5,2.5,0,0,0-1.9-.7c-1.3,0-2.1.9-2.1,2.8Z" transform="translate(-316.6 -289.4)"/><path class="cls-2" d="M598.3,298.9,591,319.8c-1.6,4.8-3.8,6.2-6.7,6.2a6.8,6.8,0,0,1-4.6-1.8l1.8-4a3.9,3.9,0,0,0,2.6,1.2c1.3,0,2-.7,2.7-2.5h0l-7-19.9h4.9l4.5,13.4,4.6-13.4Z" transform="translate(-316.6 -289.4)"/><path class="cls-3" d="M339.5,320.4c-2.5,2.7-5.7,1.2-9.2-1.4,3.9.1,7.3-2.7,7.1-7.6C340.1,315.1,341.7,318.1,339.5,320.4Z" transform="translate(-316.6 -289.4)"/><path class="cls-4" d="M321.2,298.9a4.9,4.9,0,1,0,4.7,4.9A4.8,4.8,0,0,0,321.2,298.9Z" transform="translate(-316.6 -289.4)"/><path class="cls-5" d="M318.9,314.7c6.3-6.6,15.3,11.2,20.4,5.8s-17.6-16.2-6.3-28.1,26.4,13,11.8,28.3C332.4,333.8,312.9,321,318.9,314.7Z" transform="translate(-316.6 -289.4)"/></svg>