<?xml version="1.0" encoding="utf-8"?>
<!-- Generator: Adobe Illustrator 24.0.0, SVG Export Plug-In . SVG Version: 6.00 Build 0)  -->
<svg version="1.1" id="Layer_1" xmlns="http://www.w3.org/2000/svg" xmlns:xlink="http://www.w3.org/1999/xlink" x="0px" y="0px"
	 viewBox="0 0 50.4 6.6" style="enable-background:new 0 0 50.4 6.6;" xml:space="preserve">
<style type="text/css">
	.st0{fill:#FFFFFF;}
	.st1{fill:url(#SVGID_1_);}
	.st2{fill:url(#SVGID_2_);}
	.st3{fill:url(#SVGID_3_);}
	.st4{fill:url(#SVGID_4_);}
	.st5{fill:url(#SVGID_5_);}
	.st6{fill:url(#SVGID_6_);}
	.st7{fill:url(#SVGID_7_);}
	.st8{fill:url(#SVGID_8_);}
	.st9{fill:url(#SVGID_9_);}
	.st10{fill:url(#SVGID_10_);}
	.st11{fill:url(#SVGID_11_);}
	.st12{fill:url(#SVGID_12_);}
	.st13{fill:url(#SVGID_13_);}
	.st14{fill:url(#SVGID_14_);}
	.st15{fill:url(#SVGID_15_);}
</style>
<g>
	<g>
		<linearGradient id="SVGID_1_" gradientUnits="userSpaceOnUse" x1="0.2427" y1="2.9327" x2="7.4268" y2="2.9327">
			<stop  offset="0" style="stop-color:#9F1622"/>
			<stop  offset="0.2048" style="stop-color:#A81722"/>
			<stop  offset="0.5387" style="stop-color:#C01923"/>
			<stop  offset="0.9581" style="stop-color:#E81C24"/>
			<stop  offset="1" style="stop-color:#EC1C24"/>
		</linearGradient>
		<path class="st1" d="M0.2,5.1c0.3,0.1,0.6,0,0.8,0c2.5,0.7,5.6-1.2,5.5-3.2C6.5,0.7,5.2,0,3.7,0c2.1-0.3,3.5,0.6,3.7,1.9
			C7.8,4.7,2.7,7.1,0.2,5.1z"/>
		<linearGradient id="SVGID_2_" gradientUnits="userSpaceOnUse" x1="5.835877e-02" y1="2.482" x2="5.7387" y2="2.482">
			<stop  offset="0" style="stop-color:#026190"/>
			<stop  offset="0.1946" style="stop-color:#046898"/>
			<stop  offset="0.4956" style="stop-color:#097BAE"/>
			<stop  offset="0.8635" style="stop-color:#119BD1"/>
			<stop  offset="1" style="stop-color:#15A8E0"/>
		</linearGradient>
		<path class="st2" d="M1.6,4.6c0.2-0.2,0.2-0.5,0.1-0.8c1.5,0.1,2.9-0.8,2.9-1.9c0-0.6-0.6-1-1.2-1.1C1.9,0.6,0.1,1.9,0.7,3.2
			c-0.3,0-0.4,0.1-0.6,0.2c-0.2-1.6,1.5-3,3.5-3c1.5,0,2.3,0.8,2.2,1.9C5.5,3.7,3.7,4.8,1.6,4.6z"/>
		<linearGradient id="SVGID_3_" gradientUnits="userSpaceOnUse" x1="1.2741" y1="2.19" x2="3.6391" y2="2.19">
			<stop  offset="0" style="stop-color:#9F1622"/>
			<stop  offset="0.2048" style="stop-color:#A81722"/>
			<stop  offset="0.5387" style="stop-color:#C01923"/>
			<stop  offset="0.9581" style="stop-color:#E81C24"/>
			<stop  offset="1" style="stop-color:#EC1C24"/>
		</linearGradient>
		<path class="st3" d="M2.4,1.3c2.4-0.4,0.9,2.5-0.8,1.6C0.8,2.5,1.6,1.5,2.4,1.3z"/>
		<linearGradient id="SVGID_4_" gradientUnits="userSpaceOnUse" x1="3.637979e-12" y1="4.1931" x2="1.2974" y2="4.1931">
			<stop  offset="0" style="stop-color:#026190"/>
			<stop  offset="0.1946" style="stop-color:#046898"/>
			<stop  offset="0.4956" style="stop-color:#097BAE"/>
			<stop  offset="0.8635" style="stop-color:#119BD1"/>
			<stop  offset="1" style="stop-color:#15A8E0"/>
		</linearGradient>
		<path class="st4" d="M1,3.6c0.6,0.3,0.2,1.2-0.4,1.2C-0.3,4.8-0.2,3.4,1,3.6z"/>
	</g>
	<g>
		<linearGradient id="SVGID_5_" gradientUnits="userSpaceOnUse" x1="8.7701" y1="2.5547" x2="12.5542" y2="2.5547">
			<stop  offset="0" style="stop-color:#9F1622"/>
			<stop  offset="0.2048" style="stop-color:#A81722"/>
			<stop  offset="0.5387" style="stop-color:#C01923"/>
			<stop  offset="0.9581" style="stop-color:#E81C24"/>
			<stop  offset="1" style="stop-color:#EC1C24"/>
		</linearGradient>
		<path class="st5" d="M9,0.5c-0.1,0-0.1,0-0.2-0.1c0-0.1-0.1-0.1-0.1-0.2c0-0.1,0-0.1,0.1-0.2C8.9,0.1,9,0,9,0h3.3
			c0.1,0,0.1,0,0.2,0.1c0,0,0.1,0.1,0.1,0.2c0,0.1,0,0.1-0.1,0.2c0,0-0.1,0.1-0.2,0.1h-1.4v4.3c0,0.1,0,0.1-0.1,0.2
			c0,0.1-0.1,0.1-0.2,0.1c-0.1,0-0.1,0-0.2-0.1c0,0-0.1-0.1-0.1-0.2V0.5H9z"/>
		<linearGradient id="SVGID_6_" gradientUnits="userSpaceOnUse" x1="13.0601" y1="2.5547" x2="16.3394" y2="2.5547">
			<stop  offset="0" style="stop-color:#9F1622"/>
			<stop  offset="0.2048" style="stop-color:#A81722"/>
			<stop  offset="0.5387" style="stop-color:#C01923"/>
			<stop  offset="0.9581" style="stop-color:#E81C24"/>
			<stop  offset="1" style="stop-color:#EC1C24"/>
		</linearGradient>
		<path class="st6" d="M13.1,0.3c0-0.1,0-0.1,0.1-0.2c0-0.1,0.1-0.1,0.2-0.1c0.1,0,0.1,0,0.2,0.1c0.1,0,0.1,0.1,0.1,0.2V2
			c0.3-0.3,0.7-0.5,1.1-0.5c0.5,0,0.8,0.2,1.2,0.5c0.3,0.3,0.5,0.7,0.5,1.2v1.6c0,0.1,0,0.1-0.1,0.2c0,0.1-0.1,0.1-0.2,0.1
			c-0.1,0-0.1,0-0.2-0.1c0,0-0.1-0.1-0.1-0.2V3.2c0-0.3-0.1-0.6-0.3-0.8C15.3,2.2,15,2,14.7,2c-0.3,0-0.6,0.1-0.8,0.3
			c-0.2,0.2-0.3,0.5-0.3,0.8v1.6c0,0.1,0,0.1-0.1,0.2c0,0.1-0.1,0.1-0.2,0.1c-0.1,0-0.1,0-0.2-0.1c-0.1,0-0.1-0.1-0.1-0.2V0.3z"/>
		<linearGradient id="SVGID_7_" gradientUnits="userSpaceOnUse" x1="16.8433" y1="3.3111" x2="20.3765" y2="3.3111">
			<stop  offset="0" style="stop-color:#9F1622"/>
			<stop  offset="0.2048" style="stop-color:#A81722"/>
			<stop  offset="0.5387" style="stop-color:#C01923"/>
			<stop  offset="0.9581" style="stop-color:#E81C24"/>
			<stop  offset="1" style="stop-color:#EC1C24"/>
		</linearGradient>
		<path class="st7" d="M20.4,3.3c0,0.5-0.2,0.9-0.5,1.2c-0.3,0.3-0.8,0.5-1.3,0.5s-0.9-0.2-1.3-0.5c-0.3-0.3-0.5-0.8-0.5-1.2
			c0-0.5,0.2-0.9,0.5-1.2c0.3-0.3,0.8-0.5,1.3-0.5s0.9,0.2,1.3,0.5C20.2,2.4,20.4,2.8,20.4,3.3z M18.6,2c-0.3,0-0.6,0.1-0.9,0.4
			c-0.2,0.2-0.4,0.5-0.4,0.9c0,0.3,0.1,0.6,0.4,0.9c0.2,0.2,0.5,0.4,0.9,0.4c0.3,0,0.6-0.1,0.9-0.4c0.2-0.2,0.4-0.5,0.4-0.9
			c0-0.3-0.1-0.6-0.4-0.9C19.3,2.2,19,2,18.6,2z"/>
		<linearGradient id="SVGID_8_" gradientUnits="userSpaceOnUse" x1="20.8804" y1="3.3111" x2="24.1607" y2="3.3111">
			<stop  offset="0" style="stop-color:#9F1622"/>
			<stop  offset="0.2048" style="stop-color:#A81722"/>
			<stop  offset="0.5387" style="stop-color:#C01923"/>
			<stop  offset="0.9581" style="stop-color:#E81C24"/>
			<stop  offset="1" style="stop-color:#EC1C24"/>
		</linearGradient>
		<path class="st8" d="M24.2,4.8c0,0.1,0,0.1-0.1,0.2C24,5.1,24,5.1,23.9,5.1c-0.1,0-0.1,0-0.2-0.1c0,0-0.1-0.1-0.1-0.2V4.6
			c-0.3,0.3-0.7,0.5-1.1,0.5c-0.5,0-0.8-0.2-1.2-0.5c-0.3-0.3-0.5-0.7-0.5-1.2V1.8c0-0.1,0-0.1,0.1-0.2c0,0,0.1-0.1,0.2-0.1
			c0.1,0,0.1,0,0.2,0.1c0,0,0.1,0.1,0.1,0.2v1.6c0,0.3,0.1,0.6,0.3,0.8c0.2,0.2,0.5,0.3,0.8,0.3c0.3,0,0.6-0.1,0.8-0.3
			c0.2-0.2,0.3-0.5,0.3-0.8V1.8c0-0.1,0-0.1,0.1-0.2c0.1,0,0.1-0.1,0.2-0.1c0.1,0,0.1,0,0.2,0.1c0,0,0.1,0.1,0.1,0.2V4.8z"/>
		<linearGradient id="SVGID_9_" gradientUnits="userSpaceOnUse" x1="24.6646" y1="4.0684" x2="28.1958" y2="4.0684">
			<stop  offset="0" style="stop-color:#9F1622"/>
			<stop  offset="0.2048" style="stop-color:#A81722"/>
			<stop  offset="0.5387" style="stop-color:#C01923"/>
			<stop  offset="0.9581" style="stop-color:#E81C24"/>
			<stop  offset="1" style="stop-color:#EC1C24"/>
		</linearGradient>
		<path class="st9" d="M27.7,4.5C27.7,4.5,27.7,4.6,27.7,4.5c-0.4,0.4-0.8,0.5-1.3,0.5c-0.5,0-0.9-0.2-1.3-0.5
			c-0.3-0.3-0.5-0.8-0.5-1.2c0-0.5,0.2-0.9,0.5-1.2c0.3-0.3,0.8-0.5,1.3-0.5c0.5,0,0.9,0.2,1.2,0.5c0.3,0.3,0.5,0.8,0.5,1.2v1.8
			c0,0.4-0.1,0.7-0.4,1c-0.4,0.4-0.8,0.6-1.3,0.6s-1-0.2-1.3-0.6c-0.1-0.1-0.2-0.3-0.3-0.4c0,0,0-0.1,0-0.1c0-0.1,0-0.1,0.1-0.2
			c0.1,0,0.1-0.1,0.2-0.1c0.1,0,0.1,0,0.2,0.1c0,0,0,0,0.1,0.1c0.1,0.1,0.1,0.2,0.2,0.3c0.3,0.3,0.6,0.4,1,0.4c0.4,0,0.7-0.1,1-0.4
			c0.2-0.2,0.3-0.4,0.3-0.6V4.5z M26.4,2c-0.4,0-0.6,0.1-0.9,0.4c-0.2,0.2-0.4,0.5-0.4,0.9c0,0.3,0.1,0.6,0.4,0.9
			c0.2,0.2,0.5,0.4,0.9,0.4c0.3,0,0.6-0.1,0.9-0.4c0.2-0.2,0.4-0.5,0.4-0.9c0-0.3-0.1-0.6-0.4-0.9C27.1,2.2,26.8,2,26.4,2z"/>
		<linearGradient id="SVGID_10_" gradientUnits="userSpaceOnUse" x1="28.7017" y1="2.5547" x2="31.9829" y2="2.5547">
			<stop  offset="0" style="stop-color:#9F1622"/>
			<stop  offset="0.2048" style="stop-color:#A81722"/>
			<stop  offset="0.5387" style="stop-color:#C01923"/>
			<stop  offset="0.9581" style="stop-color:#E81C24"/>
			<stop  offset="1" style="stop-color:#EC1C24"/>
		</linearGradient>
		<path class="st10" d="M28.7,0.3c0-0.1,0-0.1,0.1-0.2C28.8,0.1,28.9,0,29,0c0.1,0,0.1,0,0.2,0.1c0,0,0.1,0.1,0.1,0.2V2
			c0.3-0.3,0.7-0.5,1.1-0.5c0.5,0,0.8,0.2,1.2,0.5C31.8,2.3,32,2.7,32,3.2v1.6C32,4.9,32,5,31.9,5c0,0.1-0.1,0.1-0.2,0.1
			c-0.1,0-0.1,0-0.2-0.1c0,0-0.1-0.1-0.1-0.2V3.2c0-0.3-0.1-0.6-0.3-0.8C30.9,2.2,30.7,2,30.3,2c-0.3,0-0.6,0.1-0.8,0.3
			c-0.2,0.2-0.3,0.5-0.3,0.8v1.6c0,0.1,0,0.1-0.1,0.2c0,0.1-0.1,0.1-0.2,0.1c-0.1,0-0.1,0-0.2-0.1c0,0-0.1-0.1-0.1-0.2V0.3z"/>
		<linearGradient id="SVGID_11_" gradientUnits="userSpaceOnUse" x1="32.2525" y1="2.5547" x2="34.271" y2="2.5547">
			<stop  offset="0" style="stop-color:#9F1622"/>
			<stop  offset="0.2048" style="stop-color:#A81722"/>
			<stop  offset="0.5387" style="stop-color:#C01923"/>
			<stop  offset="0.9581" style="stop-color:#E81C24"/>
			<stop  offset="1" style="stop-color:#EC1C24"/>
		</linearGradient>
		<path class="st11" d="M34,4.6c0.1,0,0.1,0,0.2,0.1c0,0,0.1,0.1,0.1,0.2c0,0.1,0,0.1-0.1,0.2c-0.1,0.1-0.1,0.1-0.2,0.1
			c-0.8,0-1.3-0.4-1.3-1.3V2h-0.3c-0.1,0-0.1,0-0.2-0.1c-0.1,0-0.1-0.1-0.1-0.2c0-0.1,0-0.1,0.1-0.2c0,0,0.1-0.1,0.2-0.1h0.3V0.3
			c0-0.1,0-0.1,0.1-0.2C32.9,0.1,32.9,0,33,0c0.1,0,0.1,0,0.2,0.1c0,0,0.1,0.1,0.1,0.2v1.3h0.5c0.1,0,0.1,0,0.2,0.1
			C34,1.7,34,1.7,34,1.8c0,0.1,0,0.1-0.1,0.2c0,0-0.1,0.1-0.2,0.1h-0.5v1.8C33.3,4.3,33.5,4.6,34,4.6z"/>
		<linearGradient id="SVGID_12_" gradientUnits="userSpaceOnUse" x1="34.7749" y1="3.3111" x2="39.316" y2="3.3111">
			<stop  offset="0" style="stop-color:#9F1622"/>
			<stop  offset="0.2048" style="stop-color:#A81722"/>
			<stop  offset="0.5387" style="stop-color:#C01923"/>
			<stop  offset="0.9581" style="stop-color:#E81C24"/>
			<stop  offset="1" style="stop-color:#EC1C24"/>
		</linearGradient>
		<path class="st12" d="M36.9,1.6c0,0,0.1-0.1,0.2-0.1c0.1,0,0.1,0,0.2,0.1c0,0,0.1,0.1,0.1,0.1L38.1,4l0.8-2.3c0,0,0,0,0.1-0.1
			c0,0,0.1-0.1,0.2-0.1c0.1,0,0.1,0,0.2,0.1c0,0,0.1,0.1,0.1,0.2c0,0,0,0.1,0,0.1l-1,3c0,0,0,0.1-0.1,0.1c-0.1,0-0.1,0.1-0.2,0.1
			c-0.1,0-0.1,0-0.2-0.1c0,0,0-0.1-0.1-0.1L37,2.6l-0.8,2.3c0,0,0,0.1-0.1,0.1c-0.1,0-0.1,0.1-0.2,0.1c-0.1,0-0.1,0-0.2-0.1
			c0,0,0-0.1-0.1-0.1l-1-3c0,0,0-0.1,0-0.1c0-0.1,0-0.1,0.1-0.2c0,0,0.1-0.1,0.2-0.1c0.1,0,0.1,0,0.2,0.1c0,0,0,0,0.1,0.1L36,4
			l0.8-2.3C36.8,1.7,36.8,1.7,36.9,1.6z"/>
		<linearGradient id="SVGID_13_" gradientUnits="userSpaceOnUse" x1="39.8218" y1="3.3111" x2="43.357" y2="3.3111">
			<stop  offset="0" style="stop-color:#9F1622"/>
			<stop  offset="0.2048" style="stop-color:#A81722"/>
			<stop  offset="0.5387" style="stop-color:#C01923"/>
			<stop  offset="0.9581" style="stop-color:#E81C24"/>
			<stop  offset="1" style="stop-color:#EC1C24"/>
		</linearGradient>
		<path class="st13" d="M42.8,4.5c-0.4,0.4-0.8,0.5-1.3,0.5c-0.5,0-0.9-0.2-1.2-0.5c-0.3-0.3-0.5-0.8-0.5-1.2c0-0.5,0.2-0.9,0.5-1.2
			c0.3-0.3,0.8-0.5,1.2-0.5c0.5,0,0.9,0.2,1.3,0.5c0.3,0.3,0.5,0.8,0.5,1.2v1.5c0,0.1,0,0.1-0.1,0.2c0,0.1-0.1,0.1-0.2,0.1
			c-0.1,0-0.1,0-0.2-0.1c-0.1,0-0.1-0.1-0.1-0.2V4.5z M41.6,2c-0.3,0-0.6,0.1-0.9,0.4c-0.2,0.2-0.4,0.5-0.4,0.9
			c0,0.3,0.1,0.6,0.4,0.9c0.2,0.2,0.5,0.4,0.9,0.4c0.3,0,0.6-0.1,0.9-0.4c0.2-0.2,0.4-0.5,0.4-0.9c0-0.3-0.1-0.6-0.4-0.9
			C42.2,2.2,41.9,2,41.6,2z"/>
		<linearGradient id="SVGID_14_" gradientUnits="userSpaceOnUse" x1="43.8589" y1="3.3111" x2="46.479" y2="3.3111">
			<stop  offset="0" style="stop-color:#9F1622"/>
			<stop  offset="0.2048" style="stop-color:#A81722"/>
			<stop  offset="0.5387" style="stop-color:#C01923"/>
			<stop  offset="0.9581" style="stop-color:#E81C24"/>
			<stop  offset="1" style="stop-color:#EC1C24"/>
		</linearGradient>
		<path class="st14" d="M43.9,1.8c0-0.1,0-0.1,0.1-0.2c0.1,0,0.1-0.1,0.2-0.1c0.1,0,0.1,0,0.2,0.1c0.1,0,0.1,0.1,0.1,0.2v0.3
			c0.4-0.4,0.8-0.5,1.3-0.5c0.2,0,0.5,0,0.7,0.1c0,0,0.1,0,0.1,0.1c0,0.1,0.1,0.1,0.1,0.2c0,0.1,0,0.1-0.1,0.2c0,0-0.1,0.1-0.2,0.1
			c0,0-0.1,0-0.1,0C46,2.1,45.8,2,45.6,2c-0.3,0-0.6,0.1-0.9,0.4c-0.2,0.2-0.4,0.5-0.4,0.9v1.5c0,0.1,0,0.1-0.1,0.2
			c0,0.1-0.1,0.1-0.2,0.1c-0.1,0-0.1,0-0.2-0.1c0,0-0.1-0.1-0.1-0.2V1.8z"/>
		<linearGradient id="SVGID_15_" gradientUnits="userSpaceOnUse" x1="46.8853" y1="3.3111" x2="50.4185" y2="3.3111">
			<stop  offset="0" style="stop-color:#9F1622"/>
			<stop  offset="0.2048" style="stop-color:#A81722"/>
			<stop  offset="0.5387" style="stop-color:#C01923"/>
			<stop  offset="0.9581" style="stop-color:#E81C24"/>
			<stop  offset="1" style="stop-color:#EC1C24"/>
		</linearGradient>
		<path class="st15" d="M49.6,4.2c0.1,0,0.1,0,0.2,0.1c0,0.1,0.1,0.1,0.1,0.2c0,0.1,0,0.1-0.1,0.2c-0.3,0.3-0.7,0.4-1.2,0.4
			c-0.5,0-0.9-0.2-1.3-0.5c-0.3-0.3-0.5-0.8-0.5-1.2c0-0.5,0.2-0.9,0.5-1.2c0.3-0.3,0.8-0.5,1.3-0.5c0.5,0,0.9,0.2,1.2,0.5
			c0.3,0.3,0.5,0.8,0.5,1.2c0,0.1,0,0.1-0.1,0.2c0,0-0.1,0.1-0.2,0.1h-2.8c0,0.2,0.2,0.5,0.3,0.6c0.2,0.2,0.5,0.4,0.9,0.4
			c0.3,0,0.6-0.1,0.8-0.3C49.5,4.2,49.6,4.2,49.6,4.2z M49.9,3.1c0-0.2-0.2-0.5-0.3-0.6C49.3,2.2,49,2,48.7,2
			c-0.3,0-0.6,0.1-0.9,0.4c-0.2,0.2-0.3,0.4-0.3,0.6H49.9z"/>
	</g>
</g>
</svg>
