<?xml version="1.0" encoding="utf-8"?>
<!-- Generator: Adobe Illustrator 22.1.0, SVG Export Plug-In . SVG Version: 6.00 Build 0)  -->
<svg version="1.1" id="Layer_1" xmlns="http://www.w3.org/2000/svg" xmlns:xlink="http://www.w3.org/1999/xlink" x="0px" y="0px"
	 viewBox="0 0 274.5 33.1" style="enable-background:new 0 0 274.5 33.1;" xml:space="preserve">
<style type="text/css">
	.st0{fill:#FFFFFF;}
</style>
<g>
	<g>
		<path class="st0" d="M4.7,25.6c0.8,0.3,1.8,0,2.5-0.1c7.6,2,16.8-3.7,16.5-9.7c-0.2-3.5-4-5.7-8.6-5.5c6.3-0.8,10.7,1.9,11.2,5.6
			C27.7,24.4,12.1,31.6,4.7,25.6z"/>
		<path class="st0" d="M9,24c0.5-0.7,0.7-1.6,0.4-2.5c4.4,0.4,8.8-2.5,8.6-5.7c-0.1-1.9-1.7-3-3.5-3.2c-4.7-0.6-10,3.3-8.3,7.2
			c-0.8,0.1-1.3,0.4-1.9,0.5c-0.5-4.8,4.4-9.1,10.5-9.1c4.4,0,7.1,2.4,6.5,5.9C20.6,21.2,15.2,24.4,9,24z"/>
		<path class="st0" d="M11.2,14.1c7.2-1.2,2.7,7.5-2.3,4.8C6.4,17.5,8.7,14.5,11.2,14.1z"/>
		<path class="st0" d="M7,20.9c1.8,1,0.7,3.7-1.2,3.7C3.1,24.7,3.4,20.4,7,20.9z"/>
	</g>
	<g>
		<path class="st0" d="M31.2,11.7c-0.2,0-0.4-0.1-0.5-0.2c-0.1-0.1-0.2-0.3-0.2-0.5s0.1-0.4,0.2-0.5s0.3-0.2,0.5-0.2h9.9
			c0.2,0,0.4,0.1,0.5,0.2c0.1,0.1,0.2,0.3,0.2,0.5s-0.1,0.4-0.2,0.5c-0.2,0.1-0.3,0.2-0.5,0.2h-4.2v13c0,0.2-0.1,0.4-0.2,0.5
			s-0.3,0.2-0.5,0.2s-0.4-0.1-0.5-0.2s-0.2-0.3-0.2-0.5v-13H31.2z"/>
		<path class="st0" d="M43.4,11c0-0.2,0.1-0.4,0.2-0.5s0.3-0.2,0.5-0.2s0.4,0.1,0.5,0.2c0.1,0.1,0.2,0.3,0.2,0.5v5.1
			c1-0.9,2.1-1.4,3.4-1.4c1.4,0,2.5,0.5,3.5,1.5s1.5,2.1,1.5,3.5v5c0,0.2-0.1,0.4-0.2,0.5s-0.3,0.2-0.5,0.2s-0.4-0.1-0.5-0.2
			s-0.2-0.3-0.2-0.5v-5c0-0.9-0.3-1.8-1-2.4c-0.7-0.7-1.5-1-2.4-1s-1.8,0.3-2.4,1c-0.7,0.7-1,1.5-1,2.4v5c0,0.2-0.1,0.4-0.2,0.5
			s-0.3,0.2-0.5,0.2s-0.4-0.1-0.5-0.2c-0.2-0.1-0.2-0.3-0.2-0.5V11H43.4z"/>
		<path class="st0" d="M65.5,20.1c0,1.5-0.5,2.7-1.6,3.8c-1,1-2.3,1.6-3.8,1.6s-2.7-0.5-3.8-1.6c-1-1-1.6-2.3-1.6-3.8
			s0.5-2.7,1.6-3.8c1-1,2.3-1.6,3.8-1.6s2.7,0.5,3.8,1.6C65,17.4,65.5,18.6,65.5,20.1z M60.2,16.3c-1.1,0-2,0.4-2.7,1.1
			c-0.7,0.7-1.1,1.6-1.1,2.7s0.4,2,1.1,2.7s1.6,1.1,2.7,1.1s2-0.4,2.7-1.1s1.1-1.6,1.1-2.7s-0.4-2-1.1-2.7
			C62.1,16.7,61.3,16.3,60.2,16.3z"/>
		<path class="st0" d="M77,24.7c0,0.2-0.1,0.4-0.2,0.5c-0.2,0.1-0.3,0.2-0.5,0.2s-0.4-0.1-0.5-0.2c-0.2-0.1-0.2-0.3-0.2-0.5v-0.6
			c-0.9,0.9-2.1,1.4-3.4,1.4c-1.4,0-2.5-0.5-3.5-1.5s-1.5-2.1-1.5-3.5v-5c0-0.2,0.1-0.4,0.2-0.5s0.3-0.2,0.5-0.2s0.4,0.1,0.5,0.2
			c0.1,0.1,0.2,0.3,0.2,0.5v5c0,0.9,0.3,1.8,1,2.4c0.7,0.7,1.5,1,2.4,1s1.8-0.3,2.4-1c0.7-0.7,1-1.5,1-2.4v-5c0-0.2,0.1-0.4,0.2-0.5
			s0.3-0.2,0.5-0.2s0.4,0.1,0.5,0.2c0.1,0.1,0.2,0.3,0.2,0.5v9.2H77z"/>
		<path class="st0" d="M87.6,23.8C87.6,23.8,87.6,23.9,87.6,23.8c-1.1,1.1-2.3,1.6-3.8,1.6s-2.7-0.5-3.8-1.6c-1-1-1.6-2.3-1.6-3.8
			s0.5-2.7,1.6-3.8c1-1,2.3-1.6,3.8-1.6s2.7,0.5,3.8,1.6c1,1,1.6,2.3,1.6,3.8v5.3c0,1.1-0.4,2.1-1.2,2.9c-1.1,1.1-2.5,1.7-4,1.7
			c-1.6,0-2.9-0.6-4-1.7c-0.4-0.4-0.8-0.9-1-1.3c-0.1-0.1-0.1-0.2-0.1-0.4c0-0.2,0.1-0.4,0.2-0.5c0.1-0.1,0.3-0.2,0.5-0.2
			s0.4,0.1,0.5,0.2s0.1,0.1,0.2,0.2c0.2,0.3,0.4,0.7,0.7,1c0.8,0.8,1.8,1.2,3,1.2s2.1-0.4,3-1.2c0.5-0.6,0.8-1.2,0.8-1.8v-1.6H87.6z
			 M83.8,16.3c-1.1,0-2,0.4-2.7,1.1C80.4,18.1,80,19,80,20.1s0.4,2,1.1,2.7c0.7,0.7,1.6,1.1,2.7,1.1c1.1,0,2-0.4,2.7-1.1
			s1.1-1.6,1.1-2.7s-0.4-2-1.1-2.7C85.8,16.7,84.9,16.3,83.8,16.3z"/>
		<path class="st0" d="M90.7,11c0-0.2,0.1-0.4,0.2-0.5c0.1-0.1,0.3-0.2,0.5-0.2s0.4,0.1,0.5,0.2c0.2,0.1,0.2,0.3,0.2,0.5v5.1
			c1-0.9,2.1-1.4,3.4-1.4c1.4,0,2.5,0.5,3.5,1.5s1.5,2.1,1.5,3.5v5c0,0.2-0.1,0.4-0.2,0.5c-0.1,0.1-0.3,0.2-0.5,0.2
			s-0.4-0.1-0.5-0.2s-0.2-0.3-0.2-0.5v-5c0-0.9-0.3-1.8-1-2.4c-0.7-0.7-1.5-1-2.4-1s-1.8,0.3-2.4,1c-0.7,0.7-1,1.5-1,2.4v5
			c0,0.2-0.1,0.4-0.2,0.5c-0.1,0.1-0.3,0.2-0.5,0.2s-0.4-0.1-0.5-0.2s-0.2-0.3-0.2-0.5V11H90.7z"/>
		<path class="st0" d="M106.7,23.9c0.2,0,0.4,0.1,0.5,0.2s0.2,0.3,0.2,0.5s-0.1,0.4-0.2,0.5c-0.1,0.1-0.3,0.2-0.5,0.2
			c-2.5,0-3.8-1.3-3.8-3.8v-5.3h-0.8c-0.2,0-0.4-0.1-0.5-0.2s-0.2-0.3-0.2-0.5s0.1-0.4,0.2-0.5c0.1-0.1,0.3-0.2,0.5-0.2h0.8V11
			c0-0.2,0.1-0.4,0.2-0.5c0.2-0.1,0.3-0.2,0.5-0.2s0.4,0.1,0.5,0.2c0.1,0.1,0.2,0.3,0.2,0.5v3.8h1.5c0.2,0,0.4,0.1,0.5,0.2
			c0.1,0.1,0.2,0.3,0.2,0.5s-0.1,0.4-0.2,0.5c-0.1,0.1-0.3,0.2-0.5,0.2h-1.5v5.3C104.4,23.1,105.2,23.9,106.7,23.9z"/>
		<path class="st0" d="M115.3,15c0.1-0.1,0.3-0.2,0.5-0.2s0.4,0.1,0.5,0.2c0.1,0.1,0.2,0.2,0.2,0.3l2.3,6.9l2.3-7.1
			c0-0.1,0.1-0.1,0.2-0.2c0.1-0.1,0.3-0.2,0.5-0.2s0.4,0.1,0.5,0.2c0.1,0.1,0.2,0.3,0.2,0.5c0,0.1,0,0.2-0.1,0.3l-3,9.1
			c0,0.1-0.1,0.2-0.2,0.3c-0.2,0.1-0.3,0.2-0.5,0.2s-0.4-0.1-0.5-0.2s-0.1-0.2-0.2-0.3l-2.3-7l-2.3,7c0,0.1-0.1,0.2-0.2,0.3
			c-0.1,0.1-0.3,0.2-0.5,0.2s-0.4-0.1-0.5-0.2s-0.1-0.2-0.2-0.3l-3-9.1c0-0.1-0.1-0.2-0.1-0.3c0-0.2,0.1-0.4,0.2-0.5
			c0.2-0.1,0.3-0.2,0.5-0.2s0.4,0.1,0.5,0.2c0.1,0.1,0.1,0.1,0.2,0.2l2.3,7.1l2.3-6.9C115.2,15.2,115.2,15.1,115.3,15z"/>
		<path class="st0" d="M133.4,23.8c-1.1,1.1-2.3,1.6-3.8,1.6s-2.7-0.5-3.8-1.6c-1-1-1.6-2.3-1.6-3.8s0.5-2.7,1.6-3.8
			c1-1,2.3-1.6,3.8-1.6s2.7,0.5,3.8,1.6c1,1,1.6,2.3,1.6,3.8v4.6c0,0.2-0.1,0.4-0.2,0.5c-0.1,0.1-0.3,0.2-0.5,0.2s-0.4-0.1-0.5-0.2
			s-0.2-0.3-0.2-0.5v-0.8H133.4z M129.6,16.3c-1.1,0-2,0.4-2.7,1.1c-0.7,0.7-1.1,1.6-1.1,2.7s0.4,2,1.1,2.7c0.7,0.7,1.6,1.1,2.7,1.1
			c1.1,0,2-0.4,2.7-1.1s1.1-1.6,1.1-2.7s-0.4-2-1.1-2.7C131.5,16.7,130.6,16.3,129.6,16.3z"/>
		<path class="st0" d="M136.4,15.5c0-0.2,0.1-0.4,0.2-0.5c0.1-0.1,0.3-0.2,0.5-0.2s0.4,0.1,0.5,0.2c0.1,0.1,0.2,0.3,0.2,0.5v0.8
			c1.1-1.1,2.3-1.6,3.8-1.6c0.7,0,1.4,0.1,2,0.4c0.1,0,0.2,0.1,0.3,0.2c0.1,0.2,0.2,0.3,0.2,0.5s-0.1,0.4-0.2,0.5s-0.3,0.2-0.5,0.2
			c-0.1,0-0.2,0-0.3-0.1c-0.5-0.2-0.9-0.3-1.5-0.3c-1.1,0-2,0.4-2.7,1.1s-1.1,1.6-1.1,2.7v4.6c0,0.2-0.1,0.4-0.2,0.5
			c-0.1,0.1-0.3,0.2-0.5,0.2s-0.4-0.1-0.5-0.2s-0.2-0.3-0.2-0.5V15.5z"/>
		<path class="st0" d="M153.8,22.8c0.2,0,0.4,0.1,0.5,0.2s0.2,0.3,0.2,0.5s-0.1,0.4-0.2,0.5c-1,0.9-2.1,1.3-3.5,1.3
			c-1.5,0-2.7-0.5-3.8-1.6c-1-1-1.6-2.3-1.6-3.8s0.5-2.7,1.6-3.8c1-1,2.3-1.6,3.8-1.6s2.7,0.5,3.8,1.6c1,1,1.6,2.3,1.6,3.8
			c0,0.2-0.1,0.4-0.2,0.5c-0.1,0.1-0.3,0.2-0.5,0.2h-8.3c0.1,0.7,0.5,1.4,1,1.9c0.7,0.7,1.6,1.1,2.7,1.1c1,0,1.8-0.3,2.5-0.9
			C153.5,22.9,153.7,22.8,153.8,22.8z M154.7,19.3c-0.1-0.7-0.5-1.4-1-1.9c-0.7-0.7-1.6-1.1-2.7-1.1c-1.1,0-2,0.4-2.7,1.1
			c-0.6,0.6-0.9,1.2-1,1.9H154.7z"/>
	</g>
</g>
</svg>
