<?xml version="1.0" encoding="utf-8"?>
<!-- Generator: Adobe Illustrator 15.1.0, SVG Export Plug-In . SVG Version: 6.00 Build 0)  -->
<svg version="1.2" baseProfile="tiny" id="Layer_1" xmlns="http://www.w3.org/2000/svg" xmlns:xlink="http://www.w3.org/1999/xlink"
	 x="0px" y="0px" width="217.297px" height="114.609px" viewBox="0 0 217.297 114.609" xml:space="preserve">
<g>
	<path fill="#3F3A86" d="M69.047,47.066c-0.615-3.104-3.105-4.673-6.148-4.673c-5.226,0-7.439,4.303-7.439,8.879
		c0,5.01,2.214,9.191,7.472,9.191c3.841,0,6.054-2.706,6.332-6.333h2.919c-0.553,5.472-3.965,8.792-9.499,8.792
		c-6.824,0-10.144-5.042-10.144-11.435c0-6.358,3.627-11.553,10.392-11.553c4.579,0,8.36,2.459,9.037,7.132H69.047L69.047,47.066
		L69.047,47.066z M210.286,43.519h0.262c0.297,0,0.549-0.108,0.549-0.387c0-0.199-0.145-0.397-0.549-0.397
		c-0.118,0-0.199,0.009-0.262,0.019V43.519z M210.286,44.773h-0.361V42.51c0.189-0.028,0.369-0.055,0.64-0.055
		c0.343,0,0.569,0.072,0.703,0.172c0.134,0.098,0.209,0.252,0.209,0.469c0,0.297-0.199,0.478-0.441,0.55v0.018
		c0.197,0.036,0.332,0.216,0.378,0.551c0.053,0.35,0.109,0.485,0.143,0.558h-0.378c-0.054-0.073-0.108-0.28-0.153-0.578
		c-0.053-0.287-0.197-0.396-0.487-0.396h-0.251V44.773L210.286,44.773z M210.664,41.879c-0.893,0-1.622,0.766-1.622,1.712
		c0,0.964,0.729,1.722,1.631,1.722c0.901,0.009,1.624-0.758,1.624-1.712c0-0.956-0.723-1.722-1.624-1.722H210.664z M210.673,41.562
		c1.109,0,1.993,0.902,1.993,2.029c0,1.145-0.884,2.037-2.002,2.037c-1.108,0-2.01-0.892-2.01-2.037c0-1.126,0.901-2.029,2.01-2.029
		H210.673z M206.557,46.512h3.165v2.305h-3.165v9.863c0,1.199,0.339,1.414,1.968,1.414h1.197V62.4h-1.997
		c-2.705,0-3.781-0.553-3.781-3.475V48.818h-2.705v-2.306h2.705v-4.764h2.614L206.557,46.512L206.557,46.512z M186.607,46.512h2.459
		v2.52h0.063c1.105-1.966,2.888-2.889,5.163-2.889c4.181,0,5.47,2.397,5.47,5.804V62.4h-2.61V51.641c0-1.933-1.23-3.193-3.229-3.193
		c-3.165,0-4.702,2.122-4.702,4.976v8.975h-2.613V46.512L186.607,46.512z M180.704,46.512h2.614V62.4h-2.614V46.512z
		 M183.318,43.653h-2.614v-3.197h2.614V43.653z M170.532,60.463c2.734,0,4.948-2.152,4.948-5.995c0-3.869-2.214-6.021-4.948-6.021
		c-2.735,0-4.948,2.152-4.948,6.021C165.584,58.311,167.796,60.463,170.532,60.463 M170.532,46.143c5.04,0,7.715,3.657,7.715,8.325
		c0,4.642-2.674,8.299-7.715,8.299s-7.717-3.658-7.717-8.299C162.815,49.801,165.491,46.143,170.532,46.143 M148.937,50.967h5.717
		c3.29,0.03,4.798-1.413,4.798-4.025s-1.508-4.026-4.798-4.026h-5.717V50.967L148.937,50.967z M146.018,40.456h9.621
		c4.364,0,6.731,2.428,6.731,6.485c0,4.055-2.367,6.513-6.731,6.482h-6.702v8.975h-2.919V40.456z M122.777,40.456h2.613v12.999
		l7.256-6.943h3.503l-6.302,5.775L136.61,62.4h-3.319l-5.44-8.3l-2.459,2.275V62.4h-2.614V40.456L122.777,40.456z M117.676,51.61
		c-0.4-1.993-1.782-3.162-3.934-3.162c-3.781,0-4.95,2.977-4.95,6.205c0,2.92,1.322,5.81,4.641,5.81c2.52,0,4.027-1.476,4.366-3.873
		h2.673c-0.585,3.873-3.013,6.179-7.007,6.179c-4.858,0-7.44-3.382-7.44-8.116c0-4.76,2.459-8.509,7.501-8.509
		c3.596,0,6.485,1.689,6.855,5.466L117.676,51.61L117.676,51.61z M101.477,52.931c-0.123-2.484-1.998-4.482-4.582-4.482
		c-2.734,0-4.364,2.06-4.548,4.482H101.477z M103.996,57.358c-0.706,3.504-3.228,5.41-6.793,5.41c-5.071,0-7.468-3.504-7.623-8.361
		c0-4.76,3.135-8.264,7.469-8.264c5.626,0,7.346,5.251,7.192,9.094H92.346c-0.092,2.768,1.477,5.226,4.95,5.226
		c2.152,0,3.659-1.045,4.12-3.104H103.996L103.996,57.358z M74.61,40.456h2.613v8.392h0.062c0.861-1.907,3.104-2.705,5.011-2.705
		c4.18,0,5.47,2.397,5.47,5.804V62.4h-2.612V51.641c0-1.933-1.23-3.193-3.228-3.193c-3.166,0-4.703,2.122-4.703,4.976v8.975H74.61
		V40.456L74.61,40.456z"/>
	<path fill="#3F3A86" d="M57.756,69.625c-0.106-0.986-0.764-1.412-1.712-1.412c-0.774,0-1.548,0.28-1.548,1.18
		c0,0.853,1.102,0.979,2.215,1.229c1.103,0.25,2.206,0.639,2.206,1.994c0,1.471-1.441,2.06-2.699,2.06
		c-1.549,0-2.855-0.754-2.855-2.438h0.871c0,1.161,0.967,1.663,2.014,1.663c0.832,0,1.75-0.26,1.75-1.257
		c0-0.948-1.102-1.111-2.206-1.355c-1.103-0.242-2.216-0.561-2.216-1.828c0-1.404,1.249-2.022,2.506-2.022
		c1.413,0,2.487,0.667,2.546,2.186L57.756,69.625L57.756,69.625L57.756,69.625z M210.908,74.512h1.072v-1.073h-1.072V74.512z
		 M205.372,73.738h1.53c0.627,0,2.322-0.175,2.322-2.718c0-1.646-0.61-2.642-2.304-2.642h-1.549V73.738z M204.453,67.603h2.372
		c2.128,0,3.315,1.064,3.315,3.29c0,2.313-1.015,3.618-3.315,3.618h-2.372V67.603z M200.1,68.378h-2.303v-0.775h5.524v0.775h-2.303
		v6.134H200.1V68.378L200.1,68.378z M193.549,67.603h0.92v6.135h3.657v0.774h-4.577V67.603L193.549,67.603z M188.148,69.625
		c-0.108-0.986-0.765-1.412-1.713-1.412c-0.774,0-1.548,0.28-1.548,1.18c0,0.853,1.103,0.979,2.214,1.229
		c1.104,0.25,2.207,0.639,2.207,1.994c0,1.471-1.44,2.06-2.699,2.06c-1.548,0-2.854-0.754-2.854-2.438h0.871
		c0,1.161,0.968,1.663,2.013,1.663c0.833,0,1.75-0.26,1.75-1.257c0-0.948-1.102-1.111-2.206-1.355
		c-1.101-0.242-2.214-0.561-2.214-1.828c0-1.404,1.248-2.022,2.503-2.022c1.414,0,2.487,0.667,2.548,2.186L188.148,69.625
		L188.148,69.625z M177.872,67.603h4.769v0.775h-3.848v2.194h3.586v0.773h-3.586v2.392h3.878v0.774h-4.799V67.603z M175.038,67.603
		h0.92v6.909h-0.92V67.603z M172.454,73.649c-0.532,0.728-1.402,1.028-2.216,1.028c-2.063,0-3.289-1.685-3.289-3.484
		c0-2.013,1.102-3.754,3.289-3.754c1.51,0,2.708,0.678,2.971,2.293h-0.92c-0.184-1.045-1.026-1.52-2.051-1.52
		c-1.676,0-2.371,1.452-2.371,2.932c0,1.442,0.833,2.758,2.371,2.758c1.424,0,2.273-0.996,2.215-2.255h-2.206v-0.774h3.028v3.64
		h-0.58L172.454,73.649z M162.487,73.903c1.684,0,2.39-1.451,2.39-2.845s-0.706-2.845-2.39-2.845s-2.392,1.451-2.392,2.845
		S160.804,73.903,162.487,73.903 M162.487,67.439c2.196,0,3.308,1.741,3.308,3.619s-1.111,3.618-3.308,3.618s-3.31-1.741-3.31-3.618
		C159.178,69.18,160.291,67.439,162.487,67.439 M153.991,67.603h0.92v6.135h3.657v0.774h-4.577V67.603L153.991,67.603z
		 M149.279,73.903c1.685,0,2.391-1.451,2.391-2.845s-0.706-2.845-2.391-2.845c-1.683,0-2.389,1.451-2.389,2.845
		S147.597,73.903,149.279,73.903 M149.279,67.439c2.196,0,3.31,1.741,3.31,3.619s-1.113,3.618-3.31,3.618
		c-2.195,0-3.31-1.741-3.31-3.618C145.97,69.18,147.084,67.439,149.279,67.439 M138.994,67.603h0.977l3.64,5.603h0.02v-5.603h0.869
		v6.908h-1.006l-3.61-5.543h-0.017v5.543h-0.872V67.603z M131.648,67.603h0.92v2.97h3.64v-2.97h0.92v6.908h-0.92v-3.165h-3.64v3.165
		h-0.92V67.603z M129.152,69.684c-0.193-0.976-0.977-1.472-1.933-1.472c-1.646,0-2.343,1.355-2.343,2.798
		c0,1.575,0.696,2.892,2.35,2.892c1.211,0,1.908-0.851,1.995-1.992h0.918c-0.172,1.722-1.248,2.767-2.989,2.767
		c-2.147,0-3.194-1.587-3.194-3.6c0-2.004,1.143-3.64,3.271-3.64c1.442,0,2.634,0.775,2.845,2.246L129.152,69.684L129.152,69.684
		L129.152,69.684z M118.017,67.603h4.77v0.775h-3.851v2.194h3.59v0.773h-3.59v2.392h3.879v0.774h-4.799L118.017,67.603
		L118.017,67.603L118.017,67.603z M113.662,68.378h-2.303v-0.775h5.525v0.775h-2.304v6.134h-0.919V68.378L113.662,68.378z
		 M102.757,67.603h4.77v0.775h-3.85v2.194h3.589v0.773h-3.589v2.392h3.88v0.774h-4.801V67.603z M98.596,70.786
		c0.861,0,1.596-0.223,1.596-1.228c0-0.678-0.367-1.181-1.227-1.181H96.68v2.408H98.596L98.596,70.786z M95.761,67.603h3.251
		c1.296,0,2.1,0.707,2.1,1.811c0,0.832-0.369,1.52-1.199,1.75v0.021c0.802,0.152,0.966,0.744,1.033,1.422
		c0.058,0.677,0.019,1.431,0.408,1.904h-1.025c-0.262-0.279-0.117-1.024-0.252-1.702c-0.099-0.678-0.262-1.249-1.152-1.249H96.68
		v2.951h-0.919V67.603L95.761,67.603z M90.313,71.656h2.343l-1.153-3.221h-0.019L90.313,71.656z M91,67.603h1.017l2.699,6.908
		h-1.017l-0.754-2.079h-2.922l-0.774,2.079h-0.948L91,67.603z M86.62,74.512h-0.958l-1.579-5.804h-0.019l-1.596,5.804H81.51
		l-1.77-6.909h0.938l1.354,5.749h0.02l1.549-5.749h0.997l1.529,5.749h0.019l1.404-5.749h0.917L86.62,74.512z M75.695,68.378h-2.303
		v-0.775h5.525v0.775h-2.304v6.134h-0.918V68.378z M68.118,67.603h4.539v0.775h-3.618v2.194h3.172v0.773h-3.172v3.166h-0.921V67.603
		z M63.319,73.903c1.684,0,2.389-1.451,2.389-2.845s-0.705-2.845-2.389-2.845s-2.39,1.451-2.39,2.845S61.635,73.903,63.319,73.903
		 M63.319,67.439c2.195,0,3.309,1.741,3.309,3.619s-1.114,3.618-3.309,3.618c-2.196,0-3.309-1.741-3.309-3.618
		C60.01,69.18,61.123,67.439,63.319,67.439"/>
	<rect x="4.631" y="39.925" fill="#E79197" width="39.583" height="34.761"/>
	<path fill="#3F3A86" d="M30.336,61.31c-0.819,0.111-2.421,0.272-3.194,0.353c-0.704,0.071-1.464,0.106-2.255,0.152
		c-0.708,0.04-1.441,0.007-2.189,0.012c-0.745,0.006-1.508,0.004-2.262-0.086c-1.544-0.186-1.864-0.402-2.279-0.452
		c-0.855-0.106-1.505-0.263-2.228-0.418c-0.592-0.128-1.201-0.264-1.565-0.277c-0.04-0.039-0.171-0.294-0.195-0.349
		c-0.39-0.925-0.383-0.812-0.782-2.149c-0.196-0.659-0.455-2.027-0.591-2.908c-0.108-0.709-0.254-0.915-0.305-1.083
		c-0.205-0.682-0.134-1.088-0.169-1.829c-0.035-0.738-0.07-2.545-0.035-3.292c0.056-1.18,0.13-1.328,0.297-2.048
		c0.17-0.724,0.534-1.469,0.845-2.137c0.271-0.579,0.413-1.108,0.81-1.622c0.454-0.591,0.565-0.854,0.793-1.07
		c0.019-0.019,0.191-0.061,0.216-0.063c0.558-0.183,1.066-0.241,1.359-0.331c0.067-0.007,0.359,0.024,0.429,0.024
		c0.125,0,0.93,0.025,2.129,0.056c0.626,0.016,1.357,0.074,2.157,0.091c0.716,0.016,1.485,0.024,2.279,0.038
		c0.724,0.012,1.468-0.021,2.209-0.012c0.684,0.008,1.365,0.063,2.027,0.066c0.714,0.003,1.406-0.025,2.051-0.031
		c0.729-0.006,1.398-0.036,1.981-0.057c0.888-0.031,1.577-0.029,1.942-0.102c0.702-0.14,1.228-0.214,1.693-0.214
		c0.124,0.033,0.176,0.078,0.282,0.126c0.393,0.18,0.938,0.585,0.938,0.585c0,0.255-0.092,1.937,0.029,3.106
		c0.07,0.67,0.188,1.428,0.291,2.207c0.098,0.734,0.144,1.321,0.247,2.031c0.104,0.717,0.36,1.737,0.449,2.31
		c0.16,1.042,0.205,0.479,0.35,1.351c0.188,1.126,0.082,1.009,0.209,2.307c0.07,0.735-0.052,2.3-0.17,3.049
		c-0.121,0.764-0.44,1.354-0.688,1.46c-0.516,0.22-2.186,0.455-1.854,0.401c-0.846,0.136-0.778,0.035-1.286,0.136
		c-1.328,0.266-1.612,0.206-2.511,0.292c-0.842,0.081-0.198,0.147-1.18,0.283C30.538,61.227,30.436,61.295,30.336,61.31"/>
	<path fill="#FFFFFF" d="M16.446,43.324c0.293-0.648,0.55-0.601,1.167-0.644c0.358-0.025,0.802,0.074,1.389,0.164
		c0.39,0.059,0.394-0.058,0.906,0.083c0.385,0.105,0.457,0.08,1.05,0.17c0.465,0.07,1.877,0.379,2.426,0.438
		c0.494,0.052,1.016,0.312,1.547,0.352c0.505,0.038,1.022,0.082,1.534,0.107c0.516,0.025,1.03,0.04,1.528,0.051
		c0.532,0.012,1.049-0.095,1.533-0.101c0.536-0.007,1.028-0.102,1.465-0.134c0.601-0.043,1.09-0.134,1.411-0.23
		c0.608-0.185,1.109-0.154,1.536-0.08c0.557,0.098,0.927,0.329,1.141,0.808c0.173,0.384,0.069,0.754,0.169,1.444
		c0.049,0.33-0.105,0.88-0.113,1.555c-0.005,0.457,0.019,0.975,0.024,1.522c0.004,0.497,0.081,1.021,0.091,1.552
		c0.011,0.515,0.005,1.037,0.02,1.547c0.014,0.537,0.042,1.062,0.059,1.55c0.018,0.548,0.03,1.054,0.045,1.485
		c0.032,0.884,0.164,0.664,0.079,1.479c-0.076,0.743,0.165,0.881-0.542,1.435c-0.288,0.227-0.727,0.505-1.357,0.565
		c-0.189,0.019-0.678,0.171-1.404,0.353c-0.399,0.098-0.874,0.203-1.404,0.322c-0.428,0.097-0.919,0.166-1.418,0.264
		c-0.448,0.087-0.916,0.137-1.411,0.217c-0.448,0.071-0.935,0.09-1.416,0.149c-0.452,0.059-0.926,0.013-1.401,0.054
		c-0.437,0.038-0.881,0.08-1.332,0.101c-0.367,0.017,0.008,0.119-0.191,0.186c-0.452,0.147-0.573,0.095-1.435,0.08
		c-0.432-0.007-0.857-0.003-1.388-0.033c-0.458-0.026-0.97-0.067-1.447-0.12c-0.479-0.053-0.942-0.195-1.39-0.285
		c-0.509-0.101-1.02-0.095-1.417-0.253c-0.507-0.202-0.916-0.41-1.097-0.73c-0.146-0.257-0.182-0.864-0.237-1.519
		c-0.036-0.421-0.007-0.911-0.011-1.448c-0.004-0.445-0.085-0.924-0.072-1.425c0.013-0.467,0.008-0.957,0.034-1.453
		c0.023-0.468,0.045-0.946,0.079-1.426c0.033-0.477,0.168-0.947,0.209-1.42c0.041-0.477,0.13-0.943,0.175-1.403
		c0.049-0.472,0.036-0.936,0.087-1.371c0.058-0.487,0.179-0.938,0.238-1.362c0.073-0.525,0.022-1.011,0.092-1.4
		C16.125,43.823,16.351,43.411,16.446,43.324"/>
	<path fill="#3F3A86" d="M40.687,70.377c-0.304,0.103-1.43,0.379-2.386,0.355c-0.508-0.012-1.246,0.064-2.156,0.104
		c-0.645,0.026-1.319-0.089-2.118-0.043c-0.652,0.037-1.352,0.027-2.081,0.076c-0.725,0.049-1.481,0.139-2.261,0.198
		c-0.706,0.054-1.109-0.029-1.843,0.033c-0.743,0.063-1.322-0.176-2.078-0.105c-0.685,0.065-1.87,0.08-2.553,0.15
		c-0.702,0.073-1.506,0.353-2.193,0.433c-0.709,0.082-1.291,0.03-1.973,0.121c-0.712,0.094-1.522,0.324-2.187,0.426
		c-0.704,0.107-1.375,0.223-2.007,0.337c-0.681,0.124-1.328,0.195-1.903,0.327c-0.531,0.122-0.998,0.306-1.419,0.434
		c-1.003,0.307-1.785,0.486-2.393,0.573c-1.305,0.183-1.888-0.084-2.246-0.611c-0.319-0.466-0.43-1.222-0.518-1.875
		c-0.104-0.792-0.071-0.428-0.208-1.157c-0.201-1.073-0.377-1.758,0.266-2.435c0.336-0.354,0.934-0.767,1.623-1.078
		c0.99-0.532,0.599-0.458,2.003-1.023c0.558-0.225,1.242-0.465,2.053-0.73c0.629-0.205,1.36-0.34,2.152-0.554
		c0.652-0.178,1.359-0.353,2.129-0.527c0.68-0.154,1.393-0.369,2.167-0.518c0.686-0.131,1.41-0.258,2.172-0.381
		c0.734-0.118,1.506-0.203,2.311-0.31c0.717-0.094,1.463-0.161,2.238-0.243c0.688-0.074,1.392-0.206,2.126-0.27
		c0.713-0.062,1.703,0.01,2.462-0.04c0.671-0.043,1.109-0.18,1.817-0.214c0.691-0.033,1.399-0.046,2.125-0.07
		c0.709-0.021,1.435-0.041,2.177-0.052c0.62-0.011,1.25-0.046,1.893-0.048c1.042-0.005,2.06,0.056,2.588,0.397
		c0.789,0.504,0.7,0.804,0.731,1.797c0.038,1.121-0.067,0.581,0.114,1.688c0.194,1.194,0.219,2.24,0.299,3.279
		C41.652,69.362,41.293,69.828,40.687,70.377"/>
	<path fill="#3F3A86" d="M32.228,46.651v-1.188h-1.191v1.187h0.497h0.089v0H32.228z M20.634,48.727l5.257,0.792l4.794-1.577
		l0.723-0.41l0.034-0.11l0.035,0.011v-0.493h-0.585h-0.144v-0.145v-1.479v-0.145h0.144h1.481h0.144v0.145v1.479v0.144h-0.144h-0.605
		v0.637v0.084l-0.074,0.042l-0.043,0.025l-0.006,0.02l2.198,2.672l0.155,0.189l-0.241,0.046l-3.043,0.573l-0.054-0.284l2.802-0.529
		l-1.92-2.336l-0.717,2.325l-0.278-0.085l0.696-2.254L30.8,48.21l-4.503,2.559c0.206,0.592,0.41,1.183,0.615,1.774l3.493-1.772
		l0.13,0.258l-3.641,1.848l-0.147,0.075l-0.055-0.157l-0.092-0.267l-2.497-0.19l0.021-0.29l2.052,0.157l-1.212-0.68L24,52.073
		l-0.026,0.011l-5.676,1.91l-0.306,0.103l0.126-0.297l1.975-4.618l0.266,0.113l-1.847,4.321l5.356-1.802l0.802-0.455l-4.253-2.39
		l-0.075-0.042v-0.085v-0.71h-0.577H19.62v-0.146v-1.478v-0.145h0.146h1.48h0.145v0.145v1.333v0.145v0.146h-0.145h-0.612V48.727z
		 M34.326,52.238h-1.19v1.187h1.19V52.238z M34.616,52.092v1.333v0.146v0.145h-0.146H32.99h-0.145v-0.145v-1.479v-0.145h0.145h0.528
		l0.015-0.496l0.29,0.008l-0.016,0.488h0.664h0.146V52.092L34.616,52.092z M27.682,53.767h-1.19v1.188h1.19V53.767z M27.973,53.622
		v1.333V55.1v0.145h-0.145h-1.481h-0.145V55.1v-1.478v-0.145h0.145h0.536v-0.28h0.288v0.28h0.657h0.144L27.973,53.622L27.973,53.622
		z M24.412,53.377h-1.189v1.188h1.189V53.377z M24.703,53.232v1.333v0.145v0.146h-0.145h-1.481h-0.145v-0.146v-1.478v-0.146h0.145
		h0.583l0.001-0.276l0.29,0.001l-0.001,0.275h0.609h0.146V53.232L24.703,53.232z M17.758,56.494l0.541-1.058l-1.061-0.541
		l-0.541,1.059L17.758,56.494z M18.622,55.439l-0.606,1.187l-0.131,0.259l-0.129-0.066l-1.319-0.671l-0.129-0.066l0.066-0.129
		l0.671-1.317l0.067-0.129l0.129,0.066l0.502,0.255l0.176-0.32l0.254,0.14L18,54.96l0.559,0.285l0.129,0.065L18.622,55.439z
		 M21.101,46.655h-1.19v1.188h1.19V46.655z M29.407,48.669l-3.458,1.138l-0.067,0.005l-4.61-0.695l3.693,2.075l0.979-0.555
		l-0.084-0.242l0.273-0.094l0.066,0.191L29.407,48.669z M25.26,51.358l1.16,0.652l-0.38-1.096L25.26,51.358z"/>
	<path fill="#DF3F54" d="M31.562,48.725c0.382,0,0.691-0.308,0.691-0.688c0-0.381-0.31-0.691-0.691-0.691
		c-0.381,0-0.69,0.31-0.69,0.691C30.871,48.417,31.181,48.725,31.562,48.725"/>
	<path fill="#DF3F54" d="M23.849,52.888c0.402,0,0.729-0.325,0.729-0.726s-0.326-0.726-0.729-0.726
		c-0.401,0-0.727,0.325-0.727,0.726C23.122,52.564,23.448,52.888,23.849,52.888"/>
	<path fill="#DF3F54" d="M25.98,50.553c0.38,0,0.69-0.308,0.69-0.688c0-0.381-0.31-0.689-0.69-0.689
		c-0.382,0-0.691,0.308-0.691,0.689C25.289,50.245,25.599,50.553,25.98,50.553"/>
	<path fill="#E5889D" d="M18.329,54.741c0.381,0,0.69-0.309,0.69-0.689c0-0.381-0.309-0.689-0.69-0.689s-0.691,0.308-0.691,0.689
		C17.638,54.432,17.948,54.741,18.329,54.741"/>
	<path fill="#E6879C" d="M30.668,51.621c0.381,0,0.691-0.309,0.691-0.688c0-0.381-0.31-0.69-0.691-0.69s-0.69,0.309-0.69,0.69
		C29.978,51.313,30.287,51.621,30.668,51.621"/>
	<path fill="#F0E525" d="M20.464,49.754c0.381,0,0.689-0.308,0.689-0.69c0-0.379-0.309-0.689-0.689-0.689
		c-0.382,0-0.691,0.31-0.691,0.689C19.773,49.446,20.082,49.754,20.464,49.754"/>
	<path fill="#F0E525" d="M33.594,51.559c0.38,0,0.69-0.309,0.69-0.689c0-0.381-0.31-0.69-0.69-0.69c-0.382,0-0.691,0.31-0.691,0.69
		S33.212,51.559,33.594,51.559"/>
	<path fill="#F0E525" d="M27.054,53.283c0.381,0,0.69-0.308,0.69-0.689c0-0.38-0.31-0.689-0.69-0.689s-0.691,0.309-0.691,0.689
		C26.363,52.975,26.673,53.283,27.054,53.283"/>
	<path fill="#FFFFFF" d="M11.944,68.567c0.375,0,0.674-0.283,0.674-0.695s-0.299-0.764-0.674-0.764
		c-0.374,0-0.625,0.352-0.625,0.764S11.57,68.567,11.944,68.567"/>
	<path fill="#FFFFFF" d="M15.987,70.582c0.369,0.056,0.689-0.324,0.689-0.697c0-0.374-0.317-0.617-0.689-0.617
		c-0.375,0-0.657,0.243-0.664,0.617C15.31,70.796,15.806,70.555,15.987,70.582"/>
	<path fill="#FFFFFF" d="M13.704,71.064c0.374,0,0.698-0.347,0.698-0.72s-0.324-0.667-0.698-0.667c-0.375,0-0.626,0.294-0.626,0.667
		C13.077,70.717,13.329,71.064,13.704,71.064"/>
	<path fill="#FFFFFF" d="M22.583,68.187c0.374,0,0.702-0.344,0.702-0.718c0-0.372-0.328-0.617-0.702-0.617s-0.83,0.149-0.667,0.638
		C22.034,67.843,22.208,68.187,22.583,68.187"/>
	<path fill="#FFFFFF" d="M18.738,69.001c0.321,0,0.623-0.263,0.623-0.637c0-0.373-0.302-0.607-0.623-0.607
		c-0.32,0-0.569,0.234-0.569,0.607C18.169,68.739,18.418,69.001,18.738,69.001"/>
	<path fill="#FFFFFF" d="M16.928,68.495c0.365,0.081,0.651-0.314,0.651-0.688c0-0.372-0.277-0.686-0.651-0.686
		s-0.667,0.313-0.667,0.686C16.261,68.181,16.25,68.346,16.928,68.495"/>
	<path fill="#FFFFFF" d="M20.947,66.065c0.375,0,0.665-0.097,0.665-0.469c0-0.374-0.355-0.651-0.729-0.651
		c-0.374,0-0.707,0.276-0.707,0.651C20.176,65.968,20.573,66.065,20.947,66.065"/>
	<path fill="#FFFFFF" d="M22.857,65.074c0.374,0,0.709-0.293,0.709-0.667c0-0.372-0.336-0.639-0.709-0.639
		c-0.374,0-0.704,0.267-0.704,0.639C22.153,64.781,22.483,65.074,22.857,65.074"/>
	<path fill="#F0E525" d="M11.373,71.106c0.27,0,0.487-0.206,0.487-0.504c0-0.296-0.217-0.551-0.487-0.551s-0.452,0.255-0.452,0.551
		C10.921,70.9,11.103,71.106,11.373,71.106"/>
	<path fill="#F0E525" d="M17.196,65.76c0.27,0,0.505-0.252,0.505-0.521c0-0.27-0.235-0.482-0.505-0.482
		c-0.271,0-0.452,0.213-0.452,0.482C16.744,65.508,16.925,65.76,17.196,65.76"/>
	<path fill="#F0E525" d="M14.905,68.082c0.271,0,0.481-0.068,0.481-0.339c0-0.27-0.256-0.471-0.527-0.471
		c-0.27,0-0.51,0.201-0.51,0.471C14.35,68.014,14.637,68.082,14.905,68.082"/>
	<path fill="#F0E525" d="M20.859,69.272c0.27,0,0.513-0.211,0.513-0.48s-0.243-0.464-0.513-0.464c-0.271,0-0.509,0.194-0.509,0.464
		C20.351,69.061,20.589,69.272,20.859,69.272"/>
	<path fill="#F0E525" d="M30.526,69.514c0.52,0,0.957-0.452,0.957-0.971s-0.457-0.963-0.977-0.963c-0.52,0-0.869,0.449-0.869,0.968
		C29.637,69.068,30.007,69.514,30.526,69.514"/>
	<path fill="#F0E525" d="M29.403,66.271c0.52,0,0.995-0.46,0.995-0.979c0-0.52-0.475-0.928-0.995-0.928
		c-0.52,0-0.909,0.408-0.909,0.928C28.494,65.811,28.883,66.271,29.403,66.271"/>
	<path fill="#F0E525" d="M34.965,66.522c0.519,0,0.925-0.383,0.925-0.901s-0.406-0.871-0.925-0.871
		c-0.521,0-0.861,0.353-0.861,0.871S34.444,66.522,34.965,66.522"/>
	<path fill="#F0E525" d="M32.99,68.352c0.52,0,0.94-0.489,0.94-1.008c0-0.518-0.42-0.85-0.94-0.85c-0.52,0-1.029,0.332-1.029,0.85
		C31.961,67.863,32.47,68.352,32.99,68.352"/>
</g>
</svg>
