<?xml version="1.0" encoding="utf-8"?>
<!-- Generator: Adobe Illustrator 15.1.0, SVG Export Plug-In . SVG Version: 6.00 Build 0)  -->
<svg version="1.2" baseProfile="tiny" id="Layer_1" xmlns="http://www.w3.org/2000/svg" xmlns:xlink="http://www.w3.org/1999/xlink"
	 x="0px" y="0px" width="217.297px" height="114.609px" viewBox="0 0 217.297 114.609" xml:space="preserve">
<g transform="matrix(1.25,0,0,-1.25,119.25316,185.06493)">
	<path fill="#61849C" d="M-10.888,89.075h0.991l5.108-7.045v7.045h0.877v-8.544h-0.83l-5.269,7.253v-7.253h-0.877V89.075z"/>
</g>
<g transform="matrix(1.25,0,0,-1.25,127.40054,185.06493)">
	<path fill="#61849C" d="M-8.25,89.075h5.65V88.21h-4.74v-2.823h4.624v-0.855H-7.34v-3.17h4.786v-0.83H-8.25V89.075z"/>
</g>
<g transform="matrix(1.25,0,0,-1.25,136.50116,185.83455)">
	<path fill="#61849C" d="M-5.304,88.825H-8.51v0.866h7.323v-0.866h-3.205v-7.68h-0.912V88.825z"/>
</g>
<g transform="matrix(1.25,0,0,-1.25,141.14891,185.06493)">
	<path fill="#61849C" d="M-3.799,89.075h0.934l2.248-7.067l2.295,7.067h0.784l2.284-7.067l2.26,7.067h0.876l-2.745-8.601H4.354
		l-2.305,7.112l-2.296-7.112h-0.795L-3.799,89.075z"/>
</g>
<g transform="translate(133.1884,728.1357)">
	<path fill="#61849C" d="M28.448-649.067c0-2.884-1.339-4.439-4.252-4.439c-2.897,0-4.224,1.556-4.224,4.439
		c0,2.896,1.326,4.455,4.224,4.455C27.109-644.612,28.448-646.171,28.448-649.067 M18.836-649.081c0-3.806,1.944-5.506,5.36-5.506
		c3.432,0,5.391,1.7,5.391,5.506c0,3.818-1.959,5.52-5.391,5.52C20.78-643.561,18.836-645.262,18.836-649.081"/>
</g>
<g transform="translate(137.7932,728.1683)">
	<path fill="#61849C" d="M31.929-649.157c1.514,0,2.449-0.461,2.449-2.146c0-1.658-0.907-2.091-2.491-2.091h-3.476v4.237H31.929z
		 M31.614-648.12h-3.202v4.353h-1.109v-10.68h4.613c2.479,0,3.603,0.995,3.603,3.114c0,1.844-0.88,2.926-2.739,3.17l2.58,4.396
		h-1.21L31.614-648.12z"/>
</g>
<g transform="translate(143.0629,728.3242)">
	<path fill="#61849C" d="M35.913-649.588l-2.133,2.334v3.332h-1.109v-10.68h1.109v5.894l5.405-5.894h1.312l-3.834,4.192l4.353,6.487
		h-1.284L35.913-649.588z"/>
</g>
<g transform="translate(146.5105,725.714)">
	<path fill="#61849C" d="M38.519-642.393l0.576-0.863c1.282,0.806,2.536,1.079,3.818,1.079c2.206,0,3.186-0.619,3.186-2.09
		c0-1.513-1.267-1.729-3.186-2.075c-2.305-0.403-3.862-0.793-3.862-2.954c0-2.063,1.326-2.868,3.862-2.868
		c1.675,0,2.87,0.374,3.72,0.951l-0.605,0.922c-0.764-0.504-1.902-0.836-3.114-0.836c-1.915,0-2.736,0.535-2.736,1.802
		c0,1.356,1.109,1.614,3.013,1.959c2.334,0.419,4.021,0.766,4.021,3.057c0,2.118-1.354,3.141-4.266,3.141
		C41.33-641.17,39.872-641.5,38.519-642.393"/>
</g>
<g transform="translate(157.8189,756.3191)">
	<path fill="#231F20" d="M47.066-726.738c-15.014,0-15.651,6.727-15.651,16.217v23.3h3.541v-23.3c0-7.153-0.284-12.891,12.11-12.891
		c1.328,0,2.508,0.07,3.567,0.196v-3.373C49.539-726.686,48.359-726.738,47.066-726.738"/>
</g>
<g transform="translate(58.0874,742.4452)">
	<path fill="#231F20" d="M-28.32-688.503v-23.583h3.613v23.654c0,6.798-0.071,12.536,12.392,12.536
		c12.394,0,12.111-5.737,12.111-12.891v-23.299h3.542v23.299c0,9.491-0.64,16.22-15.653,16.22
		C-27.4-672.568-28.32-679.297-28.32-688.503"/>
</g>
<g transform="translate(97.5568,747.2451)">
	<path fill="#231F20" d="M1.514-701.731v23.583h-3.611v-23.654c0-6.799,0.069-12.537-12.395-12.537
		c-12.395,0-12.11,5.737-12.11,12.891v23.3h-3.54v-23.3c0-9.491,0.637-16.217,15.65-16.217
		C0.595-717.664,1.514-710.938,1.514-701.731"/>
</g>
<path fill="#231F20" d="M105.645,30.422h3.466v38.667h-3.466V30.422z"/>
<g transform="translate(117.3098,743.4458)">
	<path fill="#231F20" d="M16.446-691.261c6.254,0,9.362-3.048,9.362-9.206c0-6.155-3.354-9.078-9.517-9.078H1.758v18.284H16.446z
		 M-1.708-713.014h18.102c8.977,0,13.047,4.461,13.047,12.393c0,7.983-4.018,12.837-13.097,12.837H1.758v13.437h-3.466V-713.014z"/>
</g>
<g transform="translate(129.0252,746.3982)">
	<path fill="#231F20" d="M25.302-699.397h26.344c-0.353-7.719-0.85-14.305-12.11-14.305
		C28.701-713.703,25.727-707.824,25.302-699.397 M21.76-696.775c0-11.401,3.26-20.185,17.85-20.185
		c15.083,0,15.577,10.126,15.507,20.82H25.232c0.07,9.42,2.406,16.432,14.659,16.432c6.516,0,9.49-1.771,12.677-4.106l1.98,2.619
		c-3.54,2.62-7.718,4.675-14.657,4.675C24.594-676.521,21.76-685.375,21.76-696.775"/>
</g>
<g transform="translate(45.7034,729.0357)">
	<path fill="#231F20" d="M-37.681-651.548c15.013,0,15.652-6.727,15.652-16.217v-30.911h-3.542v30.911
		c0,7.151,0.283,12.89-12.11,12.89c-0.469,0-0.914-0.013-1.348-0.03v3.34C-38.593-651.554-38.145-651.548-37.681-651.548"/>
</g>
</svg>
