<?xml version="1.0" encoding="utf-8"?>
<!-- Generator: Adobe Illustrator 15.1.0, SVG Export Plug-In . SVG Version: 6.00 Build 0)  -->
<svg version="1.2" baseProfile="tiny" id="Layer_1" xmlns="http://www.w3.org/2000/svg" xmlns:xlink="http://www.w3.org/1999/xlink"
	 x="0px" y="0px" width="217.297px" height="114.609px" viewBox="0 0 217.297 114.609" xml:space="preserve">
<g id="Icons">
	<g>
		<path fill="#C01818" d="M108.591,63.363l-5.436-3.172l-0.339,0.568c-1.245,1.924-2.944,2.943-4.983,2.943
			c-3.51,0-6.227-2.717-6.227-6.227c0-3.511,2.717-6.229,6.227-6.229c2.153,0,3.738,0.905,4.983,2.944l0.454,0.566l5.436-3.171
			l-0.454-0.68c-2.604-3.736-6.002-5.549-10.305-5.549c-8.266,0-12.683,6.229-12.683,12.116c0,5.889,4.417,12.23,12.683,12.23
			c4.19,0,8.154-2.151,10.305-5.55L108.591,63.363z"/>
		<path fill="#C01818" d="M108.365,69.59h7.474l2.265-5.549h11.211l2.265,5.549h7.476l-13.59-32.273h-6.682l1.813,4.303
			L108.365,69.59 M123.653,50l3.058,7.587h-6.115L123.653,50z"/>
		<path fill="#C01818" d="M141.999,69.59h6.567V55.096h4.303v-6.115h-4.303v-2.831c0-1.247,0.793-2.492,2.378-2.492
			c0.793,0,1.359,0.113,1.813,0.34l0.68,0.339l2.717-5.889l-0.793-0.339c-1.244-0.454-2.943-0.679-4.077-0.679
			c-2.943,0-5.435,1.018-7.021,2.831c-1.472,1.584-2.264,3.851-2.264,6.228v2.605h-2.944v6.115h2.83L141.999,69.59z"/>
		<polygon fill="#C01818" points="54.235,37.091 54.235,69.59 61.37,69.59 61.37,51.019 68.278,56.115 75.186,51.019 75.186,69.59 
			82.32,69.59 82.32,37.091 68.278,47.736 		"/>
		<path fill="#C01818" d="M167.478,45.358c-8.267,0-12.683,6.229-12.683,12.116c0,5.889,4.416,12.116,12.683,12.116l0,0l0,0
			c3.737,0,7.362-1.811,10.079-4.868l-5.322-2.943c-1.358,1.358-3.058,2.15-4.87,2.15c-2.717,0-5.095-1.812-5.661-4.076h17.779
			v-1.586C179.482,49.322,172.461,45.358,167.478,45.358z M161.816,54.418c0.906-2.266,2.718-3.511,5.096-3.511
			c2.379,0,4.303,1.245,5.322,3.511H161.816z"/>
		<path fill="#C01818" d="M194.203,45.358c-8.267,0-12.683,6.229-12.683,12.116c0,5.889,4.416,12.116,12.683,12.116l0,0l0,0
			c3.736,0,7.361-1.811,10.078-4.868l-5.322-2.943c-1.357,1.358-3.057,2.15-4.869,2.15c-2.717,0-5.096-1.812-5.662-4.076h17.779
			v-1.586C206.207,49.322,199.187,45.358,194.203,45.358z M188.541,54.53c0.905-2.265,2.718-3.51,5.097-3.51
			c2.378,0,4.302,1.246,5.321,3.51H188.541z"/>
		<path fill="#C01818" d="M205.302,44.225h2.717v0.566h-1.132v2.944h-0.566v-2.944h-1.133v-0.566H205.302z"/>
		<path fill="#C01818" d="M208.473,44.225h0.793l0.905,2.717l0,0l0.906-2.717h0.792v3.397h-0.34v-2.605l0,0l-0.905,2.605h-0.453
			l-1.133-2.605l0,0v2.605h-0.565V44.225L208.473,44.225z"/>
		<polygon fill="#C01818" points="12.675,64.722 12.675,48.302 22.98,53.171 22.98,45.245 5.428,37.091 5.428,69.365 22.98,77.519 
			22.98,69.59 		"/>
		<polygon fill="#75160D" points="33.399,64.722 33.399,48.302 22.98,53.171 22.98,45.245 40.533,37.091 40.533,69.365 
			22.98,77.519 22.98,69.59 		"/>
	</g>
</g>
</svg>
