<?xml version="1.0" encoding="utf-8"?>
<!-- Generator: Adobe Illustrator 15.1.0, SVG Export Plug-In . SVG Version: 6.00 Build 0)  -->
<svg version="1.2" baseProfile="tiny" id="Layer_1" xmlns="http://www.w3.org/2000/svg" xmlns:xlink="http://www.w3.org/1999/xlink"
	 x="0px" y="0px" width="217.297px" height="114.609px" viewBox="0 0 217.297 114.609" xml:space="preserve">
<g id="layer1" transform="translate(-398.91223,-283.64549)">
	<path id="path17131" d="M580.401,305.805c0.938,0,1.853,0.241,2.748,0.721c0.894,0.482,1.591,1.172,2.087,2.067
		c0.498,0.895,0.746,1.83,0.746,2.802c0,0.962-0.243,1.888-0.735,2.777c-0.489,0.887-1.18,1.577-2.063,2.069
		c-0.887,0.489-1.814,0.735-2.782,0.735s-1.893-0.246-2.779-0.735c-0.886-0.492-1.575-1.183-2.07-2.069
		c-0.491-0.89-0.74-1.815-0.74-2.777c0-0.972,0.251-1.907,0.751-2.802c0.503-0.896,1.2-1.585,2.092-2.067
		C578.55,306.046,579.465,305.805,580.401,305.805z M580.401,306.728c-0.784,0-1.55,0.203-2.29,0.605
		c-0.744,0.403-1.326,0.977-1.743,1.726c-0.421,0.746-0.632,1.526-0.632,2.336c0,0.804,0.208,1.575,0.619,2.313
		c0.412,0.739,0.989,1.313,1.73,1.727c0.738,0.412,1.513,0.617,2.315,0.617c0.806,0,1.579-0.205,2.317-0.617
		c0.742-0.413,1.315-0.987,1.726-1.727c0.411-0.737,0.616-1.509,0.616-2.313c0-0.81-0.211-1.59-0.625-2.336
		c-0.42-0.749-0.999-1.322-1.744-1.726C581.945,306.931,581.183,306.728,580.401,306.728z M577.949,314.475v-6.003h2.066
		c0.709,0,1.219,0.057,1.537,0.167c0.314,0.11,0.566,0.305,0.756,0.582c0.188,0.274,0.279,0.566,0.279,0.879
		c0,0.438-0.156,0.821-0.472,1.146c-0.313,0.325-0.731,0.508-1.248,0.546c0.21,0.09,0.382,0.194,0.511,0.318
		c0.239,0.236,0.535,0.634,0.887,1.189l0.732,1.175h-1.176l-0.537-0.946c-0.42-0.744-0.759-1.211-1.018-1.397
		c-0.177-0.136-0.436-0.205-0.777-0.203h-0.568v2.547H577.949z M578.922,311.095h1.176c0.565,0,0.947-0.083,1.152-0.251
		s0.307-0.388,0.307-0.662c0-0.177-0.047-0.336-0.148-0.474c-0.098-0.141-0.232-0.244-0.409-0.313
		c-0.175-0.069-0.501-0.103-0.975-0.103h-1.103V311.095"/>
	<path id="path17137" fill="#ED1C24" d="M429.138,305.494v70.791h99.794l8.24-17.808l8.373,17.936h24.967v-70.926L429.138,305.494"
		/>
	<path id="path17139" fill="#FFFFFF" d="M498.625,318.308c-8.814,0-14.358,4.031-14.358,10.897c0,7.837,7.798,10.023,13.847,11.73
		c6.3,1.78,8.461,3.813,8.461,6.859c0,5.078-5.148,5.897-8.333,5.897c-4.374,0-7.943-1.221-11.476-3.397l-3.012,5.064
		c4.453,2.748,9.031,4.038,14.487,4.038c9.11,0,15.192-4.744,15.192-12.051c0-8.162-7.398-10.364-13.59-12.116
		c-6.309-1.784-8.718-3.303-8.718-6.346c0-4.613,5.603-5.064,7.628-5.064c3.178,0,7.223,1.072,9.615,2.308l2.564-4.999
		C507.703,319.459,502.764,318.308,498.625,318.308z M446.318,318.948v39.424h5.961v-33.654h10.193c3.396,0,7.053,1.785,7.115,6.025
		c0.05,3.774-2.788,6.145-7.564,6.347h-3.719l12.115,21.347l7.052-0.064l-9.487-16.73c5.385-2.011,8.01-6.432,7.949-10.962
		c-0.098-6.875-5.514-11.731-13.141-11.731H446.318z M533.818,319.333L517.024,358.5h7.372l12.757-30.705l13.332,30.705l7.373-0.063
		l-17.18-39.104H533.818z"/>
</g>
</svg>
