<svg id="Layer_1" data-name="Layer 1" xmlns="http://www.w3.org/2000/svg" viewBox="0 0 150.7 33.52"><defs><style>.cls-1{fill:none;}</style></defs><title>010-01</title><g id="g3"><g id="g5"><g id="g7"><path id="path9" d="M106,61.91a2.9,2.9,0,0,1-5.53-1.32,3.75,3.75,0,0,1,3.52-4,2.68,2.68,0,0,1,2.85,2h3.33c.2-1.25-.79-5.05-6.05-5.05a7,7,0,0,0-6.93,7.18,5.6,5.6,0,0,0,6,6,6.1,6.1,0,0,0,6.32-4.74Z" transform="translate(-33.3 -40.54)"/><path id="path11" d="M80.5,62.83a7.38,7.38,0,0,1,.22-1.33c.16-.77,2.51-11.6,2.51-11.6H80.11L77.52,61.84a7.5,7.5,0,0,0-.15,1.44c0,2.61,2,3.38,3.64,3.38a8.56,8.56,0,0,0,1.26-.11c0-.26.54-2.51.56-2.61s-.41,0-.81,0C80.86,64,80.5,63.48,80.5,62.83Z" transform="translate(-33.3 -40.54)"/><polygon id="polygon13" points="87.17 13.01 81.58 18.04 83.46 9.34 80.32 9.34 76.75 25.86 79.89 25.86 80.76 21.84 82.69 20.3 85.36 25.86 88.86 25.86 85.06 18.42 91.52 13.01 87.17 13.01"/><path id="path15" d="M63.34,61.29c.26-1.18,2.48-11.41,2.48-11.41h5.94c4.32,0,5.38,2.4,5.38,3.86a4.42,4.42,0,0,1-3.41,4.18,3.5,3.5,0,0,1,2.32,3.43c0,2.75-2.54,5.05-6.47,5.05H67.79C64.49,66.4,62.71,64.14,63.34,61.29Zm9.31-.2c0-.78-.5-1.76-2.72-1.76H67.05l-.86,4h3.26C71.56,63.32,72.65,62.37,72.65,61.09Zm1.07-6.66c0-.8-.61-1.49-2.11-1.49H68.43l-.72,3.33H71C72.81,56.27,73.72,55.41,73.72,54.43Z" transform="translate(-33.3 -40.54)"/><path id="path17" d="M123.38,61.29c.27-1.18,2.48-11.41,2.48-11.41h6c4.31,0,5.37,2.4,5.37,3.86a4.42,4.42,0,0,1-3.41,4.18,3.5,3.5,0,0,1,2.32,3.43c0,2.75-2.54,5.05-6.47,5.05h-1.79C124.53,66.4,122.76,64.14,123.38,61.29Zm9.31-.2c0-.78-.5-1.76-2.72-1.76h-2.88l-.86,4h3.26C131.6,63.32,132.69,62.37,132.69,61.09Zm1.07-6.66c0-.8-.61-1.49-2.11-1.49h-3.18l-.72,3.33h3.32C132.85,56.27,133.76,55.41,133.76,54.43Z" transform="translate(-33.3 -40.54)"/><path id="path19" d="M158.76,53.56c-3.33,0-5.59,2-6.36,5.67-.32,1.59-1.53,7.18-1.53,7.18H154l1.51-7c.48-2.19,1.63-2.93,3.19-2.93a6.65,6.65,0,0,1,1,.08c.08-.44.52-2.42.62-2.9A12.23,12.23,0,0,0,158.76,53.56Z" transform="translate(-33.3 -40.54)"/><path id="path21" d="M169.37,71.32l10.47-17.76h-3.37l-4.81,8.36-1.12-8.37h-3.61c-4.12,0-6.26,1.89-7,5.5-.38,1.8-1.59,7.36-1.59,7.36h3.12L163,59a2.8,2.8,0,0,1,3.62-2.34l.66-3c.49,2.88,2,12.09,2,12.09L166,71.32Z" transform="translate(-33.3 -40.54)"/><path id="path23" d="M89.51,60.93l3-.45c-.06.21-.14.55-.2.81a3.63,3.63,0,0,1-3.69,2.55c-1.11,0-1.76-.6-1.76-1.31S87.37,61.24,89.51,60.93Zm-1.17-3.35a3.28,3.28,0,0,1,2.88-1.36c1.24,0,1.88.45,1.88,1,0,.77-1.26,1-3.43,1.29-3.72.54-6.08,1.69-6.08,4.39,0,1.91,1.58,3.76,4.4,3.76a5,5,0,0,0,3.67-1.52c0,.34,0,.85.09,1.26H95a7.39,7.39,0,0,1,0-3.34c.21-.9.78-3.49,1.07-4.92.55-2.7-.94-4.61-4.74-4.61-4.89,0-6.3,3.51-6.52,4Z" transform="translate(-33.3 -40.54)"/><path id="path25" d="M146.28,62.55a2.82,2.82,0,0,1-2.57,1.31,2.74,2.74,0,0,1-2.94-2.64h9.51a8.31,8.31,0,0,0,.27-1.95c0-3-2-5.76-6.15-5.76a6.89,6.89,0,0,0-6.79,6.92c0,3.64,2.19,6.22,6,6.22a6.21,6.21,0,0,0,6.18-4.1Zm-1.85-6.19c2.1,0,2.9,1.29,2.82,2.31h-6A3.36,3.36,0,0,1,144.43,56.36Z" transform="translate(-33.3 -40.54)"/></g><g id="g27"><path id="path29" d="M43.61,48c0-.79-.49-1.8-2.53-1.8H37.94l-.89,4.13h3.27C42.88,50.33,43.61,49.12,43.61,48Z" transform="translate(-33.3 -40.54)"/><path id="path31" d="M52.06,48c0-.79-.48-1.8-2.52-1.8H46.4l-.89,4.13h3.27C51.33,50.33,52.06,49.12,52.06,48Z" transform="translate(-33.3 -40.54)"/><path id="path33" d="M42.47,54.21c0-.79-.48-1.8-2.52-1.8H36.81l-.89,4.13h3.27C41.75,56.54,42.47,55.33,42.47,54.21Z" transform="translate(-33.3 -40.54)"/><path id="path35" d="M50.93,54.21c0-.79-.49-1.8-2.52-1.8H45.27l-.9,4.13h3.28C50.2,56.54,50.93,55.33,50.93,54.21Z" transform="translate(-33.3 -40.54)"/><path id="path37" d="M59.77,51.69c0-.79-.48-1.8-2.52-1.8H54.11L53.22,54h3.27C59.05,54,59.77,52.81,59.77,51.69Z" transform="translate(-33.3 -40.54)"/><path id="path39" d="M58.55,58.16c0-.79-.48-1.8-2.52-1.8H52.89L52,60.49h3.27C57.83,60.49,58.55,59.28,58.55,58.16Z" transform="translate(-33.3 -40.54)"/><path id="path41" d="M49.71,60.68c0-.8-.48-1.8-2.52-1.8H44.05L43.16,63h3.27C49,63,49.71,61.8,49.71,60.68Z" transform="translate(-33.3 -40.54)"/></g></g><rect id="rect43" class="cls-1" width="150.7" height="33.52"/></g></svg>