<svg id="Layer_1" data-name="Layer 1" xmlns="http://www.w3.org/2000/svg" viewBox="0 0 201.11 44.74"><defs><style>.cls-1{fill:none;}</style></defs><title>010</title><g id="g3"><g id="g5"><g id="g7"><path id="path9" d="M105.13,63.45a3.87,3.87,0,0,1-7.39-1.76c0-2.83,1.91-5.37,4.71-5.37a3.58,3.58,0,0,1,3.8,2.65h4.44c.27-1.66-1-6.73-8.07-6.73a9.28,9.28,0,0,0-9.25,9.59c0,4.48,2.81,7.94,8,7.94,6.48,0,8.23-5.08,8.44-6.32Z" transform="translate(-8.09 -34.94)"/><path id="path11" d="M71.08,64.68a9.81,9.81,0,0,1,.3-1.78c.22-1,3.35-15.47,3.35-15.47H70.57L67.11,63.36a9.48,9.48,0,0,0-.2,1.91c0,3.5,2.7,4.52,4.86,4.52a10.44,10.44,0,0,0,1.67-.15c.07-.35.73-3.35.76-3.48s-.56,0-1.09,0C71.56,66.2,71.08,65.55,71.08,64.68Z" transform="translate(-8.09 -34.94)"/><polygon id="polygon13" points="116.32 17.36 108.86 24.08 111.38 12.46 107.18 12.46 102.42 34.51 106.61 34.51 107.77 29.15 110.35 27.09 113.91 34.51 118.58 34.51 113.52 24.58 122.13 17.36 116.32 17.36"/><path id="path15" d="M48.19,62.63c.35-1.58,3.3-15.23,3.3-15.23h7.94c5.75,0,7.17,3.2,7.17,5.14,0,4.3-4.06,5.43-4.55,5.59a4.64,4.64,0,0,1,3.09,4.57c0,3.67-3.38,6.74-8.63,6.74H54.12C49.72,69.45,47.35,66.42,48.19,62.63Zm12.42-.27c0-1-.66-2.35-3.63-2.35H53.13L52,65.34h4.36C59.16,65.34,60.61,64.07,60.61,62.36ZM62,53.47c0-1.07-.82-2-2.81-2H55l-1,4.45h4.42C60.82,55.93,62,54.78,62,53.47Z" transform="translate(-8.09 -34.94)"/><path id="path17" d="M128.31,62.63c.35-1.58,3.31-15.23,3.31-15.23h7.93c5.76,0,7.18,3.2,7.18,5.14,0,4.3-4.06,5.43-4.56,5.59a4.65,4.65,0,0,1,3.1,4.57c0,3.67-3.39,6.74-8.63,6.74h-2.39C129.84,69.45,127.47,66.42,128.31,62.63Zm12.43-.27c0-1-.67-2.35-3.63-2.35h-3.85l-1.15,5.33h4.35C139.28,65.34,140.74,64.07,140.74,62.36Zm1.42-8.89c0-1.07-.81-2-2.81-2H135.1l-1,4.45h4.43C141,55.93,142.16,54.78,142.16,53.47Z" transform="translate(-8.09 -34.94)"/><path id="path19" d="M175.52,52.31c-4.44,0-7.46,2.63-8.48,7.56-.44,2.12-2,9.58-2,9.58h4.16s1.54-7.09,2-9.32c.64-2.92,2.18-3.91,4.26-3.91a6.87,6.87,0,0,1,1.31.11c.12-.59.7-3.23.84-3.88A17.23,17.23,0,0,0,175.52,52.31Z" transform="translate(-8.09 -34.94)"/><path id="path21" d="M189.69,76l14-23.7h-4.49l-6.42,11.15-1.5-11.17h-4.81c-5.51,0-8.36,2.52-9.38,7.34-.5,2.41-2.12,9.82-2.12,9.82h4.17s1.52-7,2.13-9.88a3.75,3.75,0,0,1,4.84-3.13l.88-4c.65,3.85,2.63,16.13,2.63,16.13L185.23,76Z" transform="translate(-8.09 -34.94)"/><path id="path23" d="M83.1,62.14l4-.6c-.07.28-.18.74-.26,1.08A4.85,4.85,0,0,1,81.89,66c-1.49,0-2.36-.8-2.36-1.75C79.53,63.49,80.25,62.56,83.1,62.14Zm-1.56-4.47a4.4,4.4,0,0,1,3.85-1.82c1.66,0,2.51.61,2.51,1.34,0,1-1.68,1.3-4.57,1.72-5,.72-8.12,2.26-8.12,5.86,0,2.54,2.11,5,5.87,5a6.59,6.59,0,0,0,4.89-2c0,.45.08,1.13.13,1.67h4.3a9.71,9.71,0,0,1,0-4.45c.27-1.2,1-4.66,1.42-6.57.74-3.61-1.24-6.16-6.32-6.16-6.52,0-8.4,4.69-8.71,5.42h4.7Z" transform="translate(-8.09 -34.94)"/><path id="path25" d="M158.87,64.31a3.8,3.8,0,0,1-3.43,1.74,3.66,3.66,0,0,1-3.93-3.52h12.7a11.69,11.69,0,0,0,.36-2.6c0-4-2.72-7.69-8.22-7.69a9.19,9.19,0,0,0-9,9.24c0,4.85,2.92,8.29,8.07,8.29a8.28,8.28,0,0,0,8.25-5.46Zm-2.47-8.26c2.8,0,3.87,1.71,3.76,3.08h-8A4.49,4.49,0,0,1,156.4,56.05Z" transform="translate(-8.09 -34.94)"/></g><g id="g27"><path id="path29" d="M21.85,44.88c0-1.05-.65-2.39-3.37-2.39H14.29L13.1,48h4.37C20.88,48,21.85,46.38,21.85,44.88Z" transform="translate(-8.09 -34.94)"/><path id="path31" d="M33.13,44.88c0-1.05-.64-2.39-3.36-2.39H25.58L24.39,48h4.36C32.16,48,33.13,46.38,33.13,44.88Z" transform="translate(-8.09 -34.94)"/><path id="path33" d="M20.34,53.17c0-1.05-.65-2.39-3.37-2.39H12.78l-1.19,5.51H16C19.37,56.29,20.34,54.67,20.34,53.17Z" transform="translate(-8.09 -34.94)"/><path id="path35" d="M31.62,53.17c0-1.05-.65-2.39-3.36-2.39H24.07l-1.2,5.51h4.37C30.65,56.29,31.62,54.67,31.62,53.17Z" transform="translate(-8.09 -34.94)"/><path id="path37" d="M43.43,49.81c0-1.06-.65-2.4-3.37-2.4H35.87l-1.19,5.52H39C42.46,52.93,43.43,51.31,43.43,49.81Z" transform="translate(-8.09 -34.94)"/><path id="path39" d="M41.8,58.44c0-1-.65-2.39-3.37-2.39H34.24l-1.19,5.51h4.37C40.83,61.56,41.8,59.94,41.8,58.44Z" transform="translate(-8.09 -34.94)"/><path id="path41" d="M30,61.81c0-1.06-.65-2.4-3.36-2.4H22.45l-1.2,5.51h4.37C29,64.92,30,63.3,30,61.81Z" transform="translate(-8.09 -34.94)"/></g></g><rect id="rect43" class="cls-1" width="201.11" height="44.74"/></g></svg>