<?xml version="1.0" encoding="utf-8"?>
<!-- Generator: Adobe Illustrator 15.1.0, SVG Export Plug-In . SVG Version: 6.00 Build 0)  -->
<svg version="1.2" baseProfile="tiny" id="Layer_1" xmlns="http://www.w3.org/2000/svg" xmlns:xlink="http://www.w3.org/1999/xlink"
	 x="0px" y="0px" width="100px" height="100px" viewBox="233.465 233.465 100 100" xml:space="preserve">
<g>
	<g>
		<path fill="#C1272D" d="M249.7,253.424h-6.209c-0.643,0-1.164-0.521-1.164-1.165s0.521-1.165,1.164-1.165h6.209
			c0.643,0,1.164,0.521,1.164,1.165C250.865,252.902,250.343,253.424,249.7,253.424z"/>
	</g>
	<path fill="#C1272D" d="M262.119,253.424h-6.209c-0.643,0-1.165-0.521-1.165-1.165s0.522-1.165,1.165-1.165h6.209
		c0.643,0,1.165,0.521,1.165,1.165C263.283,252.902,262.761,253.424,262.119,253.424z"/>
</g>
<g>
	<g>
		<path fill="#C1272D" d="M313.98,321.123c0.061-0.478,0.107-0.954,0.146-1.431c-0.334,0.135-0.662,0.164-0.832,0.167h-75.614
			c-0.315,0-1.886-0.092-1.886-1.885v-68.296c0-1.716,1.45-1.876,1.886-1.884h75.606c0.448,0.009,1.892,0.173,1.892,1.884v32.42
			c0.735-0.403,1.662-0.442,2.329,0.013v-32.433c0-3.091-2.521-4.212-4.213-4.212h-75.614c-1.695,0-4.214,1.121-4.214,4.212v68.296
			c0,3.091,2.52,4.213,4.214,4.213h75.614c0.247,0,0.513-0.026,0.784-0.077C313.973,321.832,313.931,321.505,313.98,321.123z"/>
		<path fill="#C1272D" d="M316.341,259.988h-81.712c-0.644,0-1.164-0.521-1.164-1.164v-9.146c0-3.091,2.52-4.212,4.214-4.212h75.614
			c1.692,0,4.213,1.122,4.213,4.212v9.146C317.506,259.467,316.984,259.988,316.341,259.988z M235.793,257.66h79.384v-7.982
			c0-1.716-1.449-1.876-1.895-1.884h-75.603c-0.436,0.008-1.886,0.168-1.886,1.884V257.66z"/>
	</g>
	<g>
		<path fill="#C1272D" d="M260.147,288.933l8.082-8.111c0.394-0.476,0.394-1.193-0.024-1.696c-0.43-0.428-1.216-0.44-1.698,0.001
			l-8.941,9.054c-0.074,0.073-0.121,0.167-0.157,0.241l-0.04,0.103c-0.019,0.055-0.043,0.12-0.053,0.196
			c-0.031,0.126-0.033,0.252-0.005,0.376c0.004,0.051,0.009,0.11,0.034,0.179c0.006,0.037,0.018,0.082,0.042,0.131l0.089,0.156
			c0.051,0.079,0.119,0.148,0.2,0.229l8.835,8.89c0.235,0.234,0.53,0.363,0.832,0.363c0.355,0,0.678-0.143,0.875-0.379
			c0.417-0.457,0.417-1.151-0.012-1.623L260.147,288.933z"/>
		<path fill="#C1272D" d="M294.1,288.07l-8.847-8.957c-0.453-0.414-1.231-0.44-1.704,0.038c-0.397,0.477-0.397,1.194,0.023,1.696
			l8.057,8.084l-8.069,8.124c-0.418,0.459-0.418,1.153,0.013,1.626c0.238,0.237,0.538,0.362,0.862,0.362
			c0.327,0,0.654-0.149,0.833-0.364l8.819-8.883l0.211-0.148v-0.098c0.105-0.182,0.166-0.404,0.166-0.621
			C294.464,288.624,294.335,288.307,294.1,288.07z"/>
		<path fill="#C1272D" d="M280.292,278.868c-0.53-0.204-1.122,0.032-1.391,0.576l-7.636,18.124
			c-0.208,0.541,0.029,1.147,0.603,1.429c0.144,0.049,0.275,0.049,0.402,0.049c0.432,0,0.815-0.261,0.974-0.658l7.625-18.101
			c0.125-0.271,0.134-0.567,0.026-0.836C280.785,279.183,280.572,278.975,280.292,278.868z"/>
	</g>
	<path fill="#C1272D" d="M328.508,299.149h-1.399v-7.437c0.006-3.463-1.341-6.717-3.789-9.166c-2.395-2.396-5.561-3.736-8.937-3.791
		c-0.06-0.007-0.104-0.016-0.178-0.009c-3.462,0-6.715,1.349-9.165,3.798c-2.449,2.451-3.798,5.707-3.796,9.167v7.437h-1.396
		c-2.549,0-4.615,2.066-4.615,4.614V317.5c0,2.547,2.066,4.613,4.615,4.613h28.659c2.548,0,4.613-2.066,4.613-4.613v-13.736
		C333.12,301.216,331.055,299.149,328.508,299.149z M305.029,291.713c-0.002-2.451,0.954-4.756,2.688-6.49
		c1.691-1.693,3.925-2.643,6.307-2.688c0.045,0.004,0.087,0.004,0.131,0.004c0.003,0,0.011,0,0.016,0
		c2.445,0,4.742,0.953,6.474,2.685c1.731,1.732,2.685,4.035,2.682,6.487v7.439h-18.297V291.713z M317.33,309.087
		c0,1.03-0.5,1.935-1.262,2.511v3.265c0,1.045-0.847,1.892-1.892,1.892c-1.046,0-1.893-0.847-1.893-1.892v-3.265
		c-0.761-0.576-1.261-1.48-1.261-2.511v-1.423c0-1.741,1.411-3.154,3.153-3.154c1.739,0,3.152,1.413,3.152,3.154L317.33,309.087
		L317.33,309.087z"/>
</g>
</svg>
