<?xml version="1.0" encoding="utf-8"?>
<!-- Generator: Adobe Illustrator 24.0.2, SVG Export Plug-In . SVG Version: 6.00 Build 0)  -->
<svg version="1.1" id="Layer_1" xmlns="http://www.w3.org/2000/svg" xmlns:xlink="http://www.w3.org/1999/xlink" x="0px" y="0px"
	 viewBox="0 0 217.3 114.6" style="enable-background:new 0 0 217.3 114.6;" xml:space="preserve">
<style type="text/css">
	.st0{fill:none;}
</style>
<g id="g3" transform="translate(-4.1840025,-9.032)">
	<g id="g5">
		<g id="g7">
			<path id="path9" d="M110.9,71.7c-0.1,0.3-0.9,1.8-2.8,1.8c-2.2,0-3.1-1.8-3.1-3.2c0-2.3,1.5-4.3,3.8-4.3c2.4,0,3,1.8,3,2.1h3.6
				c0.2-1.3-0.8-5.4-6.5-5.4c-4.1,0-7.4,3.3-7.4,7.7c0,3.6,2.2,6.4,6.4,6.4c5.2,0,6.6-4.1,6.8-5.1C114.6,71.7,110.9,71.7,110.9,71.7
				z"/>
			<path id="path11" d="M83.6,72.7c0-0.2,0.1-0.6,0.2-1.4c0.2-0.8,2.7-12.4,2.7-12.4h-3.3l-2.8,12.8c-0.1,0.5-0.2,1.1-0.2,1.5
				c0,2.8,2.2,3.6,3.9,3.6c0.6,0,1.2-0.1,1.3-0.1c0.1-0.3,0.6-2.7,0.6-2.8c-0.1,0-0.4,0-0.9,0C84,73.9,83.6,73.4,83.6,72.7z"/>
			<polygon id="polygon13" points="126.3,62.8 120.3,68.2 122.3,58.9 119,58.9 115.2,76.5 118.5,76.5 119.5,72.2 121.5,70.6 
				124.4,76.5 128.1,76.5 124.1,68.6 131,62.8 			"/>
			<path id="path15" d="M65.3,71.1c0.3-1.3,2.6-12.2,2.6-12.2s4.1,0,6.4,0c4.6,0,5.7,2.6,5.7,4.1c0,3.4-3.2,4.3-3.6,4.5
				c0.4,0.1,2.5,1,2.5,3.7c0,2.9-2.7,5.4-6.9,5.4c0,0-1.5,0-1.9,0C66.5,76.5,64.6,74.1,65.3,71.1z M75.2,70.9c0-0.8-0.5-1.9-2.9-1.9
				h-3.1l-0.9,4.3h3.5C74.1,73.2,75.2,72.2,75.2,70.9z M76.4,63.7c0-0.9-0.7-1.6-2.3-1.6h-3.4l-0.8,3.6h3.5
				C75.4,65.7,76.4,64.8,76.4,63.7z"/>
			<path id="path17" d="M129.4,71.1c0.3-1.3,2.6-12.2,2.6-12.2s4.1,0,6.4,0c4.6,0,5.7,2.6,5.7,4.1c0,3.4-3.2,4.3-3.6,4.5
				c0.4,0.1,2.5,1,2.5,3.7c0,2.9-2.7,5.4-6.9,5.4c0,0-1.5,0-1.9,0C130.6,76.5,128.8,74.1,129.4,71.1z M139.4,70.9
				c0-0.8-0.5-1.9-2.9-1.9h-3.1l-0.9,4.3h3.5C138.2,73.2,139.4,72.2,139.4,70.9z M140.5,63.7c0-0.9-0.7-1.6-2.3-1.6h-3.4l-0.8,3.6
				h3.5C139.5,65.7,140.5,64.8,140.5,63.7z"/>
			<path id="path19" d="M167.2,62.8c-3.6,0-6,2.1-6.8,6.1c-0.4,1.7-1.6,7.7-1.6,7.7h3.3c0,0,1.2-5.7,1.6-7.5
				c0.5-2.3,1.7-3.1,3.4-3.1c0.5,0,0.9,0.1,1.1,0.1c0.1-0.5,0.6-2.6,0.7-3.1C168.5,62.9,167.9,62.8,167.2,62.8z"/>
			<path id="path21" d="M178.6,81.8l11.2-19h-3.6l-5.1,8.9l-1.2-8.9c0,0-1.8,0-3.9,0c-4.4,0-6.7,2-7.5,5.9c-0.4,1.9-1.7,7.9-1.7,7.9
				h3.3c0,0,1.2-5.6,1.7-7.9c0.5-2.2,2.1-2.9,3.9-2.5l0.7-3.2c0.5,3.1,2.1,12.9,2.1,12.9l-3.5,6H178.6L178.6,81.8z"/>
			<path id="path23" d="M93.2,70.7c0.7-0.1,2.9-0.4,3.2-0.5c-0.1,0.2-0.1,0.6-0.2,0.9c-0.4,1.7-2.1,2.7-3.9,2.7
				c-1.2,0-1.9-0.6-1.9-1.4C90.4,71.8,91,71,93.2,70.7z M92,67.1c0.1-0.1,0.9-1.5,3.1-1.5c1.3,0,2,0.5,2,1.1c0,0.8-1.3,1-3.7,1.4
				c-4,0.6-6.5,1.8-6.5,4.7c0,2,1.7,4,4.7,4c2.5,0,3.8-1.5,3.9-1.6c0,0.4,0.1,0.9,0.1,1.3c0.3,0,2.6,0,3.4,0c-0.1-0.6-0.4-1.7,0-3.6
				c0.2-1,0.8-3.7,1.1-5.3c0.6-2.9-1-4.9-5.1-4.9c-5.2,0-6.7,3.8-7,4.3L92,67.1L92,67.1z"/>
			<path id="path25" d="M153.9,72.4c-0.1,0.3-0.9,1.4-2.7,1.4c-2.6,0-3.2-2.2-3.1-2.8c1.4,0,9.4,0,10.2,0c0.1-0.2,0.3-1.2,0.3-2.1
				c0-3.2-2.2-6.2-6.6-6.2c-4,0-7.2,3.4-7.2,7.4c0,3.9,2.3,6.6,6.5,6.6c5.1,0,6.5-4,6.6-4.4C156.8,72.4,153.9,72.4,153.9,72.4z
				 M151.9,65.8c2.2,0,3.1,1.4,3,2.5c-1.3,0-5.1,0-6.4,0C148.7,67.6,149.7,65.8,151.9,65.8z"/>
		</g>
		<g id="g27">
			<path id="path29" d="M44.2,56.9c0-0.8-0.5-1.9-2.7-1.9c-0.9,0-3.4,0-3.4,0l-1,4.4c0,0,1.8,0,3.5,0C43.4,59.4,44.2,58.1,44.2,56.9
				z"/>
			<path id="path31" d="M53.2,56.9c0-0.8-0.5-1.9-2.7-1.9c-0.9,0-3.4,0-3.4,0l-1,4.4c0,0,1.8,0,3.5,0C52.5,59.4,53.2,58.1,53.2,56.9
				z"/>
			<path id="path33" d="M43,63.5c0-0.8-0.5-1.9-2.7-1.9c-0.9,0-3.4,0-3.4,0L36,66c0,0,1.8,0,3.5,0C42.2,66,43,64.7,43,63.5z"/>
			<path id="path35" d="M52,63.5c0-0.8-0.5-1.9-2.7-1.9c-0.9,0-3.4,0-3.4,0L45,66c0,0,1.8,0,3.5,0C51.2,66,52,64.7,52,63.5z"/>
			<path id="path37" d="M61.5,60.8c0-0.8-0.5-1.9-2.7-1.9c-0.9,0-3.4,0-3.4,0l-1,4.4c0,0,1.8,0,3.5,0C60.7,63.3,61.5,62,61.5,60.8z"
				/>
			<path id="path39" d="M60.2,67.7c0-0.8-0.5-1.9-2.7-1.9c-0.9,0-3.4,0-3.4,0l-1,4.4c0,0,1.8,0,3.5,0C59.4,70.2,60.2,68.9,60.2,67.7
				z"/>
			<path id="path41" d="M50.7,70.4c0-0.9-0.5-1.9-2.7-1.9c-0.9,0-3.4,0-3.4,0l-1,4.4c0,0,1.8,0,3.5,0C49.9,72.9,50.7,71.6,50.7,70.4
				z"/>
		</g>
	</g>
	<rect id="rect43" x="33.2" y="48.9" class="st0" width="161" height="35.8"/>
</g>
</svg>
