<?xml version="1.0" encoding="utf-8"?>
<!-- Generator: Adobe Illustrator 15.1.0, SVG Export Plug-In . SVG Version: 6.00 Build 0)  -->
<svg version="1.2" baseProfile="tiny" id="Layer_1" xmlns="http://www.w3.org/2000/svg" xmlns:xlink="http://www.w3.org/1999/xlink"
	 x="0px" y="0px" width="217.297px" height="114.61px" viewBox="0 0 217.297 114.61" xml:space="preserve">
<g>
	<path fill="#C81A1A" d="M91.586,90.073l-0.025,5.97l0.437,0.075c1.37,0.256,2.753,0.434,4.144,0.533
		c1.217,0.112,2.441,0.136,3.663,0.071c1.167-0.085,2.32-0.303,3.437-0.648c1.311-0.372,2.527-1.02,3.565-1.901
		c0.935-0.799,1.649-1.823,2.076-2.977c0.744-1.932,0.729-4.072-0.04-5.993c-0.407-0.996-1.045-1.881-1.863-2.579
		c-0.792-0.713-1.721-1.255-2.731-1.591l-4.502-1.67c-0.538-0.229-0.976-0.646-1.23-1.172c-0.198-0.438-0.18-0.944,0.05-1.366
		c0.08-0.148,0.181-0.284,0.3-0.404c0.138-0.14,0.292-0.262,0.46-0.365c0.067-0.041,0.135-0.079,0.205-0.114
		c0.503-0.249,1.046-0.407,1.605-0.468c0.953-0.138,1.921-0.127,2.872,0.031c1.122,0.121,2.235,0.319,3.329,0.595l0.233,0.052
		v-5.508l-0.43-0.093c-1.117-0.267-2.247-0.468-3.386-0.603c-1.478-0.197-2.974-0.204-4.453-0.019
		c-1.874,0.171-3.656,0.888-5.127,2.061c-0.997,0.783-1.755,1.828-2.189,3.02c-0.654,1.813-0.656,3.798-0.005,5.611
		c0.336,0.902,0.875,1.715,1.575,2.376c0.606,0.585,1.292,1.082,2.038,1.477c0.98,0.526,2.021,0.936,3.098,1.217
		c0.356,0.105,0.709,0.219,1.062,0.337l0.533,0.196c0.051,0.02,0.102,0.04,0.153,0.062c0.525,0.188,1.006,0.484,1.41,0.87
		c0.28,0.263,0.497,0.586,0.631,0.946c0.083,0.329,0.084,0.673,0.003,1.002c-0.168,0.531-0.539,0.976-1.03,1.236
		c-0.537,0.278-1.118,0.461-1.717,0.537c-0.88,0.139-1.773,0.185-2.662,0.134c-1.166-0.088-2.325-0.242-3.473-0.464
		c-0.601-0.123-1.198-0.262-1.79-0.419L91.586,90.073"/>
	<path fill="#C81A1A" d="M67.108,95.826v-6.933l-0.136,0.061c-1.563,0.756-3.262,1.188-4.996,1.268
		c-1.802,0.142-3.593-0.387-5.03-1.482c-1.026-0.793-1.79-1.876-2.189-3.109c-0.441-1.345-0.493-2.787-0.147-4.159
		c0.32-1.403,1.106-2.656,2.23-3.556c0.996-0.833,2.213-1.358,3.503-1.511c2.28-0.253,4.583,0.18,6.617,1.242l0.149,0.076V70.75
		l-0.316-0.084c-2.036-0.654-4.173-0.934-6.309-0.825c-1.945,0.049-3.861,0.486-5.634,1.288c-1.79,0.819-3.368,2.039-4.613,3.564
		c-3.891,4.923-3.995,11.844-0.253,16.881c1.841,2.355,4.427,4.019,7.334,4.716c3.064,0.745,6.275,0.633,9.281-0.325L67.108,95.826"
		/>
	<polyline fill="#C81A1A" points="82.699,96.284 82.699,70.283 76.144,70.283 76.144,96.284 82.699,96.284 	"/>
	<polyline fill="#C81A1A" points="179.729,93.264 179.729,92.871 176.954,92.871 176.954,93.264 178.108,93.264 178.108,96.284 
		178.575,96.284 178.575,93.264 179.729,93.264 	"/>
	<polyline fill="#C81A1A" points="179.999,96.284 180.441,96.284 180.441,93.558 180.499,93.558 181.496,96.284 181.941,96.284 
		183.02,93.427 183.02,96.284 183.486,96.284 183.486,92.871 182.765,92.871 181.755,95.682 180.729,92.871 179.999,92.871 
		179.999,96.284 	"/>
	<path fill="#1D3A3E" d="M33.811,49.388c0.061,0.818,0.429,1.583,1.03,2.141c0.602,0.559,1.391,0.869,2.212,0.869
		c0.82,0,1.61-0.31,2.211-0.869c0.602-0.558,0.97-1.323,1.03-2.141v-7.206c-0.033-0.838-0.389-1.63-0.994-2.211
		c-0.604-0.581-1.41-0.905-2.248-0.905c-0.839,0-1.645,0.324-2.249,0.905s-0.96,1.373-0.993,2.211V49.388"/>
	<path fill="#1D3A3E" d="M51.758,49.388c0.061,0.818,0.429,1.583,1.03,2.141c0.601,0.559,1.391,0.869,2.212,0.869
		c0.82,0,1.61-0.31,2.211-0.869c0.602-0.558,0.97-1.323,1.03-2.141V33.233c-0.033-0.837-0.389-1.63-0.993-2.211
		s-1.41-0.905-2.249-0.905c-0.839,0-1.645,0.324-2.249,0.905c-0.604,0.581-0.96,1.374-0.993,2.211V49.388"/>
	<path fill="#1D3A3E" d="M69.61,55.894c0.061,0.818,0.429,1.583,1.03,2.141c0.601,0.558,1.391,0.868,2.212,0.868
		c0.82,0,1.61-0.31,2.211-0.868c0.601-0.558,0.969-1.323,1.03-2.141V20.95c-0.033-0.838-0.389-1.63-0.994-2.211
		s-1.41-0.906-2.248-0.906c-0.839,0-1.645,0.325-2.249,0.906s-0.96,1.373-0.993,2.211V55.894"/>
	<path fill="#1D3A3E" d="M87.556,49.388c0.061,0.818,0.429,1.583,1.03,2.141c0.601,0.559,1.391,0.869,2.211,0.869
		s1.61-0.31,2.212-0.869c0.601-0.558,0.969-1.323,1.03-2.141V33.233c-0.033-0.837-0.389-1.63-0.994-2.211s-1.41-0.905-2.249-0.905
		s-1.644,0.324-2.249,0.905s-0.96,1.374-0.993,2.211V49.388"/>
	<path fill="#1D3A3E" d="M105.421,49.388c0.061,0.818,0.429,1.583,1.031,2.141c0.601,0.559,1.391,0.869,2.211,0.869
		s1.61-0.31,2.212-0.869c0.602-0.558,0.97-1.323,1.03-2.141v-7.206c-0.033-0.838-0.389-1.63-0.994-2.211
		c-0.604-0.581-1.41-0.905-2.248-0.905c-0.838,0-1.644,0.324-2.249,0.905c-0.605,0.581-0.96,1.373-0.994,2.211V49.388"/>
	<path fill="#1D3A3E" d="M123.353,49.388c0.061,0.818,0.43,1.583,1.03,2.141c0.601,0.559,1.392,0.869,2.212,0.869
		c0.819,0,1.61-0.31,2.212-0.869c0.602-0.558,0.969-1.323,1.03-2.141V33.233c-0.033-0.837-0.39-1.63-0.994-2.211
		c-0.604-0.581-1.409-0.905-2.248-0.905s-1.646,0.324-2.249,0.905c-0.604,0.581-0.961,1.374-0.993,2.211V49.388"/>
	<path fill="#1D3A3E" d="M141.211,55.894c0.061,0.818,0.429,1.583,1.03,2.141c0.602,0.558,1.391,0.868,2.212,0.868
		c0.82,0,1.61-0.31,2.211-0.868c0.602-0.558,0.969-1.323,1.031-2.141V20.95c-0.034-0.838-0.391-1.63-0.994-2.211
		c-0.604-0.581-1.41-0.906-2.248-0.906c-0.839,0-1.645,0.325-2.25,0.906c-0.604,0.581-0.96,1.373-0.992,2.211V55.894"/>
	<path fill="#1D3A3E" d="M159.128,49.388c0.061,0.818,0.429,1.583,1.03,2.141c0.602,0.559,1.391,0.869,2.212,0.869
		c0.82,0,1.61-0.31,2.212-0.869c0.601-0.558,0.968-1.323,1.03-2.141V33.233c-0.034-0.837-0.391-1.63-0.994-2.211
		c-0.604-0.581-1.41-0.905-2.248-0.905c-0.84,0-1.646,0.324-2.25,0.905c-0.604,0.581-0.959,1.374-0.992,2.211V49.388"/>
	<path fill="#1D3A3E" d="M177.002,49.388c0.061,0.818,0.429,1.583,1.03,2.141c0.602,0.559,1.391,0.869,2.212,0.869
		c0.819,0,1.61-0.31,2.211-0.869c0.602-0.558,0.969-1.323,1.031-2.141v-7.206c-0.034-0.838-0.391-1.63-0.994-2.211
		c-0.604-0.581-1.41-0.905-2.248-0.905c-0.839,0-1.645,0.324-2.25,0.905c-0.604,0.581-0.96,1.373-0.992,2.211V49.388"/>
	<path fill="#C81A1A" d="M135.608,95.826v-6.933l-0.136,0.061c-1.563,0.756-3.263,1.188-4.996,1.268
		c-1.803,0.142-3.594-0.387-5.03-1.481c-1.026-0.794-1.789-1.877-2.19-3.11c-0.441-1.345-0.492-2.787-0.146-4.159
		c0.32-1.403,1.105-2.656,2.229-3.556c0.996-0.833,2.214-1.358,3.503-1.511c2.28-0.253,4.583,0.18,6.617,1.242l0.149,0.076V70.75
		l-0.315-0.084c-2.037-0.654-4.174-0.934-6.309-0.825c-1.945,0.049-3.861,0.486-5.635,1.287c-1.79,0.82-3.368,2.04-4.612,3.565
		c-3.891,4.923-3.995,11.844-0.253,16.881c1.842,2.355,4.427,4.019,7.334,4.716c3.065,0.745,6.276,0.633,9.28-0.325L135.608,95.826"
		/>
	<path fill="#C81A1A" d="M142.516,83.294c0.064,4.11,1.973,7.974,5.197,10.522c3.226,2.549,7.426,3.512,11.438,2.623
		c5.449-1.025,9.696-5.315,10.669-10.774c0.972-5.46-1.534-10.951-6.295-13.795c-4.203-2.602-9.479-2.749-13.822-0.388
		C145.361,73.844,142.618,78.352,142.516,83.294 M152.033,77.961c1.417-1.132,3.226-1.653,5.028-1.452
		c1.801,0.202,3.449,1.111,4.58,2.528c1.132,1.417,1.653,3.226,1.452,5.027c-0.202,1.802-1.111,3.45-2.528,4.582
		c-1.416,1.131-3.226,1.653-5.027,1.451c-1.801-0.202-3.449-1.111-4.581-2.528c-1.131-1.417-1.654-3.225-1.451-5.027
		C149.706,80.741,150.615,79.092,152.033,77.961"/>
</g>
</svg>
