<?xml version="1.0" encoding="utf-8"?>
<!-- Generator: Adobe Illustrator 15.1.0, SVG Export Plug-In . SVG Version: 6.00 Build 0)  -->
<svg version="1.2" baseProfile="tiny" id="Layer_1" xmlns="http://www.w3.org/2000/svg" xmlns:xlink="http://www.w3.org/1999/xlink"
	 x="0px" y="0px" width="100px" height="100px" viewBox="233.465 233.465 100 100" xml:space="preserve">
<g>
	<path fill="#C1272D" d="M242.115,305.67c-0.268-0.447-0.485-0.914-0.735-1.367l-3.669,1.313c0.36,0.684,0.694,1.375,1.098,2.043
		c4.777,7.945,11.883,13.928,20.322,17.328l0.941-3.783C252.63,318.078,246.36,312.729,242.115,305.67z"/>
	<rect x="266.417" y="284.992" fill="#C1272D" width="4.652" height="13.313"/>
	<path fill="#C1272D" d="M283.614,261.263c4.972,1.238,9.18,3.944,12.322,7.524c9.765-5.023,16.274-11.479,16.364-11.57l1.435-1.445
		c-6.292-7.866-14.904-13.464-24.855-15.941c-6.322-1.574-12.757-1.763-18.985-0.694l4.564,21.645
		C277.432,260.369,280.527,260.49,283.614,261.263z"/>
	<rect x="272.944" y="280.923" fill="#C1272D" width="4.652" height="17.381"/>
	<rect x="279.282" y="275.903" fill="#C1272D" width="4.652" height="22.175"/>
	<path fill="#C1272D" d="M271.848,325.209l-0.942,3.781c7.81,0.867,15.637-0.459,22.735-3.896c-0.896-1.016-1.755-2.043-2.555-3.086
		C285.035,324.752,278.447,325.848,271.848,325.209z"/>
	<rect x="259.89" y="291.768" fill="#C1272D" width="4.651" height="6.537"/>
	<path fill="#C1272D" d="M285.632,313.355c-0.57-1.105-1.093-2.215-1.583-3.324c-4.512,1.734-9.57,2.17-14.62,0.914
		c-13.108-3.264-21.092-16.537-17.828-29.646c2.157-8.662,8.694-15.06,16.655-17.48l-0.805-3.609l-3.042-13.625
		c-3.697,0.995-7.285,2.478-10.662,4.491l-0.014-0.019c-9.634,5.789-16.437,14.99-19.154,25.909
		c-1.573,6.316-1.621,12.758-0.299,18.94l3.671-1.313c-1.09-5.459-1.012-11.128,0.374-16.695
		c2.451-9.851,8.567-18.167,17.229-23.429l0.013,0.019c1.9-1.145,3.881-2.081,5.909-2.859l2.249,9.976
		c-7.564,3.435-13.556,10.133-15.713,18.802c-1.225,4.916-1.048,9.849,0.241,14.406l-13.028,4.643l1.3,3.637l13.037-4.646
		c3.14,7.186,9.219,12.979,17.124,15.529l-3.375,13.559l3.747,0.932l3.373-13.545C275.706,315.854,280.934,315.219,285.632,313.355z
		"/>
	<path fill="#C1272D" d="M327.999,292.904h-1.655v-8.813c0.005-4.104-1.588-7.959-4.488-10.861
		c-2.838-2.839-6.591-4.427-10.59-4.491c-0.07-0.008-0.122-0.019-0.211-0.01c-4.099,0-7.954,1.598-10.856,4.499
		c-2.903,2.903-4.5,6.761-4.5,10.863v8.813h-1.655c-3.019,0-5.467,2.445-5.467,5.465v16.275c0,3.018,2.449,5.465,5.467,5.465h33.956
		c3.02,0,5.466-2.447,5.466-5.465v-16.275C333.465,295.35,331.019,292.904,327.999,292.904z M314.759,304.68
		c0,1.217-0.593,2.289-1.494,2.971v3.867c0,1.24-1.004,2.242-2.242,2.242c-1.24,0-2.242-1.002-2.242-2.242v-3.867
		c-0.902-0.682-1.495-1.754-1.495-2.971v-1.691c0-2.063,1.674-3.734,3.737-3.734c2.064,0,3.736,1.672,3.736,3.734V304.68z
		 M321.861,292.904h-21.677v-8.813c-0.002-2.904,1.128-5.635,3.186-7.691c2.003-2.003,4.65-3.13,7.472-3.184
		c0.051,0.004,0.104,0.004,0.155,0.004c0.002,0,0.011,0,0.017,0c2.898,0,5.622,1.129,7.67,3.18c2.053,2.054,3.182,4.781,3.178,7.687
		V292.904L321.861,292.904z"/>
</g>
</svg>
