<?xml version="1.0" encoding="utf-8"?>
<!-- Generator: Adobe Illustrator 15.1.0, SVG Export Plug-In . SVG Version: 6.00 Build 0)  -->
<!DOCTYPE svg PUBLIC "-//W3C//DTD SVG 1.1//EN" "http://www.w3.org/Graphics/SVG/1.1/DTD/svg11.dtd">
<svg version="1.1" id="Layer_1" xmlns="http://www.w3.org/2000/svg" xmlns:xlink="http://www.w3.org/1999/xlink" x="0px" y="0px"
	 width="566.93px" height="566.93px" viewBox="0 0 566.93 566.93" enable-background="new 0 0 566.93 566.93" xml:space="preserve">
<g>
	<path fill="#FFFFFF" d="M122.38,358.371c-1.06-1.767-1.919-3.612-2.908-5.405l-14.506,5.19c1.423,2.702,2.745,5.44,4.34,8.076
		c18.888,31.419,46.985,55.071,80.352,68.521l3.721-14.959C163.955,407.436,139.165,386.282,122.38,358.371z"/>
	<path fill="#FFFFFF" d="M239.944,435.627l-3.723,14.954c30.88,3.425,61.827-1.816,89.892-15.404
		c-3.543-4.017-6.94-8.077-10.101-12.204C292.087,433.82,266.035,438.152,239.944,435.627z M262.67,260.526h-18.396v68.722h18.396
		V260.526z M307.282,98.042c-24.995-6.224-50.438-6.969-75.063-2.745l18.045,85.586c11.759-1.633,23.998-1.152,36.203,1.904
		c19.656,4.896,36.293,15.594,48.721,29.75c38.611-19.863,64.35-45.388,64.704-45.751l5.673-5.714
		C380.686,129.971,346.634,107.834,307.282,98.042z M211.055,329.248v-25.844h-18.391v25.844H211.055z M236.863,329.248v-52.634
		h-18.393v52.634H236.863z M294.449,388.762c-2.26-4.369-4.326-8.758-6.259-13.143c-17.841,6.853-37.844,8.579-57.81,3.61
		c-51.83-12.9-83.395-65.386-70.489-117.22c8.529-34.247,34.375-59.545,65.852-69.114l-3.184-14.272l-12.028-53.873
		c-14.619,3.936-28.804,9.797-42.156,17.758l-0.058-0.074c-38.093,22.891-64.992,59.272-75.736,102.443
		c-6.217,24.973-6.41,50.447-1.181,74.89l14.518-5.192c-4.313-21.584-4.004-43.999,1.477-66.012
		c9.692-38.949,33.875-71.83,68.123-92.637l0.052,0.074c7.511-4.528,15.344-8.227,23.365-11.306l8.889,39.444
		c-29.907,13.579-53.6,40.066-62.128,74.343c-4.844,19.433-4.144,38.94,0.953,56.958l-51.511,18.356l5.14,14.379l51.548-18.365
		c12.417,28.405,36.453,51.318,67.708,61.404l-13.341,53.606l14.812,3.684l13.335-53.561
		C255.198,398.642,275.87,396.132,294.449,388.762z M287.734,240.674h-18.396v87.677h18.396V240.674z"/>
	<path fill="#FFFFFF" d="M461.966,307.892h-6.544v-34.843c0.021-16.222-6.281-31.469-17.75-42.941
		c-11.218-11.225-26.058-17.503-41.868-17.757c-0.279-0.032-0.485-0.074-0.836-0.039c-16.207,0-31.453,6.317-42.925,17.789
		c-11.481,11.479-17.793,26.733-17.793,42.948v34.843h-6.546c-11.932,0-21.616,9.675-21.616,21.615v64.351
		c0,11.929,9.685,21.61,21.616,21.61h134.262c11.939,0,21.613-9.682,21.613-21.61v-64.351
		C483.579,317.566,473.906,307.892,461.966,307.892z M351.985,273.049c-0.008-11.48,4.461-22.278,12.595-30.408
		c7.92-7.919,18.39-12.376,29.543-12.589c0.203,0.015,0.412,0.015,0.615,0.015c0.008,0,0.04,0,0.064,0
		c11.458,0,22.23,4.465,30.328,12.574c8.117,8.122,12.582,18.903,12.565,30.393v34.858h-85.711V273.049z M409.614,354.452
		c0,4.814-2.344,9.051-5.908,11.752v15.292c0,4.902-3.97,8.864-8.863,8.864c-4.905,0-8.868-3.962-8.868-8.864v-15.292
		c-3.568-2.701-5.908-6.938-5.908-11.752v-6.682c0-8.154,6.614-14.771,14.776-14.771c8.158,0,14.771,6.616,14.771,14.771V354.452z"
		/>
</g>
</svg>
