<?xml version="1.0" encoding="utf-8"?>
<!-- Generator: Adobe Illustrator 15.1.0, SVG Export Plug-In . SVG Version: 6.00 Build 0)  -->
<svg version="1.2" baseProfile="tiny" id="Layer_1" xmlns="http://www.w3.org/2000/svg" xmlns:xlink="http://www.w3.org/1999/xlink"
	 x="0px" y="0px" width="100px" height="100px" viewBox="233.465 233.465 100 100" xml:space="preserve">
<g>
	<g>
		<g>
			<path fill="#C1272D" stroke="#C1272D" stroke-miterlimit="10" d="M276.058,326.308c-0.017,0-0.035-0.001-0.051-0.002
				c-0.513-0.026-0.907-0.466-0.88-0.979c0.007-0.125,0.67-12.676,0.034-16.026c-0.392-0.95-1.435-2.627-2.746-4.737
				c-4.352-7.003-11.635-18.723-12.137-30.441l-0.017-0.367c-0.02-0.45-0.024-0.582-0.05-2.095
				c-0.142-9.128,2.502-16.33,7.86-21.405c0.374-0.354,0.961-0.338,1.315,0.035c0.354,0.372,0.337,0.962-0.036,1.315
				c-4.963,4.703-7.411,11.44-7.279,20.025c0.023,1.476,0.028,1.603,0.048,2.043l0.015,0.37
				c0.483,11.231,7.605,22.689,11.859,29.535c1.452,2.337,2.5,4.023,2.927,5.115c0.02,0.051,0.035,0.103,0.046,0.153
				c0.711,3.46,0.046,16.046,0.017,16.58C276.959,325.922,276.55,326.308,276.058,326.308z"/>
			<path fill="#C1272D" stroke="#C1272D" stroke-miterlimit="10" d="M308.737,326.308c-0.513,0-0.929-0.417-0.929-0.93v-11.44
				c0-0.514,0.417-0.932,0.929-0.932h8.17c0.573-0.003,5.608-0.19,5.608-5.605c0-2.291-0.036-4.834-0.072-7.15
				c-0.115-8.017-0.115-8.017,0.567-8.376c0.046-0.024,0.092-0.045,0.141-0.059c0.688-0.231,1.77-0.197,3.017-0.162
				c0.573,0.017,1.147,0.035,1.64,0.02c0.17-0.021,0.982-0.311,1.388-0.964c0.315-0.505,0.334-1.157,0.059-1.944
				c-0.819-2.347-2.743-4.749-4.44-6.867c-1.727-2.155-3.09-3.856-3.225-5.317c-0.272-2.914-0.619-6.817-0.742-8.877
				c-0.947-15.903-13.005-20.941-22.954-22.367c-0.509-0.072-0.861-0.546-0.789-1.054s0.545-0.862,1.053-0.788
				c10.636,1.524,23.527,6.942,24.548,24.096c0.096,1.588,0.355,4.719,0.737,8.816c0.084,0.905,1.478,2.644,2.826,4.326
				c1.791,2.235,3.819,4.768,4.743,7.415c0.615,1.759,0.163,2.972-0.324,3.682c-0.851,1.236-2.295,1.688-2.822,1.701
				c-0.525,0.021-1.138,0-1.752-0.019c-0.584-0.018-1.319-0.037-1.839-0.01c-0.048,1.213-0.006,4.11,0.031,6.719
				c0.034,2.327,0.071,4.877,0.071,7.178c0,5.907-4.885,7.467-7.468,7.467h-7.239v10.511
				C309.668,325.891,309.251,326.308,308.737,326.308z M323.445,292.696h0.012H323.445z"/>
		</g>
	</g>
	<g>
		<g>
			<path fill="#C1272D" stroke="#C1272D" stroke-miterlimit="10" d="M258.426,326.308c-0.514,0-0.931-0.417-0.931-0.93v-10.511
				h-7.24c-2.581,0-7.465-1.56-7.465-7.467c0-2.301,0.036-4.851,0.069-7.177c0.039-2.609,0.08-5.507,0.034-6.72
				c-0.521-0.029-1.255-0.009-1.842,0.01c-0.611,0.019-1.225,0.036-1.752,0.019c-0.525-0.014-1.968-0.465-2.82-1.7
				c-0.487-0.711-0.938-1.923-0.325-3.682c0.925-2.648,2.954-5.181,4.745-7.416c1.348-1.682,2.74-3.42,2.825-4.325
				c0.381-4.099,0.643-7.229,0.737-8.817c0.461-7.743,3.419-13.796,8.79-17.987c11.889-9.279,31.244-6.154,31.434-6.119l1.11,0.153
				c11.158,1.08,19.389,11.07,18.303,22.268c-0.426,4.389-2.533,8.35-5.938,11.152c-3.403,2.802-7.69,4.109-12.084,3.687
				c-3.561-0.344-6.773-2.055-9.047-4.814c-2.274-2.762-3.337-6.243-2.993-9.805c0.579-5.982,5.903-10.382,11.899-9.799
				c4.888,0.474,8.48,4.835,8.008,9.723c-0.049,0.511-0.512,0.883-1.016,0.835c-0.512-0.048-0.887-0.504-0.836-1.015
				c0.373-3.866-2.469-7.316-6.335-7.691c-2.401-0.235-4.753,0.485-6.616,2.02c-1.864,1.535-3.018,3.704-3.249,6.106
				c-0.299,3.065,0.617,6.063,2.575,8.441c1.958,2.378,4.724,3.851,7.789,4.148c3.9,0.377,7.703-0.786,10.723-3.272
				c3.021-2.487,4.892-6.002,5.27-9.896c0.476-4.93-0.995-9.749-4.144-13.573c-3.147-3.822-7.598-6.191-12.526-6.667l-1.192-0.166
				c-0.225-0.041-18.92-2.888-29.988,5.75c-4.932,3.849-7.65,9.444-8.078,16.632c-0.124,2.06-0.472,5.964-0.742,8.877
				c-0.136,1.461-1.5,3.163-3.227,5.317c-1.696,2.117-3.621,4.52-4.44,6.865c-0.274,0.788-0.255,1.441,0.058,1.945
				c0.405,0.653,1.216,0.942,1.412,0.965c0.472,0.016,1.045-0.004,1.617-0.021c1.248-0.035,2.329-0.069,3.016,0.162
				c0.049,0.014,0.098,0.035,0.141,0.059c0.684,0.36,0.684,0.36,0.568,8.378c-0.035,2.315-0.071,4.858-0.071,7.148
				c0,5.543,5.377,5.606,5.605,5.606h8.171c0.514,0,0.931,0.417,0.931,0.931v11.441
				C259.356,325.891,258.939,326.308,258.426,326.308z"/>
		</g>
	</g>
</g>
</svg>
