<?xml version="1.0" encoding="utf-8"?>
<!-- Generator: Adobe Illustrator 15.1.0, SVG Export Plug-In . SVG Version: 6.00 Build 0)  -->
<svg version="1.2" baseProfile="tiny" id="Layer_1" xmlns="http://www.w3.org/2000/svg" xmlns:xlink="http://www.w3.org/1999/xlink"
	 x="0px" y="0px" width="100px" height="100px" viewBox="233.465 233.465 100 100" xml:space="preserve">
<g>
	<g>
		<path fill="#C1272D" d="M269.493,301.762L269.493,301.762l-10.511-0.002c-0.568,0-1.028-0.461-1.028-1.027
			c0-0.568,0.46-1.029,1.028-1.029l0,0l10.511,0.004c0.567,0,1.028,0.459,1.028,1.027
			C270.521,301.301,270.06,301.762,269.493,301.762z"/>
		<path fill="#C1272D" d="M320.597,300.898c-0.427,0-0.825-0.268-0.972-0.693c-0.185-0.537,0.1-1.121,0.637-1.307
			c6.069-2.09,10.146-7.809,10.146-14.23c0-8.197-6.417-14.801-14.61-15.036c-0.353-0.011-0.676-0.201-0.855-0.504
			c-0.18-0.303-0.19-0.677-0.03-0.992c1.432-2.8,2.158-5.811,2.158-8.95c0-10.844-8.82-19.665-19.664-19.665
			c-7.294,0-13.952,4.006-17.376,10.456c-0.145,0.274-0.407,0.468-0.712,0.527c-0.305,0.057-0.62-0.021-0.858-0.223
			c-3.26-2.746-7.404-4.259-11.671-4.259c-9.986,0-18.117,8.122-18.125,18.105c0,0.402-0.237,0.769-0.605,0.935
			c-6.489,2.931-10.683,9.419-10.683,16.532c0,6.699,3.672,12.826,9.582,15.99c0.5,0.266,0.689,0.889,0.421,1.391
			c-0.268,0.5-0.893,0.689-1.391,0.42c-6.581-3.521-10.668-10.343-10.668-17.801c0-7.701,4.413-14.743,11.299-18.126
			c0.356-10.812,9.271-19.502,20.17-19.502c4.339,0,8.565,1.406,12.03,3.979c3.928-6.495,10.94-10.48,18.587-10.48
			c11.978,0,21.721,9.744,21.721,21.721c0,2.956-0.582,5.808-1.734,8.501c8.566,0.997,15.072,8.181,15.072,16.98
			c0,7.301-4.635,13.799-11.533,16.174C320.821,300.881,320.708,300.898,320.597,300.898z"/>
		<path fill="#C1272D" d="M308.67,301.771L308.67,301.771l-10.052-0.002c-0.567,0-1.028-0.459-1.028-1.027s0.461-1.027,1.028-1.027
			l0,0l10.052,0.002c0.567,0,1.027,0.461,1.027,1.027C309.698,301.313,309.238,301.771,308.67,301.771z"/>
	</g>
	<g>
		<g>
			<path fill="#C1272D" d="M316.627,320.605c-2.898,0-5.256-2.357-5.256-5.254c0-2.898,2.357-5.256,5.256-5.256
				c2.896,0,5.254,2.357,5.254,5.256C321.881,318.248,319.523,320.605,316.627,320.605z M316.627,312.152
				c-1.765,0-3.199,1.434-3.199,3.199c0,1.762,1.435,3.197,3.199,3.197c1.763,0,3.197-1.436,3.197-3.197
				C319.824,313.586,318.39,312.152,316.627,312.152z"/>
			<path fill="#C1272D" d="M316.432,311.252c-0.566,0-1.027-0.459-1.027-1.027v-8.957l-7.467-4.084
				c-0.497-0.273-0.68-0.898-0.408-1.396c0.273-0.496,0.896-0.682,1.396-0.408l8,4.377c0.33,0.182,0.534,0.525,0.534,0.902v9.566
				C317.46,310.793,316.999,311.252,316.432,311.252z"/>
		</g>
		<g>
			<path fill="#C1272D" d="M251.158,320.605c-2.898,0-5.255-2.357-5.255-5.254c0-2.898,2.356-5.256,5.255-5.256
				c2.896,0,5.253,2.357,5.253,5.256C256.412,318.248,254.055,320.605,251.158,320.605z M251.158,312.152
				c-1.764,0-3.199,1.434-3.199,3.199c0,1.762,1.435,3.197,3.199,3.197c1.762,0,3.198-1.436,3.198-3.197
				C254.356,313.586,252.921,312.152,251.158,312.152z"/>
			<path fill="#C1272D" d="M251.379,311.252c-0.567,0-1.028-0.459-1.028-1.027v-9.566c0-0.377,0.205-0.721,0.534-0.902l8.002-4.377
				c0.501-0.271,1.123-0.088,1.396,0.408c0.271,0.498,0.09,1.123-0.408,1.396l-7.469,4.086v8.955
				C252.407,310.793,251.947,311.252,251.379,311.252z"/>
		</g>
		<g>
			<path fill="#C1272D" d="M283.828,329.354c-2.897,0-5.255-2.357-5.255-5.256c0-2.896,2.357-5.254,5.255-5.254
				s5.254,2.357,5.254,5.254C289.082,326.996,286.726,329.354,283.828,329.354z M283.828,320.9c-1.764,0-3.198,1.434-3.198,3.197
				c0,1.766,1.435,3.199,3.198,3.199s3.198-1.434,3.198-3.199C287.027,322.334,285.592,320.9,283.828,320.9z"/>
			<path fill="#C1272D" d="M283.937,320.848c-0.568,0-1.028-0.461-1.028-1.029v-21.576c0-0.568,0.46-1.027,1.028-1.027
				c0.567,0,1.027,0.459,1.027,1.027v21.576C284.964,320.387,284.504,320.848,283.937,320.848z"/>
		</g>
	</g>
</g>
<path fill="#C1272D" d="M295.911,274.693h-1.181v-6.281c0.004-2.925-1.132-5.673-3.2-7.741c-2.023-2.024-4.696-3.156-7.548-3.201
	c-0.05-0.006-0.087-0.014-0.15-0.008c-2.923,0-5.67,1.14-7.74,3.208c-2.067,2.069-3.207,4.819-3.206,7.743v6.281h-1.18
	c-2.152,0-3.896,1.744-3.896,3.896v11.6c0,2.152,1.744,3.896,3.896,3.896h24.205c2.151,0,3.896-1.744,3.896-3.896v-11.6
	C299.808,276.438,298.063,274.693,295.911,274.693z M276.083,268.413c-0.002-2.07,0.806-4.017,2.271-5.482
	c1.429-1.429,3.315-2.231,5.327-2.27c0.037,0.003,0.073,0.003,0.11,0.003c0.003,0,0.009,0,0.013,0c2.065,0,4.006,0.805,5.468,2.267
	c1.462,1.464,2.268,3.408,2.265,5.479v6.284h-15.453V268.413L276.083,268.413z M286.472,283.085c0,0.869-0.423,1.633-1.065,2.12
	v2.758c0,0.883-0.715,1.598-1.597,1.598c-0.884,0-1.599-0.715-1.599-1.598v-2.758c-0.643-0.486-1.065-1.25-1.065-2.12v-1.203
	c0-1.469,1.193-2.662,2.664-2.662c1.47,0,2.662,1.192,2.662,2.662V283.085z"/>
</svg>
