<?xml version="1.0" encoding="utf-8"?>
<!-- Generator: Adobe Illustrator 15.1.0, SVG Export Plug-In . SVG Version: 6.00 Build 0)  -->
<svg version="1.2" baseProfile="tiny" id="Layer_1" xmlns="http://www.w3.org/2000/svg" xmlns:xlink="http://www.w3.org/1999/xlink"
	 x="0px" y="0px" width="100px" height="100px" viewBox="233.465 233.465 100 100" xml:space="preserve">
<g>
	<g>
		<path fill="#C1272D" d="M284.257,250.164c-4.015,0-7.28-3.267-7.28-7.282c0-4.014,3.266-7.28,7.28-7.28
			c4.016,0,7.281,3.266,7.281,7.28C291.538,246.897,288.273,250.164,284.257,250.164z M284.257,237.37
			c-3.039,0-5.512,2.473-5.512,5.512c0,3.041,2.473,5.514,5.512,5.514c3.04,0,5.513-2.473,5.513-5.514
			C289.77,239.843,287.297,237.37,284.257,237.37z"/>
		<path fill="#C1272D" d="M249.017,270.527c-4.014,0-7.28-3.266-7.28-7.281c0-4.015,3.266-7.281,7.28-7.281
			c4.016,0,7.282,3.267,7.282,7.281C256.299,267.261,253.032,270.527,249.017,270.527z M249.017,257.733
			c-3.039,0-5.512,2.472-5.512,5.512c0,3.041,2.473,5.513,5.512,5.513c3.041,0,5.514-2.472,5.514-5.513
			C254.531,260.206,252.058,257.733,249.017,257.733z"/>
		<path fill="#C1272D" d="M249.325,311.127c-4.014,0-7.281-3.266-7.281-7.28c0-4.016,3.267-7.283,7.281-7.283
			c4.016,0,7.282,3.268,7.282,7.283C256.608,307.861,253.341,311.127,249.325,311.127z M249.325,298.331
			c-3.04,0-5.512,2.474-5.512,5.516c0,3.039,2.472,5.511,5.512,5.511c3.041,0,5.514-2.472,5.514-5.511
			C254.839,300.805,252.366,298.331,249.325,298.331z"/>
		<path fill="#C1272D" d="M284.257,331.465c-4.015,0-7.28-3.265-7.28-7.28s3.266-7.28,7.28-7.28c4.016,0,7.281,3.265,7.281,7.28
			S288.273,331.465,284.257,331.465z M284.257,318.671c-3.039,0-5.512,2.476-5.512,5.514c0,3.039,2.473,5.512,5.512,5.512
			c3.04,0,5.513-2.473,5.513-5.512S287.297,318.671,284.257,318.671z"/>
		<path fill="#C1272D" d="M319.248,311.127c-4.015,0-7.28-3.266-7.28-7.28c0-4.016,3.266-7.283,7.28-7.283
			c4.017,0,7.282,3.268,7.282,7.283C326.531,307.861,323.265,311.127,319.248,311.127z M319.248,298.331
			c-3.038,0-5.512,2.474-5.512,5.516c0,3.039,2.474,5.511,5.512,5.511c3.04,0,5.514-2.472,5.514-5.511
			C324.762,300.805,322.288,298.331,319.248,298.331z"/>
		<path fill="#C1272D" d="M319.3,270.527c-4.014,0-7.281-3.266-7.281-7.281c0-4.015,3.268-7.281,7.281-7.281
			c4.016,0,7.282,3.267,7.282,7.281C326.582,267.261,323.316,270.527,319.3,270.527z M319.3,257.733
			c-3.04,0-5.513,2.472-5.513,5.512c0,3.041,2.473,5.513,5.513,5.513s5.514-2.472,5.514-5.513
			C324.814,260.206,322.34,257.733,319.3,257.733z"/>
		<path fill="#C1272D" d="M249.162,298.152c-0.488,0-0.884-0.396-0.884-0.885v-27.506c0-0.488,0.396-0.884,0.884-0.884
			s0.884,0.395,0.884,0.884v27.506C250.046,297.756,249.651,298.152,249.162,298.152z"/>
		<path fill="#C1272D" d="M278.404,321.692c-0.15,0-0.302-0.039-0.442-0.119l-23.53-13.585c-0.422-0.244-0.566-0.784-0.322-1.206
			c0.245-0.424,0.785-0.569,1.207-0.324l23.53,13.584c0.424,0.244,0.567,0.785,0.323,1.208
			C279.006,321.534,278.708,321.692,278.404,321.692z"/>
		<path fill="#C1272D" d="M289.875,322.013c-0.307,0-0.604-0.159-0.768-0.443c-0.243-0.424-0.096-0.966,0.326-1.207l23.669-13.547
			c0.423-0.241,0.964-0.096,1.207,0.328c0.242,0.424,0.096,0.965-0.329,1.206l-23.666,13.547
			C290.175,321.976,290.025,322.013,289.875,322.013z"/>
		<path fill="#C1272D" d="M319.674,298.053c-0.487,0-0.883-0.396-0.883-0.884v-27.408c0-0.488,0.396-0.884,0.883-0.884
			c0.488,0,0.886,0.395,0.886,0.884v27.408C320.56,297.657,320.162,298.053,319.674,298.053z"/>
		<path fill="#C1272D" d="M313.842,260.732c-0.151,0-0.303-0.038-0.441-0.118L289.39,246.75c-0.423-0.244-0.566-0.786-0.322-1.208
			c0.243-0.424,0.783-0.567,1.206-0.324l24.01,13.864c0.424,0.244,0.568,0.784,0.324,1.207
			C314.444,260.574,314.146,260.732,313.842,260.732z"/>
		<path fill="#C1272D" d="M254.849,260.816c-0.306,0-0.603-0.158-0.767-0.443c-0.245-0.422-0.099-0.963,0.323-1.208l23.816-13.75
			c0.424-0.244,0.965-0.1,1.208,0.324c0.245,0.422,0.099,0.964-0.324,1.208l-23.816,13.751
			C255.151,260.777,254.999,260.816,254.849,260.816z"/>
		<path fill="#C1272D" d="M283.972,262.49c-0.489,0-0.885-0.396-0.885-0.884v-12.282c0-0.488,0.396-0.885,0.885-0.885
			c0.487,0,0.884,0.397,0.884,0.885v12.282C284.856,262.094,284.459,262.49,283.972,262.49z"/>
		<path fill="#C1272D" d="M259.904,274.279c-0.228,0-0.456-0.088-0.628-0.262l-5.719-5.768c-0.344-0.348-0.342-0.907,0.005-1.25
			c0.346-0.344,0.907-0.341,1.25,0.004l5.718,5.771c0.345,0.345,0.342,0.906-0.006,1.25
			C260.352,274.194,260.128,274.279,259.904,274.279z"/>
		<path fill="#C1272D" d="M308.413,274.279c-0.225,0-0.45-0.085-0.623-0.255c-0.347-0.344-0.349-0.905-0.004-1.25l5.718-5.771
			c0.344-0.346,0.904-0.349,1.25-0.004c0.348,0.343,0.35,0.902,0.005,1.25l-5.718,5.768
			C308.868,274.191,308.641,274.279,308.413,274.279z"/>
		<path fill="#C1272D" d="M254.757,301.173c-0.226,0-0.452-0.087-0.625-0.259c-0.345-0.345-0.345-0.904,0-1.251l6.781-6.78
			c0.345-0.345,0.904-0.345,1.25,0c0.345,0.346,0.345,0.904,0,1.25l-6.781,6.781C255.21,301.086,254.983,301.173,254.757,301.173z"
			/>
		<path fill="#C1272D" d="M314.181,300.559c-0.211,0-0.42-0.074-0.588-0.225l-6.486-6.291c-0.365-0.325-0.397-0.884-0.073-1.248
			s0.884-0.398,1.25-0.073l6.486,6.292c0.363,0.325,0.396,0.884,0.071,1.25C314.667,300.459,314.423,300.559,314.181,300.559z"/>
		<path fill="#C1272D" d="M283.972,318.341c-0.489,0-0.885-0.396-0.885-0.885v-12.283c0-0.488,0.396-0.884,0.885-0.884
			c0.487,0,0.884,0.396,0.884,0.884v12.283C284.856,317.945,284.459,318.341,283.972,318.341z"/>
	</g>
	<path fill="#C1272D" d="M284.492,266.221c-9.383,0-17.018,7.634-17.018,17.019c0,9.384,7.635,17.019,17.018,17.019
		c9.386,0,17.02-7.635,17.02-17.019C301.512,273.855,293.878,266.221,284.492,266.221z M298.749,282.672h-4.981
		c-0.05-2.239-0.373-4.342-0.942-6.275c1.166-0.441,2.231-0.973,3.161-1.592C297.622,277.024,298.632,279.793,298.749,282.672z
		 M295.985,291.65c-0.93-0.618-1.994-1.171-3.159-1.612c0.538-1.827,0.856-3.688,0.931-5.927h4.974
		C298.546,286.988,297.554,289.521,295.985,291.65z M270.257,284.111h4.974c0.075,2.238,0.393,4.115,0.932,5.941
		c-1.157,0.445-2.215,0.969-3.145,1.599C271.439,289.519,270.441,286.988,270.257,284.111z M273.015,274.782
		c0.932,0.63,1.988,1.177,3.146,1.621c-0.569,1.932-0.892,4.03-0.94,6.269h-4.983C270.356,279.793,271.37,277.005,273.015,274.782z
		 M284.948,277.823c2.397-0.049,4.434-0.372,6.373-0.941c0.519,1.777,0.871,3.711,0.917,5.791h-7.291L284.948,277.823
		L284.948,277.823z M284.948,276.294v-6.932c1.918,0.238,3.524,1.591,4.85,3.878c0.393,0.675,0.712,1.408,1.011,2.188
		C289.026,275.947,287.186,276.248,284.948,276.294z M283.508,269.434v6.849c-1.918-0.075-3.756-0.372-5.423-0.861
		c0.299-0.777,0.638-1.507,1.029-2.18C280.342,271.123,281.909,269.807,283.508,269.434z M283.508,277.812v4.86h-6.76
		c0.047-2.08,0.33-4.007,0.848-5.783C279.408,277.426,281.43,277.738,283.508,277.812z M276.76,284.111h6.749v4.56
		c-2.078,0.075-4.099,0.357-5.912,0.894C277.11,287.893,276.831,286.189,276.76,284.111z M283.508,290.202v6.844
		c-1.598-0.374-3.16-1.69-4.389-3.808c-0.39-0.672-0.741-1.4-1.04-2.176C279.747,290.574,281.59,290.275,283.508,290.202z
		 M284.948,297.116v-6.927c2.237,0.047,4.104,0.348,5.888,0.865c-0.299,0.777-0.674,1.51-1.065,2.184
		C288.445,295.525,286.866,296.878,284.948,297.116z M284.948,288.661v-4.551h7.279c-0.072,2.079-0.42,3.789-0.907,5.462
		C289.379,289.002,287.346,288.71,284.948,288.661z M295.012,273.608c-0.79,0.513-1.689,0.96-2.67,1.336
		c-0.334-0.88-0.723-1.708-1.166-2.47c-0.645-1.114-1.378-2.043-2.171-2.772C291.33,270.479,293.391,271.839,295.012,273.608z
		 M279.982,269.702c-0.794,0.729-1.525,1.658-2.172,2.772c-0.44,0.758-0.826,1.583-1.16,2.458c-0.976-0.379-1.871-0.829-2.657-1.343
		C275.612,271.829,277.665,270.477,279.982,269.702z M273.995,292.894c0.787-0.515,1.681-0.965,2.656-1.343
		c0.333,0.874,0.719,1.696,1.158,2.454c0.646,1.115,1.378,2.043,2.172,2.772C277.666,296.003,275.614,294.651,273.995,292.894z
		 M289.005,296.777c0.793-0.729,1.526-1.657,2.171-2.772c0.442-0.761,0.83-1.588,1.164-2.467c0.98,0.377,1.879,0.825,2.669,1.337
		C293.388,294.642,291.329,296,289.005,296.777z"/>
</g>
</svg>
