<?xml version="1.0" encoding="utf-8"?>
<!-- Generator: Adobe Illustrator 15.1.0, SVG Export Plug-In . SVG Version: 6.00 Build 0)  -->
<svg version="1.2" baseProfile="tiny" id="Layer_1" xmlns="http://www.w3.org/2000/svg" xmlns:xlink="http://www.w3.org/1999/xlink"
	 x="0px" y="0px" width="217.297px" height="114.609px" viewBox="0 0 217.297 114.609" xml:space="preserve">
<g>
	<path fill="#020202" d="M8.28,58.317c0,0.736,0.597,1.333,1.333,1.333h16.453c1.028,0,1.861-0.834,1.861-1.862
		s-0.833-1.861-1.861-1.861L9.449,55.934c-0.646,0-1.169-0.523-1.169-1.168V58.317L8.28,58.317z"/>
	<path fill="#020202" d="M2.169,49.31c0-0.87,0.706-1.576,1.577-1.576l22.892-0.004c0.85,0,1.539,0.688,1.539,1.539v4.108
		c0-0.745-0.604-1.349-1.349-1.349L7.776,52.026c-0.736,0-1.326,0.599-1.326,1.335l0.003,12.104c0,0.746,0.603,1.349,1.348,1.349
		l-4.098,0.001c-0.851,0-1.54-0.689-1.54-1.539L2.169,49.31L2.169,49.31z"/>
	<path fill="#020202" d="M125.672,65.465c0,0.746,0.604,1.35,1.349,1.35h-4.098c-0.851,0-1.539-0.689-1.539-1.539l0.009-16.191
		c0-0.745-0.603-1.349-1.348-1.349h4.097c0.851,0,1.539,0.69,1.539,1.54L125.672,65.465L125.672,65.465z"/>
	<path fill="#020202" d="M93.985,52.039c-0.935,0-1.693-0.757-1.693-1.693V49.44c0-0.935,0.758-1.706,1.693-1.706l22.438-0.004
		c0.85,0,1.54,0.688,1.54,1.539v4.108c0-0.745-0.604-1.349-1.35-1.349l-12.849-0.003c-0.736,0-1.326,0.599-1.326,1.335l0.003,12.104
		c0,0.746,0.604,1.349,1.349,1.349l-4.098,0.001c-0.851,0-1.54-0.689-1.54-1.539l0.005-13.237L93.985,52.039L93.985,52.039
		L93.985,52.039z"/>
	<path fill="#020202" d="M89.255,62.621l-0.003,2.834c0,0.745,0.604,1.348,1.35,1.348l-4.098,0.001c-0.85,0-1.54-0.689-1.54-1.54
		l0.006-5.626L70.798,59.65c-0.736,0-1.333-0.597-1.333-1.333v-3.55c0,0.645,0.522,1.168,1.168,1.168l14.493-0.007v-3.909
		L68.96,52.026c-0.737,0-1.326,0.599-1.326,1.335l0.002,12.104c0,0.746,0.604,1.35,1.349,1.35h-4.097
		c-0.851,0-1.54-0.689-1.54-1.539l0.005-15.965c0-0.87,0.706-1.576,1.576-1.576l22.892-0.004c0.85,0,1.54,0.688,1.54,1.539v2.13
		l0.013,5.167c0,1.729-1.515,3.031-3.243,3.031C87.858,59.598,89.255,60.894,89.255,62.621L89.255,62.621z"/>
	<polygon fill="#E63027" points="31.994,59.795 31.994,54.756 39.416,54.756 39.416,59.795 	"/>
	<path fill="#020202" d="M152.004,52.039l-0.003,13.236c0,0.851,0.689,1.539,1.54,1.539h4.099c-0.747,0-1.35-0.604-1.35-1.35
		l-0.006-16.142c0-0.871-0.707-1.576-1.576-1.576H131.85c-0.871,0-1.578,0.706-1.578,1.576l-0.003,15.952
		c0,0.851,0.688,1.539,1.538,1.539h4.099c-0.745,0-1.35-0.604-1.35-1.35l0.008-12.109c0-0.736,0.6-1.326,1.336-1.326L152.004,52.039
		L152.004,52.039z"/>
	<polygon fill="#E63027" points="48.825,47.747 48.825,52.787 41.384,52.787 41.384,47.747 	"/>
	<polygon fill="#E63027" points="48.825,61.764 48.825,66.803 41.384,66.803 41.384,61.764 	"/>
	<polygon fill="#E63027" points="50.794,59.795 50.794,54.756 58.215,54.756 58.215,59.795 	"/>
	<path fill="#E63027" d="M39.416,47.747v5.04h-7.422v-0.65c0-2.435,1.974-4.409,4.41-4.409L39.416,47.747L39.416,47.747z"/>
	<path fill="#E63027" d="M50.794,47.747v5.04h7.421v-0.65c0-2.435-1.974-4.409-4.41-4.409L50.794,47.747L50.794,47.747z"/>
	<path fill="#E63027" d="M39.416,66.784v-5.041h-7.422v0.649c0,2.436,1.974,4.41,4.41,4.41L39.416,66.784L39.416,66.784z"/>
	<path fill="#E63027" d="M50.794,66.784v-5.041h7.421v0.649c0,2.436-1.974,4.41-4.41,4.41L50.794,66.784L50.794,66.784z"/>
	<path fill="#020202" d="M191.154,52.039c-0.935,0-1.692-0.757-1.692-1.693V49.44c0-0.935,0.758-1.706,1.692-1.706l22.439-0.004
		c0.851,0,1.539,0.688,1.539,1.539v4.108c0-0.745-0.604-1.349-1.349-1.349l-12.848-0.003c-0.738,0-1.326,0.599-1.326,1.335
		l0.001,12.104c0,0.746,0.604,1.349,1.35,1.349l-4.099,0.001c-0.851,0-1.537-0.689-1.537-1.539l0.004-13.237L191.154,52.039
		L191.154,52.039L191.154,52.039z"/>
	<path fill="#020202" d="M166.557,58.317c0,0.736,0.598,1.333,1.332,1.333h14.633c1.028,0,1.862-0.834,1.862-1.862
		s-0.834-1.861-1.862-1.861l-14.797,0.007c-0.646,0-1.168-0.523-1.168-1.168V58.317L166.557,58.317z"/>
	<path fill="#020202" d="M166.06,52.052c-0.736,0-1.336,0.589-1.336,1.325l0.004,9.167l20.376,0.019c0.745,0,1.35-0.604,1.35-1.349
		v4.062c0,0.851-0.69,1.538-1.539,1.538l-22.893-0.004c-0.87,0-1.576-0.706-1.576-1.576V49.31c0-0.87,0.706-1.576,1.576-1.576
		l22.893-0.004c0.849,0,1.539,0.688,1.539,1.539v4.121c0-0.745-0.604-1.349-1.35-1.349L166.06,52.052L166.06,52.052z"/>
	<path fill="#020202" d="M210.947,64.717c0-1.029,0.834-1.863,1.863-1.863c1.028,0,1.862,0.834,1.862,1.863
		c0,1.027-0.834,1.861-1.862,1.861C211.781,66.578,210.947,65.744,210.947,64.717L210.947,64.717z M210.645,64.717
		c0-1.196,0.969-2.166,2.166-2.166c1.195,0,2.164,0.97,2.164,2.166s-0.969,2.165-2.164,2.165
		C211.613,66.882,210.645,65.913,210.645,64.717L210.645,64.717z M212.558,63.733v0.816h0.184c0.164,0,0.247-0.141,0.247-0.421
		c0-0.097-0.012-0.175-0.037-0.237c-0.023-0.062-0.052-0.104-0.084-0.126c-0.033-0.022-0.079-0.032-0.143-0.032H212.558
		L212.558,63.733z M212.138,63.261h0.602c0.115,0,0.206,0.008,0.269,0.024c0.062,0.016,0.124,0.061,0.188,0.132
		c0.064,0.072,0.114,0.17,0.148,0.294c0.037,0.125,0.055,0.265,0.055,0.42c0,0.364-0.089,0.62-0.268,0.768l0.351,1.273h-0.455
		l-0.256-1.151h-0.213v1.151h-0.42V63.261L212.138,63.261z"/>
</g>
</svg>
