<?xml version="1.0" encoding="utf-8"?>
<!-- Generator: Adobe Illustrator 15.1.0, SVG Export Plug-In . SVG Version: 6.00 Build 0)  -->
<!DOCTYPE svg PUBLIC "-//W3C//DTD SVG 1.1//EN" "http://www.w3.org/Graphics/SVG/1.1/DTD/svg11.dtd">
<svg version="1.1" id="Ñëîé_1" xmlns="http://www.w3.org/2000/svg" xmlns:xlink="http://www.w3.org/1999/xlink" x="0px" y="0px"
	 width="199.171px" height="199.17px" viewBox="0 0 199.171 199.17" enable-background="new 0 0 199.171 199.17"
	 xml:space="preserve">
<g>
	
		<image overflow="visible" enable-background="new    " width="875" height="1704" xlink:href="DDA5C9C6.png"  transform="matrix(0.2395 0 0 0.2399 -104.686 -486)">
	</image>
	<circle fill="#BE1E2D" cx="-5.101" cy="-388.904" r="67.22"/>
	<g>
		<path fill="#BE1E2D" d="M-5.101-311.726c-32.979,0-61.122-20.688-72.173-49.792h-27.412v273.859h199.17v-273.859H67.071
			C56.021-332.415,27.879-311.726-5.101-311.726z"/>
		<path fill="#BE1E2D" d="M-104.686-486v79.668h24.382c7.9-34.231,38.571-59.751,75.203-59.751c36.631,0,67.302,25.52,75.202,59.751
			h24.383V-486H-104.686z"/>
	</g>
</g>
<g>
	<circle fill="#353534" cx="99.585" cy="97.096" r="67.22"/>
	<g>
		<path fill="#353534" d="M99.584,174.274c-32.979,0-61.122-20.688-72.172-49.793H0v273.859h199.169V124.481h-27.412
			C160.708,153.585,132.564,174.274,99.584,174.274z"/>
		<path fill="#353534" d="M0,0v79.668h24.383c7.9-34.231,38.571-59.751,75.202-59.751c36.631,0,67.304,25.52,75.204,59.751h24.383V0
			H0z"/>
	</g>
</g>
<g>
	
		<image overflow="visible" enable-background="new    " width="875" height="1704" xlink:href="DDA5C9CA.png"  transform="matrix(0.2395 0 0 0.2399 438.6587 -0.002)">
	</image>
	<circle fill="#AAAAA8" cx="538.244" cy="97.096" r="67.22"/>
	<g>
		<path fill="#AAAAA8" d="M538.244,174.274c-32.979,0-61.123-20.688-72.172-49.793h-27.414v273.859h199.17V124.481h-27.411
			C599.365,153.585,571.225,174.274,538.244,174.274z"/>
		<path fill="#AAAAA8" d="M438.658,0v79.668h24.383c7.9-34.231,38.572-59.751,75.203-59.751c36.632,0,67.304,25.52,75.203,59.751
			h24.381V0H438.658z"/>
	</g>
</g>
<g>
	
		<image overflow="visible" enable-background="new    " width="879" height="1704" xlink:href="DDA5C9CD.png"  transform="matrix(0.2384 0 0 0.2399 659.8618 -0.002)">
	</image>
	<circle fill="#233A3D" cx="759.447" cy="97.096" r="67.22"/>
	<g>
		<path fill="#233A3D" d="M759.447,174.274c-32.979,0-61.123-20.688-72.172-49.793h-27.414v273.859h199.17V124.481h-27.412
			C820.568,153.585,792.428,174.274,759.447,174.274z"/>
		<path fill="#233A3D" d="M659.861,0v79.668h24.383c7.9-34.231,38.572-59.751,75.203-59.751s67.304,25.52,75.203,59.751h24.381V0
			H659.861z"/>
	</g>
</g>
<text transform="matrix(1 0 0 1 39.9048 191.9707)" fill="#FFFFFF" font-family="'Arial-BoldMT'" font-size="15">Detecting threats</text>
<text transform="matrix(1 0 0 1 489.2339 209.7969)" fill="#FFFFFF" font-family="'Arial-BoldMT'" font-size="15">V</text>
<text transform="matrix(1 0 0 1 498.6831 209.7969)" fill="#FFFFFF" font-family="'Arial-BoldMT'" font-size="15">u</text>
<text transform="matrix(1 0 0 1 507.8452 209.7969)" fill="#FFFFFF" font-family="'Arial-BoldMT'" font-size="15">l</text>
<text transform="matrix(1 0 0 1 512.0132 209.7969)" fill="#FFFFFF" font-family="'Arial-BoldMT'" font-size="15">n</text>
<text transform="matrix(1 0 0 1 521.1753 209.7969)" fill="#FFFFFF" font-family="'Arial-BoldMT'" font-size="15">e</text>
<text transform="matrix(1 0 0 1 529.5171 209.7969)" fill="#FFFFFF" font-family="'Arial-BoldMT'" font-size="15">r</text>
<text transform="matrix(1 0 0 1 535.355 209.7969)" fill="#FFFFFF" font-family="'Arial-BoldMT'" font-size="15">a</text>
<text transform="matrix(1 0 0 1 543.6968 209.7969)" fill="#FFFFFF" font-family="'Arial-BoldMT'" font-size="15">b</text>
<text transform="matrix(1 0 0 1 552.8589 209.7969)" fill="#FFFFFF" font-family="'Arial-BoldMT'" font-size="15">i</text>
<text transform="matrix(1 0 0 1 557.0269 209.7969)" fill="#FFFFFF" font-family="'Arial-BoldMT'" font-size="15">l</text>
<text transform="matrix(1 0 0 1 561.1948 209.7969)" fill="#FFFFFF" font-family="'Arial-BoldMT'" font-size="15">i</text>
<text transform="matrix(1 0 0 1 565.3628 209.7969)" fill="#FFFFFF" font-family="'Arial-BoldMT'" font-size="15">t</text>
<text transform="matrix(1 0 0 1 570.3569 209.7969)" fill="#FFFFFF" font-family="'Arial-BoldMT'" font-size="15">i</text>
<text transform="matrix(1 0 0 1 574.5249 209.7969)" fill="#FFFFFF" font-family="'Arial-BoldMT'" font-size="15">e</text>
<text transform="matrix(1 0 0 1 582.8667 209.7969)" fill="#FFFFFF" font-family="'Arial-BoldMT'" font-size="15">s</text>
<text transform="matrix(1 0 0 1 716.2339 209.7969)" fill="#FFFFFF" font-family="'Arial-BoldMT'" font-size="15">Adaptations</text>
<text transform="matrix(1 0 0 1 -59.4512 -285.2012)" fill="#FFFFFF" font-family="'Arial-BoldMT'" font-size="15">Understanding </text>
<text transform="matrix(1 0 0 1 -59.4512 -267.2012)" fill="#FFFFFF" font-family="'Arial-BoldMT'" font-size="15">where you are</text>
<rect x="-90.451" y="-249.201" fill="none" width="171" height="99"/>
<text transform="matrix(1 0 0 1 -90.4512 -239.8945)" fill="#FFFFFF" font-family="'ArialMT'" font-size="13">What are the threats and </text>
<text transform="matrix(1 0 0 1 -90.4512 -224.293)" fill="#FFFFFF" font-family="'ArialMT'" font-size="13">vulnerabilities you should </text>
<text transform="matrix(1 0 0 1 -90.4512 -208.6934)" fill="#FFFFFF" font-family="'ArialMT'" font-size="13">fear</text>
<text transform="matrix(1 0 0 1 -90.4512 -177.4941)" fill="#FFFFFF" font-family="'ArialMT'" font-size="13">How can you manage the </text>
<text transform="matrix(1 0 0 1 -90.4512 -161.8936)" fill="#FFFFFF" font-family="'ArialMT'" font-size="13">attacks?</text>
<rect x="16.905" y="236.798" fill="none" width="162.5" height="99"/>
<rect x="455.234" y="236.798" fill="none" width="171" height="144"/>
<text transform="matrix(1 0 0 1 455.2339 246.1064)" fill="#FFFFFF" font-family="'ArialMT'" font-size="13">Not enough measures in the </text>
<text transform="matrix(1 0 0 1 455.2339 261.707)" fill="#FFFFFF" font-family="'ArialMT'" font-size="13">current enviroment</text>
<text transform="matrix(1 0 0 1 455.2339 292.9063)" fill="#FFFFFF" font-family="'ArialMT'" font-size="13">No mechanisms to adapt to </text>
<text transform="matrix(1 0 0 1 455.2339 308.5059)" fill="#FFFFFF" font-family="'ArialMT'" font-size="13">change</text>
<text transform="matrix(1 0 0 1 455.2339 339.7061)" fill="#FFFFFF" font-family="'ArialMT'" font-size="13">Slow proactive approach to </text>
<text transform="matrix(1 0 0 1 455.2339 355.3066)" fill="#FFFFFF" font-family="'ArialMT'" font-size="13">neutralize sophisticated </text>
<text transform="matrix(1 0 0 1 455.2339 370.9063)" fill="#FFFFFF" font-family="'ArialMT'" font-size="13">cyber attacks</text>
<rect x="680.234" y="236.798" fill="none" width="171" height="117"/>
<text transform="matrix(1 0 0 1 680.2339 246.1064)" fill="#FFFFFF" font-family="'ArialMT'" font-size="13">What needs to be improved?</text>
<text transform="matrix(1 0 0 1 680.2339 277.3066)" fill="#FFFFFF" font-family="'ArialMT'" font-size="13">How to build defence</text>
<text transform="matrix(1 0 0 1 680.2339 308.5059)" fill="#FFFFFF" font-family="'ArialMT'" font-size="13">Designing the solution</text>
<path fill="#FFFFFF" d="M76.844,87.984h6.461l2.319,1.326c1.336,0.471,0.462,4.713,1.988,4.919v-6.245h6.46v6.245
	c1.525-0.207,1.149-4.448,2.486-4.919l1.821-1.326h6.46l2.652,1.326c1.365-1.581-0.498-3.677-0.498-5.633
	c0-5.947-7.231-10.768-16.153-10.768c-8.92,0-16.152,4.821-16.152,10.768c0,1.956-1.367,4.052,0,5.633L76.844,87.984z
	 M99.457,77.217c1.785,0,3.23,1.446,3.23,3.23c0,1.784-1.445,3.229-3.23,3.229c-1.784,0-3.23-1.446-3.23-3.229
	C96.226,78.663,97.672,77.217,99.457,77.217z M82.228,77.217c1.785,0,3.23,1.446,3.23,3.23c0,1.784-1.446,3.229-3.23,3.229
	s-3.23-1.446-3.23-3.229C78.998,78.663,80.444,77.217,82.228,77.217z"/>
<g>
	<path fill="#FFFFFF" d="M91.038,55.157c-15.691,0-28.412,12.721-28.412,28.413c0,15.692,12.721,28.414,28.412,28.414
		c15.692,0,28.413-12.721,28.413-28.414C119.451,67.878,106.73,55.157,91.038,55.157z M91.038,107.923
		c-13.45,0-24.354-10.904-24.354-24.354c0-13.45,10.904-24.354,24.354-24.354c13.45,0,24.354,10.904,24.354,24.354
		C115.393,97.02,104.488,107.923,91.038,107.923z"/>
	
		<rect x="119.883" y="95.891" transform="matrix(-0.689 0.7248 -0.7248 -0.689 288.649 104.4467)" fill="#FFFFFF" width="4.061" height="36.535"/>
</g>
<text transform="matrix(1 0 0 1 -29.6563 -362.6445)" fill="#FFFFFF" font-family="'ArialMT'" font-size="92.6969">?</text>
<g>
	<path fill="#FFFFFF" d="M790.479,89.713h-4.188c-0.687-3.045-1.875-5.912-3.546-8.555l2.964-2.963c0.645-0.645,0.645-1.691,0-2.335
		l-6.25-6.252c-0.312-0.31-0.73-0.485-1.17-0.485c-0.438,0-0.857,0.175-1.169,0.485l-2.961,2.963
		c-2.641-1.67-5.506-2.86-8.549-3.545v-4.188c0-0.912-0.74-1.651-1.651-1.651h-8.839c-0.911,0-1.649,0.739-1.649,1.651v4.189
		c-3.045,0.684-5.91,1.874-8.551,3.544l-2.964-2.963c-0.309-0.31-0.729-0.484-1.168-0.484c-0.438,0-0.856,0.174-1.168,0.484
		l-6.25,6.252c-0.645,0.646-0.645,1.69,0,2.335l2.963,2.963c-1.672,2.644-2.858,5.511-3.545,8.555h-4.188
		c-0.912,0-1.65,0.739-1.65,1.652v8.842c0,0.912,0.738,1.651,1.65,1.651h4.188c0.687,3.043,1.873,5.912,3.545,8.555l-2.963,2.963
		c-0.645,0.645-0.645,1.689,0,2.334l6.25,6.252c0.312,0.311,0.729,0.484,1.168,0.484c0.439,0,0.859-0.174,1.168-0.483L744.92,119
		c2.641,1.671,5.506,2.858,8.551,3.544v4.189c0,0.912,0.738,1.65,1.649,1.65h8.841c0.909,0,1.649-0.738,1.649-1.65v-4.189
		c3.043-0.686,5.91-1.874,8.549-3.544l2.964,2.963c0.309,0.31,0.729,0.483,1.168,0.483c0.438,0,0.856-0.174,1.168-0.483l6.252-6.253
		c0.643-0.645,0.643-1.689,0-2.334l-2.963-2.963c1.672-2.645,2.856-5.512,3.545-8.555h4.186c0.914,0,1.652-0.739,1.652-1.652v-8.842
		C792.131,90.453,791.391,89.713,790.479,89.713z M788.826,98.556h-3.891c-0.805,0-1.49,0.578-1.629,1.369
		c-0.607,3.53-1.967,6.809-4.035,9.746c-0.465,0.656-0.387,1.551,0.182,2.119l2.752,2.753l-3.913,3.917l-2.753-2.753
		c-0.565-0.567-1.463-0.646-2.118-0.183c-2.937,2.068-6.214,3.429-9.742,4.039c-0.791,0.138-1.369,0.824-1.369,1.627v3.893h-5.537
		v-3.893c0-0.803-0.578-1.49-1.369-1.627c-3.527-0.61-6.807-1.97-9.74-4.039c-0.653-0.463-1.553-0.387-2.121,0.183l-2.752,2.753
		l-3.909-3.917l2.75-2.754c0.563-0.567,0.645-1.462,0.184-2.118c-2.068-2.938-3.428-6.216-4.037-9.746
		c-0.137-0.792-0.824-1.371-1.627-1.371h-3.893v-5.539h3.893c0.803,0,1.49-0.578,1.627-1.371c0.607-3.529,1.969-6.808,4.037-9.746
		c0.463-0.656,0.385-1.55-0.184-2.118l-2.75-2.754l3.909-3.917l2.752,2.753c0.568,0.569,1.468,0.645,2.121,0.182
		c2.938-2.069,6.213-3.427,9.74-4.038c0.791-0.136,1.369-0.823,1.369-1.627v-3.892h5.537v3.892c0,0.804,0.578,1.491,1.369,1.627
		c3.528,0.611,6.809,1.969,9.742,4.038c0.655,0.463,1.551,0.386,2.118-0.182l2.753-2.754l3.916,3.917l-2.755,2.754
		c-0.565,0.568-0.645,1.462-0.182,2.118c2.068,2.937,3.428,6.216,4.037,9.746c0.137,0.793,0.824,1.371,1.627,1.371h3.891V98.556
		L788.826,98.556z"/>
	<path fill="#FFFFFF" d="M759.539,84.463c-6.239,0-11.317,5.079-11.317,11.323c0,6.242,5.078,11.322,11.317,11.322l0,0
		c6.242-0.002,11.32-5.08,11.32-11.322c0-3.024-1.18-5.868-3.313-8.006C765.406,85.642,762.563,84.463,759.539,84.463z
		 M759.539,103.806c-4.418,0-8.016-3.597-8.016-8.019c0-4.423,3.598-8.02,8.016-8.02c2.144,0,4.154,0.833,5.671,2.349
		c1.514,1.514,2.348,3.528,2.348,5.671C767.557,100.207,763.961,103.806,759.539,103.806z"/>
	<path fill="#FFFFFF" d="M750.178,81.219c0.281,0,0.563-0.072,0.826-0.224c0.059-0.034,0.116-0.068,0.176-0.101
		c0.795-0.447,1.078-1.453,0.629-2.248c-0.445-0.795-1.453-1.077-2.248-0.63c-0.072,0.041-0.145,0.081-0.217,0.123
		c-0.787,0.458-1.055,1.469-0.596,2.258C749.055,80.925,749.607,81.219,750.178,81.219z"/>
	<path fill="#FFFFFF" d="M772.738,84.959c0.326,0.4,0.799,0.606,1.279,0.606c0.367,0,0.738-0.123,1.043-0.373
		c0.707-0.578,0.811-1.619,0.229-2.324c-0.053-0.063-0.104-0.126-0.151-0.189c-0.588-0.698-1.629-0.79-2.328-0.204
		c-0.699,0.587-0.789,1.629-0.203,2.328C772.648,84.854,772.695,84.906,772.738,84.959z"/>
	<path fill="#FFFFFF" d="M741.383,90.933c0.186,0.069,0.375,0.1,0.563,0.1c0.674,0,1.312-0.416,1.553-1.086
		c0.023-0.064,0.05-0.128,0.07-0.191c0.324-0.853-0.104-1.807-0.957-2.13c-0.853-0.323-1.809,0.105-2.131,0.959
		c-0.031,0.077-0.059,0.155-0.088,0.232C740.082,89.675,740.523,90.622,741.383,90.933z"/>
	<path fill="#FFFFFF" d="M742.473,95.826v-0.04c0-0.069,0-0.139,0.002-0.208c0.012-0.912-0.719-1.659-1.631-1.67
		c-0.008,0-0.017,0-0.021,0c-0.897,0-1.639,0.728-1.646,1.633c-0.002,0.082-0.002,0.162-0.002,0.244v0.041
		c0,0.913,0.735,1.651,1.647,1.651S742.473,96.739,742.473,95.826z"/>
	<path fill="#FFFFFF" d="M756.279,78.993c0.094,0,0.189-0.007,0.285-0.024l0.207-0.035c0.9-0.149,1.51-0.999,1.361-1.899
		c-0.15-0.899-0.998-1.509-1.9-1.36l-0.234,0.04c-0.897,0.158-1.5,1.013-1.344,1.912C754.795,78.428,755.492,78.993,756.279,78.993z
		"/>
	<path fill="#FFFFFF" d="M775.576,89.933c0.023,0.063,0.045,0.125,0.068,0.188c0.236,0.681,0.875,1.107,1.559,1.107
		c0.181,0,0.363-0.03,0.543-0.092c0.861-0.3,1.316-1.242,1.019-2.104c-0.027-0.078-0.057-0.157-0.084-0.235
		c-0.313-0.856-1.264-1.297-2.119-0.984C775.705,88.128,775.264,89.076,775.576,89.933z"/>
	<path fill="#FFFFFF" d="M768.064,80.989c0.062,0.036,0.119,0.07,0.178,0.104c0.267,0.157,0.558,0.232,0.843,0.232
		c0.563,0,1.11-0.289,1.422-0.807c0.467-0.785,0.209-1.798-0.574-2.264c-0.07-0.042-0.144-0.084-0.215-0.125
		c-0.787-0.456-1.799-0.186-2.254,0.604C767.006,79.524,767.275,80.534,768.064,80.989z"/>
	<path fill="#FFFFFF" d="M743.51,101.659c-0.021-0.065-0.047-0.131-0.068-0.194c-0.303-0.858-1.246-1.312-2.104-1.007
		c-0.859,0.302-1.314,1.246-1.013,2.105c0.027,0.076,0.06,0.153,0.084,0.23c0.242,0.668,0.877,1.084,1.554,1.084
		c0.188,0,0.379-0.033,0.563-0.102C743.383,103.464,743.822,102.517,743.51,101.659z"/>
	<path fill="#FFFFFF" d="M762.498,78.965c0.066,0.011,0.134,0.023,0.197,0.036c0.104,0.019,0.207,0.028,0.312,0.028
		c0.776,0,1.471-0.551,1.619-1.344c0.172-0.896-0.419-1.76-1.314-1.93c-0.08-0.016-0.162-0.031-0.244-0.044
		c-0.9-0.158-1.754,0.445-1.912,1.343C760.998,77.953,761.6,78.808,762.498,78.965z"/>
	<path fill="#FFFFFF" d="M762.529,112.601c-0.063,0.012-0.133,0.023-0.197,0.034c-0.899,0.146-1.512,0.996-1.364,1.896
		c0.131,0.811,0.832,1.387,1.629,1.387c0.086,0,0.178-0.007,0.266-0.022c0.082-0.013,0.164-0.026,0.246-0.041
		c0.898-0.16,1.498-1.018,1.338-1.914C764.285,113.041,763.432,112.442,762.529,112.601z"/>
	<path fill="#FFFFFF" d="M777.705,100.621c-0.856-0.312-1.805,0.13-2.116,0.985c-0.023,0.065-0.047,0.129-0.068,0.191
		c-0.324,0.854,0.105,1.807,0.957,2.13c0.193,0.073,0.391,0.107,0.586,0.107c0.666,0,1.295-0.406,1.545-1.066
		c0.027-0.077,0.057-0.155,0.086-0.233C779.006,101.88,778.563,100.933,777.705,100.621z"/>
	<path fill="#FFFFFF" d="M774.955,106.539c-0.7-0.585-1.741-0.491-2.327,0.208c-0.043,0.052-0.089,0.104-0.13,0.154
		c-0.598,0.691-0.518,1.733,0.175,2.33c0.313,0.269,0.694,0.398,1.075,0.398c0.466,0,0.927-0.193,1.255-0.574
		c0.053-0.063,0.106-0.127,0.159-0.189C775.746,108.165,775.652,107.124,774.955,106.539z"/>
	<path fill="#FFFFFF" d="M778.256,94.125c-0.91,0-1.65,0.75-1.65,1.662v0.189c-0.01,0.912,0.723,1.659,1.637,1.666
		c0.002,0,0.013,0,0.019,0c0.901,0,1.643-0.729,1.647-1.635v-0.24C779.908,94.854,779.17,94.125,778.256,94.125z"/>
	<path fill="#FFFFFF" d="M746.355,106.628c-0.578-0.707-1.621-0.811-2.324-0.232c-0.707,0.578-0.811,1.619-0.231,2.324
		c0.053,0.063,0.104,0.127,0.16,0.191c0.323,0.388,0.793,0.587,1.262,0.587c0.377,0,0.756-0.127,1.063-0.39
		c0.697-0.586,0.787-1.629,0.199-2.326C746.439,106.731,746.398,106.681,746.355,106.628z"/>
	<path fill="#FFFFFF" d="M768.094,110.567l-0.183,0.104c-0.793,0.45-1.069,1.458-0.618,2.251c0.303,0.536,0.86,0.836,1.438,0.836
		c0.275,0,0.555-0.069,0.813-0.215c0.07-0.041,0.144-0.08,0.214-0.121c0.784-0.458,1.057-1.469,0.598-2.257
		C769.893,110.375,768.881,110.108,768.094,110.567z"/>
	<path fill="#FFFFFF" d="M746.424,82.328c-0.691-0.594-1.734-0.517-2.33,0.175c-0.056,0.062-0.107,0.124-0.158,0.187
		c-0.588,0.698-0.496,1.74,0.201,2.327c0.311,0.259,0.688,0.386,1.063,0.386c0.476,0,0.939-0.2,1.269-0.589
		c0.045-0.053,0.09-0.105,0.133-0.157C747.191,83.965,747.113,82.922,746.424,82.328z"/>
	<path fill="#FFFFFF" d="M751.031,110.591l-0.182-0.105c-0.785-0.463-1.797-0.201-2.262,0.584c-0.468,0.785-0.201,1.799,0.586,2.261
		l0.205,0.121c0.262,0.149,0.543,0.222,0.821,0.222c0.57,0,1.127-0.297,1.435-0.826
		C752.094,112.058,751.822,111.048,751.031,110.591z"/>
	<path fill="#FFFFFF" d="M756.602,112.61l-0.207-0.037c-0.896-0.164-1.756,0.429-1.922,1.326c-0.164,0.896,0.43,1.757,1.328,1.922
		l0.233,0.041c0.097,0.018,0.191,0.025,0.283,0.025c0.789,0,1.486-0.564,1.627-1.367C758.102,113.623,757.5,112.767,756.602,112.61z
		"/>
</g>
<g>
	<g>
		<path fill="#FFFFFF" stroke="#FFFFFF" stroke-miterlimit="10" d="M517.848,131.312c0.231,2.76,2.668,4.816,5.426,4.582
			l14.355-1.213c0.754-0.063,1.063-0.531,0.688-1.043c-0.373-0.511-1.289-0.876-2.043-0.813l-13.166,1.111
			c-1.68,0.14-3.164-1.109-3.303-2.791l-5.383-63.737c-0.146-1.68,1.106-3.163,2.791-3.303l12.731-1.077
			c0.754-0.062,1.619-0.578,1.931-1.147c0.309-0.571-0.058-0.98-0.813-0.918l-14.02,1.184c-2.763,0.233-4.816,2.668-4.582,5.426
			L517.848,131.312z"/>
		<path fill="#FFFFFF" stroke="#FFFFFF" stroke-miterlimit="10" d="M559.373,129.315l1.625-63.943
			c0.07-2.768-2.125-5.077-4.893-5.146l-9.594-0.244c-0.758-0.019-1.672,0.396-2.041,0.93c-0.369,0.532-0.058,0.98,0.705,0.999
			l10.881,0.278c1.686,0.04,3.02,1.449,2.979,3.136l-1.627,63.939c-0.041,1.688-1.448,3.025-3.135,2.979l-10.549-0.269
			c-0.758-0.02-1.117,0.414-0.803,0.963c0.313,0.551,1.186,1.013,1.938,1.033l9.359,0.237
			C556.992,134.28,559.303,132.083,559.373,129.315z"/>
		<path fill="#FFFFFF" stroke="#FFFFFF" stroke-miterlimit="10" d="M541.873,127.254c-0.516-0.556-0.836-0.142-0.401,0.481
			l0.186,0.272c0.437,0.624,0.785,1.075,0.789,1.007c0.004-0.041,0.004-0.082,0.002-0.127l-0.02-0.336
			C542.396,128.05,542.191,127.599,541.873,127.254z"/>
		<path fill="#FFFFFF" stroke="#FFFFFF" stroke-miterlimit="10" d="M536.449,128.156c0.578-0.05,0.898-0.298,0.711-0.552
			c-0.188-0.256-0.676-0.437-1.09-0.4l-0.752,0.063c-1.158,0.096-2.02,1.118-1.922,2.276l0.027,0.335
			c0.098,1.156,1.116,2.02,2.274,1.919l2.889-0.241c0.759-0.063,1.22-0.322,1.029-0.58c-0.186-0.258-0.951-0.412-1.707-0.349
			l-2.295,0.195c-0.617,0.05-1.164-0.411-1.217-1.027l-0.027-0.336c-0.053-0.616,0.408-1.163,1.025-1.213
			C535.398,128.245,535.869,128.205,536.449,128.156z"/>
		<path fill="#FFFFFF" stroke="#FFFFFF" stroke-miterlimit="10" d="M543.199,64.543c0,0-0.323-0.007-0.725-0.02
			c-0.402-0.01-0.875,0.198-1.063,0.464c-0.186,0.266,0.138,0.495,0.711,0.509l1.052,0.025c0.27,0.009,0.496-0.206,0.504-0.478
			C543.686,64.773,543.473,64.549,543.199,64.543z"/>
		<path fill="#FFFFFF" stroke="#FFFFFF" stroke-miterlimit="10" d="M516.664,70.869l4.728,55.954c0.021,0.271,0.26,0.47,0.529,0.447
			l11.436-0.965c0.756-0.062,1.619-0.679,1.922-1.371l3.438-7.797c0.307-0.693,0.25-1.793-0.125-2.451l-6.4-11.267
			c-0.375-0.66-0.467-1.771-0.205-2.483l4.063-11.039c0.262-0.713,0.215-1.847-0.107-2.533l-7.785-16.663
			c-0.32-0.688-1.192-1.192-1.949-1.13l-9.094,0.768C516.842,70.363,516.641,70.599,516.664,70.869z M531.107,103.507l6.381,11.234
			c0.373,0.658,0.431,1.756,0.123,2.449l-3.012,6.815c-0.312,0.695-1.168,1.31-1.924,1.372l-8.982,0.758
			c-0.756,0.063-1.42-0.496-1.486-1.252l-4.407-52.242c-0.064-0.755,0.495-1.419,1.252-1.483l6.43-0.541
			c0.756-0.062,1.631,0.44,1.957,1.126l7.43,15.673c0.324,0.686,0.375,1.818,0.113,2.53l-4.076,11.079
			C530.643,101.735,530.732,102.849,531.107,103.507z"/>
		<path fill="#FFFFFF" stroke="#FFFFFF" stroke-miterlimit="10" d="M542.049,117.54l-1.979,5.316
			c-0.264,0.711-0.352,1.511-0.194,1.785c0.157,0.276,0.899,0.517,1.659,0.535l13.533,0.344c0.273,0.008,0.498-0.207,0.506-0.479
			L557,68.905c0.006-0.271-0.207-0.496-0.479-0.501l-15.783-0.402c-0.758-0.019-1.551,0.096-1.771,0.257
			c-0.224,0.161-0.254,0.89-0.072,1.625l3.932,15.918c0.185,0.736,0.039,1.876-0.313,2.544l-6.664,12.477
			c-0.357,0.67-0.365,1.758-0.021,2.434l6.07,11.778C542.244,115.707,542.313,116.832,542.049,117.54z M540.986,68.99l13.648,0.349
			c0.758,0.018,1.354,0.649,1.338,1.407l-1.334,52.41c-0.021,0.757-0.648,1.354-1.406,1.336l-11.188-0.287
			c-0.761-0.021-1.16-0.612-0.9-1.326l1.979-5.403c0.264-0.713,0.19-1.836-0.154-2.511l-6.033-11.703
			c-0.346-0.674-0.34-1.764,0.018-2.432l6.603-12.352c0.354-0.67,0.498-1.808,0.313-2.544l-3.92-15.647
			C539.764,69.55,540.229,68.971,540.986,68.99z"/>
		<path fill="#FFFFFF" stroke="#FFFFFF" stroke-miterlimit="10" d="M508.049,68.614c0.033,0.006,0.067,0.009,0.104,0.009
			c0.316,0,0.594-0.23,0.646-0.553c0.01-0.066,1.121-6.774,5.672-7.477c0.354-0.056,0.602-0.392,0.547-0.748
			c-0.055-0.357-0.387-0.599-0.746-0.547c-5.482,0.844-6.715,8.252-6.764,8.569C507.449,68.221,507.691,68.558,508.049,68.614z"/>
		<path fill="#FFFFFF" stroke="#FFFFFF" stroke-miterlimit="10" d="M563.092,129.012c-0.209-0.188-0.726-0.196-0.918,0.009
			c-0.119,0.121-0.188,0.287-0.187,0.467c0,0.039,0.064,4.189-1.795,5.902c-0.6,0.553-1.332,0.775-2.229,0.688
			c-0.363-0.037-0.681,0.228-0.716,0.587c-0.034,0.359,0.228,0.679,0.587,0.715c0.172,0.018,0.344,0.028,0.51,0.028
			c1.063,0,1.983-0.358,2.744-1.058c2.287-2.117,2.217-6.697,2.211-6.891C563.293,129.276,563.217,129.123,563.092,129.012z"/>
		<path fill="#FFFFFF" stroke="#FFFFFF" stroke-miterlimit="10" d="M505.859,63.956c0-0.359-0.293-0.654-0.654-0.654h-3.764
			c-0.361,0-0.654,0.294-0.654,0.654c0,0.362,0.293,0.655,0.654,0.655h3.764C505.566,64.611,505.859,64.318,505.859,63.956z"/>
		<path fill="#FFFFFF" stroke="#FFFFFF" stroke-miterlimit="10" d="M506.432,61.456c0.082,0.032,0.164,0.049,0.248,0.049
			c0.258,0,0.502-0.155,0.604-0.408c0.142-0.335-0.021-0.717-0.354-0.853l-6.543-2.668c-0.338-0.139-0.722,0.022-0.855,0.359
			c-0.137,0.334,0.025,0.717,0.359,0.853L506.432,61.456z"/>
		<path fill="#FFFFFF" stroke="#FFFFFF" stroke-miterlimit="10" d="M567.207,68.876l-4.254-2.272
			c-0.317-0.17-0.715-0.049-0.887,0.271c-0.17,0.316-0.051,0.714,0.268,0.885l4.257,2.274c0.098,0.053,0.2,0.079,0.307,0.079
			c0.234,0,0.459-0.127,0.578-0.346C567.646,69.445,567.527,69.048,567.207,68.876z"/>
		<path fill="#FFFFFF" stroke="#FFFFFF" stroke-miterlimit="10" d="M562.195,64.982c0.127,0.118,0.287,0.177,0.449,0.177
			c0.176,0,0.35-0.069,0.479-0.208l4.257-4.559c0.243-0.265,0.229-0.677-0.031-0.924c-0.269-0.245-0.683-0.229-0.926,0.031
			l-4.257,4.561C561.922,64.324,561.934,64.738,562.195,64.982z"/>
		<path fill="#FFFFFF" stroke="#FFFFFF" stroke-miterlimit="10" d="M511.885,95.161l-2.498,4.253
			c-0.185,0.315-0.078,0.714,0.231,0.896c0.105,0.063,0.222,0.09,0.332,0.09c0.226,0,0.443-0.114,0.564-0.323l2.496-4.253
			c0.184-0.315,0.08-0.714-0.232-0.896C512.467,94.744,512.064,94.846,511.885,95.161z"/>
		<path fill="#FFFFFF" stroke="#FFFFFF" stroke-miterlimit="10" d="M566.26,130.863c-0.24,1.104-0.519,1.858-0.771,2.37
			c-0.34,0.679-1.092,1.096-1.248,1.315c-0.092,0.129-0.139,0.293-0.117,0.461c0.041,0.333,0.322,0.574,0.648,0.574
			c0.027,0,0.057,0,0.084-0.006c0.295-0.037,1.814-0.423,2.684-4.437c0.078-0.355-0.145-0.701-0.5-0.779
			C566.682,130.284,566.336,130.51,566.26,130.863z"/>
	</g>
</g>
<text transform="matrix(1 0 0 1 294.2339 -35.2021)" fill="#231F20" font-family="'Arial-BoldMT'" font-size="23">Securing the Digital Era</text>
</svg>
