<?xml version="1.0" encoding="utf-8"?>
<!-- Generator: Adobe Illustrator 24.0.2, SVG Export Plug-In . SVG Version: 6.00 Build 0)  -->
<svg version="1.1" id="Layer_1" focusable="false" xmlns="http://www.w3.org/2000/svg" xmlns:xlink="http://www.w3.org/1999/xlink"
	 x="0px" y="0px" viewBox="0 0 379.3 379.2" style="enable-background:new 0 0 379.3 379.2;" xml:space="preserve">
<style type="text/css">
	.st0{fill:#FFFFFF;}
	.st1{fill-rule:evenodd;clip-rule:evenodd;fill:#FFFFFF;}
</style>
<path class="st0" d="M189.7,92.4c-53.8,0-97.2,43.4-97.2,97.2s43.4,97.2,97.2,97.2s97.2-43.4,97.2-97.2S243.5,92.4,189.7,92.4z
	 M189.7,252.8c-34.8,0-63.2-28.3-63.2-63.2s28.3-63.2,63.2-63.2s63.2,28.3,63.2,63.2S224.5,252.8,189.7,252.8L189.7,252.8z
	 M313.6,88.4c0,12.6-10.2,22.7-22.7,22.7c-12.6,0-22.7-10.2-22.7-22.7s10.2-22.7,22.7-22.7C303.4,65.7,313.6,75.9,313.6,88.4z
	 M377.9,111.4c-1.4-30.4-8.4-57.3-30.6-79.5C325.1,9.8,298.2,2.9,267.9,1.3c-31.3-1.8-125.1-1.8-156.5,0C81.1,2.8,54.2,9.7,32,31.9
	S2.9,81,1.3,111.3c-1.8,31.3-1.8,125.1,0,156.5c1.4,30.4,8.4,57.3,30.6,79.5c22.3,22.2,49.1,29.1,79.5,30.6
	c31.3,1.8,125.1,1.8,156.5,0c30.4-1.4,57.3-8.4,79.5-30.6c22.2-22.2,29.1-49.1,30.6-79.5C379.7,236.5,379.7,142.7,377.9,111.4
	L377.9,111.4z M337.5,301.4c-6.6,16.6-19.4,29.4-36,36c-25,9.9-84.2,7.6-111.8,7.6s-86.9,2.2-111.8-7.6c-16.6-6.6-29.4-19.4-36-36
	c-9.9-25-7.6-84.2-7.6-111.8S32,102.7,41.9,77.8c6.6-16.6,19.4-29.4,36-36c25-9.9,84.2-7.6,111.8-7.6s86.9-2.2,111.8,7.6
	c16.6,6.6,29.4,19.4,36,36c9.9,25,7.6,84.2,7.6,111.8S347.4,276.5,337.5,301.4z"/>
</svg>
