<?xml version="1.0" encoding="utf-8"?>
<!-- Generator: Adobe Illustrator 15.1.0, SVG Export Plug-In . SVG Version: 6.00 Build 0)  -->
<svg version="1.2" baseProfile="tiny" id="Layer_1" xmlns="http://www.w3.org/2000/svg" xmlns:xlink="http://www.w3.org/1999/xlink"
	 x="0px" y="0px" width="100px" height="100px" viewBox="233.465 233.465 100 100" xml:space="preserve">
<g>
	<g>
		<path fill="#C1272D" stroke="#C1272D" stroke-miterlimit="10" d="M245.578,307.107h76.108c0.975,0,1.764-0.789,1.764-1.765
			v-49.058c0-0.975-0.789-1.764-1.764-1.764h-6.234c-0.033,1.031-0.096,2.217-0.212,3.527h4.682v45.53h-72.58v-45.53h4.683
			c-0.115-1.311-0.179-2.497-0.212-3.527h-6.235c-0.975,0-1.765,0.788-1.765,1.764v49.057
			C243.813,306.318,244.603,307.107,245.578,307.107z M330.032,311.369h-32.148c-0.203,0-0.403,0.033-0.597,0.103l-5.758,2.07
			h-15.162l-4.99-2.043c-0.214-0.086-0.441-0.131-0.67-0.131H237.23c-0.974,0-1.765,0.789-1.765,1.766v3.226
			c0,4.813,3.934,8.728,8.77,8.728h78.814c4.823,0,8.748-3.916,8.748-8.728v-3.226C331.797,312.158,331.01,311.369,330.032,311.369z
			 M328.269,316.359c0,2.867-2.34,5.199-5.22,5.199h-78.814c-2.889,0-5.241-2.332-5.241-5.199v-1.463h31.367l4.994,2.044
			c0.21,0.087,0.439,0.132,0.669,0.132h15.816c0.202,0,0.403-0.035,0.597-0.103l5.758-2.073h30.075V316.359L328.269,316.359z"/>
		<g>
			<path fill="#C1272D" stroke="#C1272D" stroke-miterlimit="10" d="M282.927,302.221l-0.672-0.301
				c-23.521-10.494-25.931-33.754-25.875-43.266l-0.048-1.746l1.355-0.325c13.655-2.921,23.962-13.226,24.064-13.33l1.177-1.19
				l1.178,1.19c0.102,0.104,10.41,10.409,24.067,13.33l1.404,0.3l-0.104,1.434l0.003,0.336c0.056,9.513-2.354,32.772-25.875,43.267
				L282.927,302.221z M259.69,259.515c0.101,9.226,2.775,29.536,23.238,39.078c20.463-9.542,23.142-29.853,23.239-39.078
				c-11.395-2.825-20.159-10.026-23.239-12.821C279.852,249.488,271.084,256.689,259.69,259.515z"/>
			<path fill="#C1272D" stroke="#C1272D" stroke-miterlimit="10" d="M282.927,249.69c-0.613,0-1.11,0.497-1.11,1.112
				c0,0.614,0.498,1.111,1.11,1.111c0.614,0,1.112-0.497,1.112-1.111C284.039,250.188,283.542,249.69,282.927,249.69z
				 M282.927,294.551c-0.613,0-1.11,0.498-1.11,1.111s0.498,1.112,1.11,1.112c0.614,0,1.112-0.499,1.112-1.112
				S283.542,294.551,282.927,294.551z M262.064,259.996c-0.614,0-1.113,0.5-1.113,1.113s0.5,1.111,1.113,1.111
				c0.614,0,1.112-0.498,1.112-1.111S262.678,259.996,262.064,259.996z M303.793,259.996c-0.614,0-1.11,0.5-1.11,1.113
				s0.496,1.111,1.11,1.111c0.613,0,1.111-0.498,1.111-1.111S304.406,259.996,303.793,259.996z"/>
		</g>
	</g>
	<path fill="#C1272D" stroke="#C1272D" stroke-miterlimit="10" d="M278.338,267.529c0.127,0.532,0.491,0.901,0.819,0.835
		c0.33,1.075,0.74,1.904,0.86,2.082c0.449,0.66,2.045,1.673,3.046,1.673c1.005,0,2.685-1.013,3.132-1.673
		c0.121-0.178,0.547-1.006,0.893-2.08c0.324,0.055,0.682-0.31,0.809-0.837c0.125-0.521-0.024-1.003-0.332-1.108
		c0.033-0.226,0.055-0.453,0.059-0.674c0.137-1.258-0.033-2.586-0.656-3.494c-1.01-1.468-3.011-1.65-3.959-1.601
		c0.165-0.069,0.526-0.171,0.931-0.153c-1.739-0.302-2.417,0.276-3.256,0.859c-0.6-0.05-1.392,0.443-1.618,0.839
		c0.193-0.172,0.414-0.32,0.613-0.386c-0.964,0.563-1.197,1.564-1.218,1.681c-0.132,0.837-0.034,1.885,0.194,2.933
		C278.357,266.543,278.215,267.019,278.338,267.529z"/>
	<polygon fill="#C1272D" stroke="#C1272D" stroke-miterlimit="10" points="283.117,280.986 284.428,279.086 283.572,275.896 
		284.174,274.965 283.117,273.952 282.038,274.965 282.64,275.896 281.785,279.086 	"/>
	<path fill="#C1272D" stroke="#C1272D" stroke-miterlimit="10" d="M283.105,284.757c4.375,0,8.265-2.04,10.796-5.212
		c-0.338-1.737-0.738-2.85-1.233-3.288c-0.573-0.507-2.041-1.509-6.404-3.746l-0.987,6.704l-2.158,3.09l-2.194-3.09l-1.002-6.694
		c-4.308,2.212-5.81,3.231-6.38,3.735c-0.512,0.455-0.91,1.468-1.251,3.262C274.822,282.706,278.722,284.757,283.105,284.757z"/>
</g>
</svg>
