<?xml version="1.0" encoding="utf-8"?>
<!-- Generator: Adobe Illustrator 15.1.0, SVG Export Plug-In . SVG Version: 6.00 Build 0)  -->
<svg version="1.2" baseProfile="tiny" id="Layer_1" xmlns="http://www.w3.org/2000/svg" xmlns:xlink="http://www.w3.org/1999/xlink"
	 x="0px" y="0px" width="217.297px" height="114.609px" viewBox="0 0 217.297 114.609" xml:space="preserve">
<g>
	<path id="path2524" fill="#D52B1E" d="M187.953,71.323l-3.652-7.489l-3.839,7.489H187.953z M104.031,53.393l-7.479,3.739
		l7.479,3.746V53.393z M36.308,61.832l3.828,7.49l3.651-7.49H36.308z M207.628,45.902c-1.218,0-2.435,0.959-2.435,2.353
		c0,1.568,1.217,2.434,2.435,2.434c1.394,0,2.608-0.866,2.608-2.347S209.021,45.902,207.628,45.902L207.628,45.902z M197.352,53.562
		v-2.955h6.273c-1.217-1.047-1.217-2.44-1.217-2.874c0-2.007,1.555-4.792,5.22-4.792c3.476,0,5.396,2.439,5.396,4.963
		c0,1.393-0.703,2.44-1.394,2.873h1.041v2.785H197.352z M207.805,63.4c0.864,0,2.432-0.695,2.432-2.435
		c0-1.048-0.523-1.744-1.041-2.09c-0.526-0.264-0.877-0.351-1.391-0.438c-0.354,0-0.88,0.087-1.218,0.264
		c-0.703,0.346-1.394,1.041-1.394,2.264C205.193,62.615,206.587,63.4,207.805,63.4L207.805,63.4z M212.672,55.565v2.873h-1.218
		c1.044,0.525,1.57,1.743,1.57,2.961c0,3.05-2.435,4.876-5.396,4.876c-3.138,0-5.22-2.267-5.22-4.876
		c0-1.656,0.864-2.523,1.392-2.961h-1.052v-2.873H212.672z M197.352,71.323v-2.96h15.32v2.96H197.352"/>
	<path id="path2526" fill="#006D55" d="M133.983,75.239l2.259,4.788c10.275-7.919,12.184-16.802,5.396-26.288
		c-5.221-7.573,0.7-14.274,2.435-16.018l-4.005-3.137c-2.609,2.874-9.396,11.757-3.477,20.723
		C142.339,64.008,141.813,68.714,133.983,75.239z M53.374,75.239l2.259,4.788c10.277-7.919,12.184-16.802,5.396-26.288
		c-5.22-7.573,0.702-14.274,2.435-16.018l-4.003-3.137c-2.61,2.874-9.399,11.757-3.477,20.723
		C61.73,64.008,61.204,68.714,53.374,75.239z M190.738,42.941l-6.438,11.406l-6.624-11.406h-5.396l12.021,20.636l11.834-20.636
		H190.738z M83.665,44.596c-1.919-1.129-4.178-1.656-7.315-1.656h-6.614v28.382h5.396v-22.98h1.217c3.828,0,6.274,0.872,6.274,4.179
		c0,3.13-2.962,4.523-6.625,4.611c0,0-0.515,0-0.69,0l0,0l3.477,5.05c1.743-0.263,3.312-0.872,4.705-1.655
		c0.175-0.089,0.175-0.171,0.352-0.171c2.61-1.831,4.178-4.616,4.178-7.834C88.019,49.039,86.451,46.253,83.665,44.596z
		 M125.966,60.356c2.785-1.831,4.353-4.616,4.353-7.834c0-3.482-1.567-6.269-4.517-7.925c-1.744-1.129-4.179-1.656-7.141-1.656
		h-6.788v28.382h5.396v-22.98h1.392c3.652,0,6.264,0.872,6.264,4.179c0,3.13-3.139,4.523-6.614,4.611c-0.176,0-0.526,0-0.867,0l0,0
		l9.913,14.19h6.274L125.966,60.356z M162.178,57.132l9.926-14.191h-6.261l-9.926,14.191l9.926,14.19h6.261L162.178,57.132z
		 M155.74,42.941h-5.394v28.382h5.394V42.941z M15.93,57.132l10.101-14.191H19.77L9.669,57.132l10.101,14.19h6.261L15.93,57.132z
		 M9.493,42.941h-5.22v28.382h5.22V42.941z M107.859,48.342v-5.401H90.98v28.382h16.878v-5.395H96.375V48.342H107.859z
		 M53.888,71.323h-5.396l-8.356-17.929l-8.357,17.929h-5.396l13.753-29.424L53.888,71.323"/>
</g>
</svg>
