<?xml version="1.0" encoding="utf-8"?>
<!-- Generator: Adobe Illustrator 15.1.0, SVG Export Plug-In . SVG Version: 6.00 Build 0)  -->
<!DOCTYPE svg PUBLIC "-//W3C//DTD SVG 1.1 Basic//EN" "http://www.w3.org/Graphics/SVG/1.1/DTD/svg11-basic.dtd">
<svg version="1.1" baseProfile="basic" id="Layer_1"
	 xmlns="http://www.w3.org/2000/svg" xmlns:xlink="http://www.w3.org/1999/xlink" x="0px" y="0px" width="274.5px"
	 height="33.111px" viewBox="0 7.467 274.5 33.111" xml:space="preserve">
<g>
	<g>
		<g>
			<rect x="15.725" y="18.38" fill="#E20613" width="2.901" height="2.592"/>
			<rect x="13.946" y="21.509" fill="#9C1915" width="1.59" height="1.699"/>
			<rect x="12.449" y="18.111" fill="#9C1915" width="1.965" height="1.7"/>
			<rect x="9.551" y="17.038" fill="#E20613" width="1.776" height="1.61"/>
			<rect x="12.357" y="15.072" fill="#9C1915" width="1.403" height="1.699"/>
			<rect x="15.07" y="14.177" fill="#9C1915" width="2.339" height="2.146"/>
			<rect x="18.626" y="15.429" fill="#9C1915" width="2.151" height="2.325"/>
			<rect x="5.9" y="20.883" fill="#9C1915" width="1.029" height="0.894"/>
			<rect x="3" y="25.175" fill="#E20613" width="1.122" height="1.162"/>
			<rect x="6.088" y="23.565" fill="#9C1915" width="2.058" height="1.788"/>
			<rect x="8.24" y="27.142" fill="#9C1915" width="2.246" height="2.502"/>
			<rect x="8.146" y="30.897" fill="#E20613" width="1.684" height="1.609"/>
			<rect x="11.608" y="29.375" fill="#9C1915" width="1.498" height="1.61"/>
			<rect x="11.514" y="33.401" fill="#9C1915" width="1.122" height="1.52"/>
			<rect x="13.666" y="31.523" fill="#9C1915" width="1.686" height="1.788"/>
			<rect x="15.257" y="34.653" fill="#E20613" width="2.34" height="2.412"/>
			<rect x="18.626" y="35.994" fill="#9C1915" width="2.432" height="2.503"/>
			<rect x="16.567" y="29.913" fill="#9C1915" width="2.808" height="2.862"/>
			<rect x="11.327" y="25.175" fill="#E20613" width="2.806" height="2.772"/>
			<rect x="9.551" y="21.062" fill="#9C1915" width="2.431" height="2.058"/>
		</g>
		<g>
			
				<linearGradient id="SVGID_1_" gradientUnits="userSpaceOnUse" x1="-220.1165" y1="134.2075" x2="-216.0442" y2="134.2075" gradientTransform="matrix(1 0 0 -1 242.3999 160.5869)">
				<stop  offset="0.3333" style="stop-color:#9D191A"/>
				<stop  offset="0.6047" style="stop-color:#CD1319"/>
				<stop  offset="0.7515" style="stop-color:#E21118"/>
			</linearGradient>
			<path fill="url(#SVGID_1_)" d="M22.731,22.645c-0.152,0-0.3,0.014-0.447,0.031v7.405c0.147,0.019,0.296,0.032,0.447,0.032
				c2.002,0,3.625-1.672,3.625-3.734C26.356,24.318,24.733,22.645,22.731,22.645z"/>
			<g>
				
					<linearGradient id="SVGID_2_" gradientUnits="userSpaceOnUse" x1="-219.9758" y1="140.5347" x2="-207.8425" y2="140.5347" gradientTransform="matrix(1 0 0 -1 242.3999 160.5869)">
					<stop  offset="0.3333" style="stop-color:#9D191A"/>
					<stop  offset="0.6047" style="stop-color:#CD1319"/>
					<stop  offset="0.7515" style="stop-color:#E21118"/>
				</linearGradient>
				<path fill="url(#SVGID_2_)" d="M32.934,25.924h1.623c-0.233-6.527-5.436-11.744-11.827-11.744c-0.101,0-0.203,0.006-0.307,0.009
					v1.674c0.103-0.003,0.206-0.008,0.307-0.008C28.223,15.856,32.701,20.323,32.934,25.924z"/>
				
					<linearGradient id="SVGID_3_" gradientUnits="userSpaceOnUse" x1="-219.9758" y1="126.2104" x2="-208.4187" y2="126.2104" gradientTransform="matrix(1 0 0 -1 242.3999 160.5869)">
					<stop  offset="0.3333" style="stop-color:#9D191A"/>
					<stop  offset="0.6047" style="stop-color:#CD1319"/>
					<stop  offset="0.7515" style="stop-color:#E21118"/>
				</linearGradient>
				<path fill="url(#SVGID_3_)" d="M32.257,30.175c-1.478,3.935-5.185,6.728-9.526,6.728c-0.101,0-0.204-0.005-0.307-0.008v1.673
					c0.104,0.003,0.206,0.01,0.307,0.01c5.251,0,9.702-3.526,11.25-8.402H32.257z"/>
			</g>
			<g>
				
					<linearGradient id="SVGID_4_" gradientUnits="userSpaceOnUse" x1="-220.1179" y1="135.9331" x2="-210.4661" y2="135.9331" gradientTransform="matrix(1 0 0 -1 242.3999 160.5869)">
					<stop  offset="0.3333" style="stop-color:#9D191A"/>
					<stop  offset="0.6047" style="stop-color:#CD1319"/>
					<stop  offset="0.7515" style="stop-color:#E21118"/>
				</linearGradient>
				<path fill="url(#SVGID_4_)" d="M30.673,26.378c0,1.896-0.627,3.639-1.677,5.025l0.836,1.011
					c1.313-1.642,2.102-3.743,2.102-6.036c0-5.238-4.12-9.484-9.204-9.484c-0.149,0-0.3,0.004-0.448,0.012v1.303
					c0.148-0.007,0.299-0.012,0.448-0.012C27.117,18.198,30.673,21.861,30.673,26.378z"/>
				
					<linearGradient id="SVGID_5_" gradientUnits="userSpaceOnUse" x1="-220.1165" y1="125.6147" x2="-216.115" y2="125.6147" gradientTransform="matrix(1 0 0 -1 242.3999 160.5869)">
					<stop  offset="0.3333" style="stop-color:#9D191A"/>
					<stop  offset="0.6047" style="stop-color:#CD1319"/>
					<stop  offset="0.7515" style="stop-color:#E21118"/>
				</linearGradient>
				<path fill="url(#SVGID_5_)" d="M25.415,34.083c-0.838,0.31-1.742,0.479-2.685,0.479c-0.149,0-0.3-0.006-0.447-0.013v1.301
					c0.147,0.009,0.298,0.013,0.447,0.013c1.26,0,2.46-0.263,3.554-0.733L25.415,34.083z"/>
			</g>
			
				<linearGradient id="SVGID_6_" gradientUnits="userSpaceOnUse" x1="-220.1165" y1="133.6265" x2="-213.3206" y2="133.6265" gradientTransform="matrix(1 0 0 -1 242.3999 160.5869)">
				<stop  offset="0.3333" style="stop-color:#9D191A"/>
				<stop  offset="0.6047" style="stop-color:#CD1319"/>
				<stop  offset="0.7515" style="stop-color:#E21118"/>
			</linearGradient>
			<path fill="url(#SVGID_6_)" d="M25.961,20.825l0.021,1.352c1.199,0.985,1.968,2.501,1.968,4.202c0,2.971-2.336,5.378-5.219,5.378
				c-0.15,0-0.3-0.011-0.447-0.022l0.013,1.34c0.148,0.012,0.298,0.023,0.449,0.023c3.606-0.016,6.433-3.236,6.332-6.76
				C29.014,24.132,27.62,21.679,25.961,20.825z"/>
		</g>
	</g>
	<g>
		<path fill="#1D1D1B" d="M46.763,18.621v5.131H46.36c-0.132-0.985-0.367-1.77-0.707-2.354c-0.339-0.583-0.822-1.046-1.448-1.388
			c-0.627-0.345-1.277-0.514-1.948-0.514c-0.758,0-1.386,0.23-1.881,0.693c-0.499,0.463-0.743,0.991-0.743,1.583
			c0,0.451,0.156,0.863,0.47,1.236c0.452,0.546,1.528,1.275,3.228,2.188c1.387,0.743,2.331,1.314,2.84,1.713
			c0.505,0.396,0.896,0.864,1.169,1.404c0.272,0.541,0.411,1.105,0.411,1.696c0,1.123-0.438,2.091-1.307,2.902
			c-0.872,0.816-1.995,1.222-3.365,1.222c-0.43,0-0.837-0.033-1.214-0.1c-0.227-0.036-0.697-0.172-1.406-0.397
			c-0.71-0.232-1.16-0.346-1.352-0.346c-0.182,0-0.325,0.053-0.432,0.164c-0.105,0.11-0.185,0.335-0.234,0.678h-0.404v-5.087h0.404
			c0.188,1.065,0.443,1.86,0.767,2.39c0.319,0.53,0.811,0.969,1.47,1.317c0.661,0.352,1.384,0.526,2.172,0.526
			c0.912,0,1.631-0.239,2.16-0.722c0.529-0.481,0.794-1.049,0.794-1.707c0-0.363-0.101-0.731-0.301-1.106
			c-0.201-0.371-0.514-0.717-0.937-1.037c-0.283-0.221-1.06-0.685-2.33-1.395c-1.268-0.711-2.17-1.278-2.706-1.701
			c-0.538-0.423-0.944-0.891-1.222-1.4s-0.416-1.074-0.416-1.686c0-1.064,0.407-1.983,1.225-2.752
			c0.818-0.768,1.857-1.153,3.119-1.153c0.788,0,1.623,0.193,2.504,0.58c0.409,0.182,0.696,0.274,0.866,0.274
			c0.188,0,0.343-0.056,0.463-0.171c0.122-0.113,0.218-0.341,0.291-0.684L46.763,18.621L46.763,18.621z"/>
		<path fill="#1D1D1B" d="M54.677,21.682v5.063h2.813c0.732,0,1.22-0.108,1.466-0.329c0.328-0.29,0.511-0.799,0.549-1.531h0.348
			v4.461h-0.348c-0.09-0.624-0.177-1.023-0.266-1.199c-0.113-0.223-0.299-0.396-0.558-0.521c-0.258-0.126-0.655-0.188-1.191-0.188
			h-2.813v4.224c0,0.565,0.025,0.909,0.076,1.034c0.05,0.123,0.137,0.22,0.262,0.293c0.126,0.073,0.366,0.109,0.719,0.109h2.171
			c0.726,0,1.251-0.05,1.578-0.151c0.328-0.102,0.644-0.3,0.945-0.597c0.39-0.39,0.791-0.979,1.199-1.767h0.379l-1.106,3.213h-9.873
			v-0.349h0.455c0.302,0,0.588-0.074,0.86-0.217c0.201-0.1,0.338-0.254,0.411-0.453c0.072-0.203,0.109-0.616,0.109-1.238v-8.325
			c0-0.813-0.082-1.314-0.247-1.505c-0.225-0.251-0.603-0.376-1.133-0.376h-0.455v-0.35h9.874l0.142,2.808h-0.368
			c-0.133-0.675-0.279-1.139-0.438-1.39c-0.162-0.252-0.4-0.445-0.714-0.575c-0.251-0.095-0.697-0.144-1.333-0.144H54.677z"/>
		<path fill="#1D1D1B" d="M75.554,20.69l0.291,4.356h-0.291c-0.392-1.304-0.948-2.242-1.673-2.816
			c-0.724-0.572-1.594-0.859-2.608-0.859c-0.85,0-1.62,0.216-2.305,0.646c-0.687,0.432-1.228,1.121-1.622,2.065
			c-0.393,0.944-0.589,2.12-0.589,3.524c0,1.158,0.186,2.164,0.557,3.014c0.372,0.852,0.932,1.502,1.678,1.956
			c0.747,0.454,1.6,0.68,2.555,0.68c0.832,0,1.565-0.177,2.202-0.531c0.637-0.357,1.336-1.063,2.097-2.124l0.295,0.191
			c-0.644,1.139-1.392,1.975-2.249,2.503c-0.856,0.528-1.875,0.792-3.052,0.792c-2.123,0-3.768-0.787-4.931-2.361
			c-0.87-1.171-1.306-2.552-1.306-4.138c0-1.277,0.286-2.453,0.859-3.526c0.574-1.068,1.362-1.899,2.368-2.486
			c1.005-0.591,2.103-0.885,3.292-0.885c0.926,0,1.84,0.229,2.739,0.681c0.267,0.139,0.455,0.208,0.568,0.208
			c0.171,0,0.319-0.06,0.445-0.18c0.163-0.171,0.279-0.405,0.35-0.709L75.554,20.69L75.554,20.69z"/>
		<path fill="#1D1D1B" d="M87.491,21.333v-0.35h4.537v0.35h-0.483c-0.503,0-0.891,0.212-1.162,0.634
			c-0.133,0.193-0.199,0.647-0.199,1.359v5.197c0,1.286-0.128,2.281-0.383,2.989c-0.254,0.709-0.755,1.319-1.501,1.825
			c-0.748,0.507-1.763,0.761-3.048,0.761c-1.399,0-2.459-0.243-3.185-0.728c-0.723-0.485-1.239-1.137-1.539-1.958
			c-0.202-0.559-0.304-1.614-0.304-3.154V23.25c0-0.787-0.107-1.306-0.324-1.55c-0.219-0.246-0.569-0.369-1.054-0.369h-0.482v-0.35
			h5.537v0.35h-0.492c-0.529,0-0.907,0.168-1.133,0.502c-0.158,0.226-0.237,0.699-0.237,1.417v5.584
			c0,0.498,0.045,1.067,0.136,1.711c0.093,0.643,0.258,1.142,0.499,1.502c0.239,0.357,0.583,0.654,1.033,0.886
			c0.451,0.235,1.003,0.352,1.659,0.352c0.838,0,1.588-0.182,2.249-0.548c0.661-0.367,1.112-0.834,1.356-1.403
			c0.242-0.569,0.362-1.537,0.362-2.895V23.25c0-0.8-0.087-1.301-0.263-1.503c-0.247-0.274-0.611-0.415-1.095-0.415H87.491z"/>
		<path fill="#1D1D1B" d="M106.763,33.794h-3.42l-4.338-5.99c-0.32,0.015-0.582,0.019-0.782,0.019c-0.083,0-0.171-0.002-0.265-0.003
			c-0.095-0.006-0.192-0.009-0.294-0.016v3.723c0,0.808,0.088,1.308,0.266,1.502c0.238,0.276,0.598,0.416,1.075,0.416h0.502v0.35
			h-5.49v-0.35h0.483c0.542,0,0.928-0.177,1.16-0.529c0.133-0.194,0.199-0.658,0.199-1.389V23.25c0-0.806-0.088-1.308-0.264-1.503
			c-0.247-0.274-0.611-0.415-1.095-0.415h-0.483v-0.35h4.667c1.36,0,2.364,0.099,3.009,0.298c0.647,0.199,1.194,0.565,1.645,1.097
			c0.45,0.532,0.675,1.166,0.675,1.902c0,0.788-0.258,1.471-0.77,2.05c-0.513,0.582-1.308,0.989-2.385,1.229l2.646,3.675
			c0.605,0.845,1.124,1.406,1.559,1.682c0.433,0.277,1,0.455,1.699,0.529v0.35H106.763z M97.664,27.208
			c0.12,0,0.224,0.004,0.312,0.009c0.088,0.002,0.161,0.002,0.217,0.002c1.223,0,2.144-0.264,2.764-0.792s0.93-1.203,0.93-2.021
			c0-0.8-0.251-1.451-0.75-1.952c-0.501-0.5-1.164-0.751-1.989-0.751c-0.366,0-0.859,0.059-1.484,0.18L97.664,27.208L97.664,27.208z
			"/>
		<path fill="#1D1D1B" d="M112.09,21.682v5.063h2.815c0.729,0,1.218-0.108,1.464-0.329c0.328-0.29,0.512-0.799,0.549-1.531h0.349
			v4.461h-0.35c-0.089-0.624-0.177-1.023-0.266-1.199c-0.112-0.223-0.299-0.396-0.558-0.521c-0.257-0.126-0.654-0.188-1.189-0.188
			h-2.815v4.224c0,0.565,0.024,0.909,0.075,1.034c0.049,0.123,0.137,0.22,0.263,0.293c0.125,0.073,0.365,0.109,0.718,0.109h2.173
			c0.725,0,1.249-0.05,1.578-0.151c0.328-0.102,0.642-0.3,0.944-0.597c0.392-0.39,0.792-0.979,1.2-1.767h0.38l-1.106,3.213h-9.875
			v-0.349h0.455c0.301,0,0.589-0.074,0.859-0.217c0.202-0.1,0.338-0.254,0.412-0.453c0.071-0.203,0.108-0.616,0.108-1.238v-8.325
			c0-0.813-0.082-1.314-0.245-1.505c-0.228-0.251-0.605-0.376-1.134-0.376h-0.455v-0.35h9.875l0.142,2.808h-0.368
			c-0.133-0.675-0.279-1.139-0.439-1.39c-0.161-0.252-0.399-0.445-0.714-0.575c-0.252-0.095-0.697-0.144-1.332-0.144H112.09z"/>
		<path fill="#1D1D1B" d="M121.646,33.794v-0.35h0.482c0.543,0,0.926-0.174,1.154-0.521c0.138-0.207,0.207-0.672,0.207-1.398V23.25
			c0-0.8-0.088-1.301-0.264-1.503c-0.246-0.274-0.611-0.415-1.097-0.415h-0.482v-0.35h5.215c1.916,0,3.373,0.218,4.371,0.651
			c0.998,0.437,1.802,1.159,2.411,2.175c0.607,1.013,0.911,2.185,0.911,3.513c0,1.781-0.543,3.274-1.625,4.471
			c-1.217,1.336-3.067,2.002-5.556,2.002H121.646L121.646,33.794z M125.303,32.869c0.8,0.178,1.47,0.264,2.012,0.264
			c1.461,0,2.675-0.511,3.638-1.538c0.964-1.028,1.446-2.42,1.446-4.177c0-1.771-0.482-3.166-1.446-4.186
			c-0.962-1.02-2.201-1.53-3.713-1.53c-0.566,0-1.213,0.093-1.937,0.273V32.869L125.303,32.869z"/>
	</g>
	<g>
		<path fill="#B20E10" d="M144.303,19.622v5.866h3.262c0.844,0,1.41-0.126,1.695-0.381c0.377-0.338,0.59-0.929,0.634-1.774h0.405
			v5.162h-0.405c-0.102-0.721-0.203-1.185-0.306-1.387c-0.13-0.257-0.346-0.459-0.646-0.604c-0.3-0.146-0.759-0.217-1.377-0.217
			h-3.262v4.889c0,0.657,0.029,1.057,0.087,1.198c0.059,0.142,0.161,0.257,0.307,0.338c0.146,0.084,0.423,0.127,0.832,0.127h2.517
			c0.838,0,1.446-0.059,1.827-0.174c0.379-0.117,0.743-0.35,1.093-0.69c0.453-0.452,0.917-1.133,1.391-2.047h0.438l-1.28,3.722
			h-11.433v-0.407h0.523c0.351,0,0.684-0.082,0.997-0.25c0.232-0.117,0.392-0.291,0.476-0.524c0.082-0.232,0.124-0.712,0.124-1.434
			v-9.64c0-0.938-0.094-1.518-0.284-1.738c-0.262-0.292-0.7-0.438-1.314-0.438h-0.523v-0.406h11.433l0.165,3.25h-0.427
			c-0.153-0.78-0.324-1.316-0.51-1.608c-0.187-0.293-0.46-0.515-0.827-0.668c-0.292-0.109-0.805-0.166-1.542-0.166H144.303z"/>
		<path fill="#B20E10" d="M154.733,20.836h3.477l7.833,9.609v-7.388c0-0.787-0.089-1.279-0.265-1.475
			c-0.233-0.265-0.603-0.397-1.106-0.397h-0.443v-0.35h4.458v0.349h-0.452c-0.542,0-0.925,0.165-1.153,0.493
			c-0.14,0.201-0.209,0.66-0.209,1.379v10.799h-0.34l-8.446-10.317v7.89c0,0.787,0.086,1.279,0.256,1.472
			c0.24,0.265,0.607,0.4,1.104,0.4h0.454v0.35h-4.46V33.3h0.444c0.55,0,0.935-0.165,1.163-0.493c0.137-0.202,0.208-0.661,0.208-1.38
			v-8.91c-0.372-0.435-0.653-0.72-0.845-0.858c-0.193-0.138-0.474-0.267-0.845-0.388c-0.184-0.056-0.461-0.085-0.832-0.085V20.836
			L154.733,20.836z"/>
		<path fill="#B20E10" d="M181.61,20.836l0.14,3.004h-0.357c-0.071-0.528-0.164-0.907-0.283-1.133
			c-0.195-0.365-0.456-0.634-0.78-0.81c-0.326-0.17-0.751-0.258-1.28-0.258h-1.805v9.788c0,0.787,0.083,1.279,0.255,1.472
			c0.237,0.265,0.604,0.4,1.104,0.4h0.444v0.35h-5.433V33.3h0.453c0.542,0,0.926-0.165,1.153-0.493
			c0.137-0.202,0.208-0.661,0.208-1.38V21.64h-1.541c-0.597,0-1.022,0.043-1.275,0.131c-0.326,0.12-0.607,0.351-0.841,0.692
			c-0.232,0.338-0.372,0.8-0.416,1.377H171l0.151-3.004H181.61z"/>
		<path fill="#B20E10" d="M187.73,21.537v5.064h2.817c0.728,0,1.215-0.11,1.461-0.332c0.328-0.289,0.511-0.798,0.55-1.531h0.349
			v4.463h-0.349c-0.088-0.626-0.177-1.024-0.266-1.199c-0.114-0.223-0.3-0.395-0.558-0.521c-0.257-0.128-0.655-0.188-1.188-0.188
			h-2.817v4.223c0,0.565,0.022,0.91,0.074,1.034c0.049,0.123,0.14,0.222,0.265,0.293c0.126,0.072,0.365,0.11,0.718,0.11h2.174
			c0.723,0,1.25-0.053,1.577-0.154c0.328-0.099,0.643-0.297,0.945-0.594c0.39-0.391,0.792-0.979,1.201-1.767h0.379l-1.106,3.213
			h-9.875v-0.349h0.454c0.3,0,0.586-0.075,0.858-0.219c0.203-0.099,0.339-0.251,0.413-0.451c0.072-0.205,0.109-0.614,0.109-1.24
			v-8.324c0-0.813-0.081-1.313-0.246-1.503c-0.225-0.252-0.604-0.378-1.134-0.378h-0.453v-0.35h9.875l0.14,2.807h-0.367
			c-0.133-0.674-0.279-1.138-0.44-1.388c-0.161-0.254-0.399-0.445-0.714-0.576c-0.25-0.096-0.696-0.143-1.331-0.143H187.73z"/>
		<path fill="#B20E10" d="M210.032,33.65h-3.419l-4.338-5.99c-0.32,0.013-0.582,0.019-0.783,0.019c-0.082,0-0.17-0.002-0.267-0.004
			c-0.093-0.005-0.191-0.009-0.292-0.015v3.722c0,0.809,0.087,1.308,0.265,1.502c0.237,0.277,0.598,0.418,1.076,0.418h0.501v0.349
			h-5.489v-0.349h0.481c0.541,0,0.929-0.178,1.162-0.531c0.132-0.193,0.199-0.656,0.199-1.389v-8.276
			c0-0.806-0.089-1.308-0.266-1.502c-0.246-0.276-0.611-0.417-1.097-0.417h-0.48v-0.35h4.667c1.36,0,2.363,0.099,3.009,0.298
			s1.194,0.563,1.645,1.097c0.449,0.531,0.676,1.166,0.676,1.902c0,0.788-0.259,1.47-0.771,2.05
			c-0.513,0.582-1.311,0.989-2.386,1.229l2.646,3.675c0.604,0.845,1.125,1.405,1.561,1.682c0.432,0.276,0.999,0.454,1.699,0.531
			L210.032,33.65L210.032,33.65z M200.935,27.061c0.119,0,0.223,0.005,0.312,0.008c0.088,0.002,0.16,0.004,0.215,0.004
			c1.222,0,2.146-0.265,2.766-0.794c0.619-0.528,0.931-1.203,0.931-2.021c0-0.8-0.25-1.451-0.752-1.951
			c-0.5-0.5-1.166-0.752-1.99-0.752c-0.364,0-0.858,0.06-1.481,0.18L200.935,27.061L200.935,27.061z"/>
		<path fill="#B20E10" d="M215.281,27.648v3.733c0,0.808,0.087,1.306,0.266,1.501c0.242,0.277,0.602,0.418,1.086,0.418h0.491v0.35
			h-5.489V33.3h0.483c0.54,0,0.93-0.179,1.161-0.531c0.126-0.193,0.188-0.656,0.188-1.388v-8.276c0-0.806-0.083-1.308-0.254-1.502
			c-0.246-0.276-0.613-0.417-1.096-0.417h-0.483v-0.35h4.698c1.146,0,2.049,0.119,2.712,0.354c0.659,0.236,1.216,0.634,1.671,1.193
			c0.454,0.562,0.68,1.227,0.68,1.995c0,1.044-0.344,1.896-1.032,2.552c-0.691,0.654-1.666,0.981-2.926,0.981
			c-0.308,0-0.642-0.021-1.004-0.065C216.075,27.804,215.691,27.737,215.281,27.648z M215.281,27.11
			c0.335,0.063,0.632,0.111,0.891,0.142c0.258,0.033,0.478,0.049,0.66,0.049c0.656,0,1.219-0.255,1.696-0.761
			c0.475-0.508,0.714-1.164,0.714-1.972c0-0.553-0.112-1.068-0.341-1.544c-0.226-0.477-0.549-0.83-0.964-1.068
			c-0.416-0.235-0.888-0.354-1.415-0.354c-0.321,0-0.732,0.06-1.24,0.179L215.281,27.11L215.281,27.11z"/>
		<path fill="#B20E10" d="M236.603,33.65h-3.419l-4.338-5.99c-0.32,0.013-0.583,0.019-0.783,0.019c-0.082,0-0.17-0.002-0.266-0.004
			c-0.094-0.005-0.192-0.009-0.292-0.015v3.722c0,0.809,0.087,1.308,0.265,1.502c0.237,0.277,0.597,0.418,1.075,0.418h0.502v0.349
			h-5.492v-0.349h0.483c0.542,0,0.929-0.178,1.163-0.531c0.131-0.193,0.198-0.656,0.198-1.389v-8.276
			c0-0.806-0.089-1.308-0.265-1.502c-0.246-0.276-0.612-0.417-1.098-0.417h-0.483v-0.35h4.67c1.362,0,2.366,0.099,3.009,0.298
			c0.646,0.199,1.194,0.563,1.645,1.097c0.453,0.531,0.676,1.166,0.676,1.902c0,0.788-0.257,1.47-0.771,2.05
			c-0.513,0.582-1.309,0.989-2.387,1.229l2.647,3.675c0.604,0.845,1.124,1.405,1.558,1.682c0.436,0.276,1.004,0.454,1.701,0.531
			L236.603,33.65L236.603,33.65z M227.506,27.061c0.119,0,0.222,0.005,0.311,0.008c0.089,0.002,0.159,0.004,0.217,0.004
			c1.221,0,2.144-0.265,2.764-0.794c0.621-0.528,0.929-1.203,0.929-2.021c0-0.8-0.249-1.451-0.749-1.951
			c-0.502-0.5-1.166-0.752-1.988-0.752c-0.367,0-0.861,0.06-1.483,0.18L227.506,27.061L227.506,27.061z"/>
		<path fill="#B20E10" d="M243.857,33.301v0.349h-5.488v-0.349h0.452c0.531,0,0.913-0.155,1.154-0.465
			c0.148-0.2,0.225-0.687,0.225-1.455v-8.276c0-0.65-0.041-1.078-0.121-1.285c-0.066-0.157-0.193-0.294-0.387-0.408
			c-0.279-0.15-0.567-0.227-0.871-0.227h-0.452v-0.349h5.488v0.349h-0.463c-0.523,0-0.902,0.156-1.144,0.464
			c-0.158,0.2-0.236,0.686-0.236,1.455v8.276c0,0.647,0.042,1.077,0.124,1.286c0.063,0.157,0.194,0.291,0.396,0.404
			c0.271,0.152,0.559,0.229,0.86,0.229L243.857,33.301L243.857,33.301z"/>
		<path fill="#B20E10" d="M254.652,20.543v4.433h-0.349c-0.113-0.852-0.317-1.529-0.609-2.032c-0.293-0.503-0.713-0.904-1.253-1.2
			c-0.542-0.296-1.101-0.444-1.681-0.444c-0.655,0-1.196,0.2-1.627,0.6c-0.427,0.401-0.641,0.856-0.641,1.365
			c0,0.391,0.135,0.748,0.404,1.068c0.391,0.473,1.322,1.103,2.788,1.889c1.198,0.644,2.013,1.136,2.45,1.478
			c0.439,0.345,0.778,0.75,1.014,1.217c0.235,0.465,0.354,0.953,0.354,1.463c0,0.973-0.376,1.806-1.129,2.511
			c-0.752,0.7-1.721,1.05-2.905,1.05c-0.372,0-0.722-0.026-1.048-0.083c-0.195-0.03-0.6-0.145-1.214-0.346
			c-0.614-0.195-1.003-0.299-1.168-0.299c-0.156,0-0.283,0.05-0.373,0.143c-0.091,0.096-0.158,0.293-0.203,0.585h-0.348v-4.391
			h0.348c0.164,0.919,0.386,1.606,0.66,2.064c0.279,0.455,0.701,0.835,1.271,1.139c0.571,0.303,1.196,0.453,1.876,0.453
			c0.788,0,1.412-0.21,1.866-0.625c0.456-0.413,0.686-0.905,0.686-1.472c0-0.317-0.086-0.634-0.259-0.955
			c-0.176-0.322-0.443-0.62-0.81-0.899c-0.245-0.188-0.917-0.588-2.014-1.203c-1.096-0.614-1.875-1.104-2.338-1.471
			c-0.462-0.364-0.813-0.77-1.054-1.209c-0.239-0.441-0.357-0.926-0.357-1.456c0-0.919,0.354-1.711,1.059-2.377
			c0.704-0.663,1.604-0.996,2.691-0.996c0.682,0,1.401,0.167,2.165,0.5c0.354,0.157,0.602,0.237,0.747,0.237
			c0.164,0,0.296-0.05,0.4-0.146c0.104-0.098,0.187-0.295,0.25-0.591h0.349V20.543z"/>
		<path fill="#B20E10" d="M262.036,21.537v5.064h2.817c0.729,0,1.216-0.11,1.462-0.332c0.329-0.289,0.511-0.798,0.55-1.531h0.35
			v4.463h-0.35c-0.09-0.626-0.176-1.024-0.265-1.199c-0.113-0.223-0.301-0.395-0.559-0.521c-0.259-0.128-0.653-0.188-1.188-0.188
			h-2.818v4.223c0,0.565,0.027,0.91,0.077,1.034c0.05,0.123,0.138,0.222,0.266,0.293c0.124,0.072,0.364,0.11,0.717,0.11h2.174
			c0.725,0,1.249-0.053,1.576-0.154c0.328-0.099,0.644-0.297,0.945-0.594c0.391-0.391,0.791-0.979,1.203-1.767h0.375l-1.105,3.213
			h-9.873v-0.349h0.453c0.302,0,0.588-0.075,0.861-0.219c0.2-0.099,0.337-0.251,0.409-0.451c0.073-0.205,0.11-0.614,0.11-1.24
			v-8.324c0-0.813-0.082-1.313-0.247-1.503c-0.225-0.252-0.604-0.378-1.133-0.378h-0.453v-0.35h9.873l0.142,2.807h-0.367
			c-0.134-0.674-0.279-1.138-0.439-1.388c-0.161-0.254-0.399-0.445-0.714-0.576c-0.251-0.096-0.696-0.143-1.331-0.143H262.036z"/>
	</g>
</g>
</svg>
