<?xml version="1.0" encoding="utf-8"?>
<!-- Generator: Adobe Illustrator 15.1.0, SVG Export Plug-In . SVG Version: 6.00 Build 0)  -->
<svg version="1.2" baseProfile="tiny" id="Layer_1" xmlns="http://www.w3.org/2000/svg" xmlns:xlink="http://www.w3.org/1999/xlink"
	 x="0px" y="0px" width="100px" height="100px" viewBox="233.465 233.465 100 100" xml:space="preserve">
<g>
	<path fill="#C1272D" d="M254.107,289.707c-0.641,0-1.16,0.52-1.16,1.16s0.519,1.158,1.16,1.158h17.716
		c0.017-0.807,0.156-1.576,0.367-2.318H254.107z M279.579,280.375h-25.472c-0.641,0-1.16,0.518-1.16,1.159s0.519,1.16,1.16,1.16
		h25.472V280.375z M299.437,256.6l0.235-0.002c0.133,0,0.251,0.004,0.368,0.015c0.266,0.008,0.526,0.038,0.789,0.056v-12.094
		c0-5.401-4.375-9.794-9.749-9.794l-40.299-0.023c-5.374,0-9.749,4.383-9.749,9.771v77.85c0,5.4,4.375,9.793,9.749,9.793
		l40.299-0.021c5.377,0,9.749-4.383,9.749-9.771v-3.18h-4.639v2.754h-50.519v-77h50.519v11.955
		C297.254,256.727,298.334,256.608,299.437,256.6z M264.671,324.695h12.177c1.282,0,2.319,1.039,2.319,2.32
		s-1.038,2.318-2.319,2.318h-12.177c-1.282,0-2.319-1.037-2.319-2.318S263.388,324.695,264.671,324.695z M280.377,271.042h-26.27
		c-0.641,0-1.16,0.52-1.16,1.161c0,0.641,0.519,1.16,1.16,1.16h25.758C279.991,272.577,280.156,271.802,280.377,271.042z
		 M254.107,301.357h17.698v-2.318h-17.698c-0.641,0-1.16,0.52-1.16,1.158C252.948,300.84,253.466,301.357,254.107,301.357z
		 M254.107,310.689h17.771c-0.018-0.24-0.073-0.471-0.073-0.719v-1.602h-17.698c-0.641,0-1.16,0.52-1.16,1.16
		C252.948,310.172,253.466,310.689,254.107,310.689z M288.924,257.797c0-1.921-1.559-3.479-3.479-3.479h-29.028
		c-1.92,0-3.479,1.558-3.479,3.479s1.559,3.479,3.479,3.479h29.028C287.365,261.276,288.924,259.718,288.924,257.797z"/>
	<path fill="#C1272D" d="M318.095,286.244h-1.807v-9.618c0.008-4.478-1.734-8.687-4.899-11.853c-3.1-3.099-7.191-4.832-11.558-4.902
		c-0.075-0.009-0.132-0.021-0.229-0.011c-4.477,0-8.682,1.744-11.852,4.91c-3.166,3.169-4.909,7.38-4.907,11.855v9.618h-1.807
		c-3.296,0-5.967,2.67-5.967,5.965v17.762c0,3.293,2.671,5.967,5.967,5.967h37.059c3.296,0,5.966-2.674,5.966-5.967v-17.762
		C324.061,288.914,321.39,286.244,318.095,286.244z M287.735,276.626c-0.002-3.169,1.234-6.15,3.478-8.394
		c2.188-2.188,5.075-3.416,8.157-3.475c0.056,0.004,0.109,0.004,0.166,0.004c0.006,0,0.014,0,0.021,0
		c3.163,0,6.134,1.232,8.372,3.47c2.24,2.242,3.471,5.218,3.469,8.39v9.622h-23.662V276.626z M303.642,299.092
		c0,1.332-0.646,2.502-1.63,3.248v4.221c0,1.352-1.094,2.447-2.445,2.447c-1.354,0-2.447-1.096-2.447-2.447v-4.221
		c-0.984-0.746-1.631-1.916-1.631-3.248v-1.842c0-2.25,1.825-4.076,4.078-4.076c2.25,0,4.075,1.826,4.075,4.076V299.092
		L303.642,299.092z"/>
</g>
</svg>
