<?xml version="1.0" encoding="utf-8"?>
<!-- Generator: Adobe Illustrator 15.1.0, SVG Export Plug-In . SVG Version: 6.00 Build 0)  -->
<svg version="1.2" baseProfile="tiny" id="Layer_1" xmlns="http://www.w3.org/2000/svg" xmlns:xlink="http://www.w3.org/1999/xlink"
	 x="0px" y="0px" width="217.297px" height="114.609px" viewBox="0 0 217.297 114.609" xml:space="preserve">
<path id="path12" fill="#419AD5" d="M15.148,90.276h187V24.334h-187V90.276z"/>
<rect x="15.148" y="24.334" fill="none" width="187" height="65.941"/>
<g id="g22" transform="translate(13.8416,20.4494)">
	<path id="path24" fill="#419AD5" d="M23.912,36.427l-2.218,12.738c-0.145,0.828,0.411,1.5,1.238,1.5c0.83,0,1.618-0.672,1.762-1.5
		l2.22-12.738c0.144-0.828-0.412-1.5-1.242-1.5C24.847,34.927,24.058,35.6,23.912,36.427"/>
</g>
<g id="g26" transform="translate(17.6109,24.1595)">
	<path id="path28" fill="#419AD5" d="M26.299,26.659L23.31,43.826c-0.145,0.83,0.409,1.5,1.237,1.5c0.83,0,1.617-0.67,1.761-1.5
		L29.3,26.659c0.145-0.828-0.41-1.5-1.238-1.5C27.232,25.159,26.445,25.831,26.299,26.659"/>
</g>
<g id="g30" transform="translate(20.9052,25.1564)">
	<path id="path32" fill="#FFFFFF" d="M28.385,24.034l-2.218,12.738c-0.144,0.828,0.41,1.5,1.238,1.5c0.83,0,1.617-0.672,1.761-1.5
		l2.219-12.738c0.146-0.829-0.409-1.5-1.237-1.5C29.319,22.534,28.528,23.205,28.385,24.034"/>
</g>
<g id="g34" transform="translate(27.358,21.3333)">
	<path id="path36" fill="#419AD5" d="M32.472,34.1c-0.807,0.034-1.559,0.691-1.701,1.5l-0.332,1.9
		c-0.144,0.828,0.412,1.499,1.239,1.499c0.276,0,0.545-0.072,0.79-0.203L32.472,34.1z"/>
</g>
<g id="g38" transform="translate(23.752,18.2941)">
	<path id="path40" fill="#419AD5" d="M30.187,42.103c0.827,0,1.617-0.673,1.761-1.501l1.158-6.648
		c0.146-0.828-0.41-1.499-1.239-1.499s-1.617,0.671-1.761,1.499l-1.157,6.648C28.805,41.43,29.36,42.103,30.187,42.103"/>
</g>
<g id="g42" transform="translate(7.274,18.5932)">
	<path id="path44" fill="#419AD5" d="M19.754,41.316l-0.33,1.9c-0.144,0.828,0.409,1.499,1.238,1.499
		c0.829,0,1.617-0.671,1.763-1.499l0.329-1.9c0.144-0.829-0.409-1.502-1.239-1.502C20.687,39.814,19.9,40.487,19.754,41.316"/>
</g>
<g id="g46" transform="translate(10.3958,18.5932)">
	<path id="path48" fill="#419AD5" d="M21.73,41.316l-1.158,6.648c-0.143,0.827,0.411,1.498,1.238,1.498
		c0.83,0,1.617-0.671,1.761-1.498l1.16-6.648c0.144-0.829-0.411-1.502-1.24-1.502C22.663,39.814,21.875,40.487,21.73,41.316"/>
</g>
<path id="path52" fill="#FFFFFF" d="M56.858,52.249L55.7,58.897c-0.144,0.828-0.934,1.502-1.761,1.502
	c-0.828,0-1.383-0.674-1.238-1.502l1.157-6.648c0.144-0.829,0.932-1.5,1.761-1.5S57.004,51.42,56.858,52.249 M52.292,49.189
	l-2.22,12.74c-0.145,0.827-0.933,1.498-1.762,1.498c-0.828,0-1.382-0.671-1.238-1.498l2.218-12.74
	c0.144-0.828,0.934-1.499,1.762-1.499C51.88,47.69,52.436,48.361,52.292,49.189 M46.911,50.818l-2.993,17.167
	c-0.144,0.83-0.931,1.499-1.76,1.499c-0.829,0-1.381-0.669-1.238-1.499l2.99-17.167c0.145-0.827,0.932-1.498,1.76-1.498
	C46.5,49.321,47.056,49.991,46.911,50.818 M40.755,56.878l-2.22,12.739c-0.144,0.827-0.932,1.498-1.761,1.498
	c-0.828,0-1.383-0.671-1.237-1.498l2.218-12.739c0.144-0.829,0.934-1.5,1.761-1.5C40.345,55.378,40.899,56.049,40.755,56.878
	 M35.127,59.909l-1.16,6.646c-0.144,0.83-0.931,1.502-1.76,1.502c-0.829,0-1.381-0.672-1.238-1.502l1.158-6.646
	c0.144-0.829,0.932-1.5,1.761-1.5C34.716,58.409,35.271,59.08,35.127,59.909 M30.028,59.909l-0.329,1.899
	c-0.146,0.83-0.934,1.501-1.763,1.501c-0.828,0-1.381-0.671-1.235-1.501l0.328-1.899c0.146-0.829,0.933-1.5,1.761-1.5
	C29.619,58.409,30.171,59.08,30.028,59.909 M58.129,56.934c0.142-0.809,0.894-1.467,1.701-1.5V43.896
	c0-2.973-2.409-5.383-5.381-5.383H30.735c-2.97,0-5.38,2.41-5.38,5.383v23.711c0,2.973,2.41,5.382,5.38,5.382h23.713
	c2.972,0,5.381-2.409,5.381-5.382v-7.479c-0.245,0.132-0.517,0.205-0.793,0.205c-0.828,0-1.383-0.671-1.239-1.5L58.129,56.934z"/>
<g id="g54" transform="translate(21.9839,26.0741)">
	<path id="path56" fill="#419AD5" d="M29.068,21.617c-0.828,0-1.618,0.671-1.762,1.499l-2.218,12.739
		c-0.144,0.828,0.409,1.499,1.239,1.499c0.828,0,1.617-0.671,1.761-1.499l2.219-12.739C30.452,22.288,29.896,21.617,29.068,21.617"
		/>
</g>
<g id="g58" transform="translate(72.2673,8.7789)">
	<path id="path60" fill="#FFFFFF" d="M60.908,67.158h1.03c0,0,0.004-3.826,0.004-4.293c0.294,0.366,3.468,4.293,3.468,4.293
		l1.11,0.002v-5.801l-1.028-0.002c0,0-0.001,3.829-0.001,4.294c-0.294-0.364-3.468-4.294-3.468-4.294H60.91L60.908,67.158z"/>
</g>
<g id="g62" transform="translate(76.5522,8.7778)">
	<path id="path64" fill="#FFFFFF" d="M63.621,67.161l4.782,0.004v-0.923c0,0-3.561-0.002-3.75-0.002v-1.612h3.563v-0.921h-3.563
		c0-0.165,0.001-1.261,0.001-1.424c0.188,0,3.673,0.002,3.673,0.002v-0.923l-4.705-0.002L63.621,67.161z"/>
</g>
<g id="g66" transform="translate(80.0556,11.7643)">
	<path id="path68" fill="#FFFFFF" d="M65.839,59.296c0,0,1.938,0.003,2.118,0.003c0,0.188-0.004,4.878-0.004,4.878h1.031
		c0,0,0.004-4.688,0.004-4.878h2.118v-0.921l-5.268-0.003V59.296z"/>
</g>
<g id="g70" transform="translate(84.9568,8.7749)">
	<path id="path72" fill="#FFFFFF" d="M68.943,67.169h1.062c0,0,1.326-3.987,1.482-4.452c0.154,0.465,1.486,4.454,1.486,4.454h1.053
		l1.97-5.8h-1.076c0,0-1.216,3.876-1.364,4.351c-0.162-0.471-1.472-4.352-1.472-4.352H70.95c0,0-1.275,3.872-1.433,4.349
		c-0.151-0.48-1.371-4.353-1.371-4.353h-1.112L68.943,67.169z"/>
</g>
<g id="g74" transform="translate(90.4393,9.6127)">
	<path id="path76" fill="#FFFFFF" d="M72.414,64.963c-0.373-0.374-0.561-0.885-0.561-1.527v-0.001c0-0.641,0.188-1.154,0.562-1.528
		c0.387-0.389,0.948-0.592,1.62-0.592h0.002c1.348,0,2.183,0.813,2.183,2.121c0,1.309-0.839,2.121-2.185,2.121
		C73.363,65.556,72.801,65.35,72.414,64.963 M74.037,60.393c-1.006,0-1.806,0.287-2.377,0.858c-0.54,0.541-0.839,1.315-0.839,2.183
		c0,0.865,0.298,1.641,0.838,2.182c0.569,0.57,1.369,0.861,2.376,0.861c2.372,0,3.214-1.639,3.217-3.042
		C77.252,62.033,76.411,60.394,74.037,60.393"/>
</g>
<g id="g78" transform="translate(94.7363,11.7592)">
	<path id="path80" fill="#FFFFFF" d="M75.134,59.31h2.248c0.571,0.002,0.887,0.284,0.887,0.795c0,0.296-0.119,0.787-0.911,0.787
		c0,0-2.04-0.001-2.225-0.001C75.133,60.725,75.134,59.479,75.134,59.31 M74.102,64.189l1.031,0.001v-2.376h2.074
		c0.58,0,0.927,0.199,0.982,1.218l0.011,0.18c0.031,0.565,0.043,0.778,0.184,0.944l0.031,0.036h1.143l-0.141-0.167
		c-0.17-0.195-0.198-0.45-0.242-1.46c-0.031-0.62-0.287-1.043-0.686-1.208c0.51-0.248,0.812-0.729,0.812-1.376
		c0-0.733-0.428-1.59-1.63-1.59l-3.566-0.004L74.102,64.189z"/>
</g>
<g id="g82" transform="translate(98.1868,8.7702)">
	<path id="path84" fill="#FFFFFF" d="M77.319,67.181l1.032,0.002c0,0,0.002-1.799,0.002-1.884c0.058-0.052,0.783-0.694,0.906-0.805
		c0.124,0.149,2.256,2.688,2.256,2.688l1.408,0.001c0,0-2.76-3.227-2.883-3.37c0.141-0.122,2.785-2.431,2.785-2.431l-1.48-0.002
		c0,0-2.692,2.424-2.992,2.691v-2.691l-1.03-0.001L77.319,67.181z"/>
</g>
<g id="g86" transform="translate(102.1073,11.3035)">
	<path id="path88" fill="#FFFFFF" d="M79.802,60.51c-0.001,1.277,1.314,1.495,1.747,1.566l1.27,0.212
		c0.681,0.116,0.961,0.329,0.961,0.733c0,0.188-0.07,0.351-0.2,0.482c-0.237,0.236-0.67,0.367-1.216,0.367
		c-0.63-0.001-1.689-0.152-1.704-1.164v-0.1h-1.03v0.1c0,0.574,0.176,1.042,0.521,1.39c0.574,0.573,1.486,0.695,2.148,0.695
		c0.51,0,1.447-0.086,2.023-0.663c0.324-0.321,0.486-0.751,0.486-1.272c0-1.217-1.32-1.454-1.755-1.531
		c-0.013-0.004-1.385-0.236-1.385-0.236c-0.75-0.13-0.836-0.428-0.836-0.641c0-0.191,0.066-0.355,0.197-0.485
		c0.207-0.209,0.585-0.333,1.006-0.333c1.266,0,1.499,0.546,1.563,0.953l0.015,0.084h1.023l-0.009-0.106
		c-0.066-1.176-0.974-1.852-2.484-1.852C80.702,58.707,79.802,59.396,79.802,60.51"/>
</g>
<g id="g90" transform="translate(38.3587,17.0813)">
	<path id="path92" fill="#FFFFFF" d="M39.437,45.297c-3.366,0-3.877-2.892-3.877-6.183c0-3.293,0.511-6.146,3.877-6.146
		c3.366,0,3.841,2.853,3.841,6.146C43.278,42.405,42.802,45.297,39.437,45.297 M44.924,31.286c-1.024-1.026-2.671-1.648-4.537-1.648
		c-2.011,0-3.512,0.513-4.902,2.196V30.74c-0.426-0.554-1.087-0.914-1.838-0.914c-0.751,0-1.398,0.358-1.82,0.915v25.164h3.732
		v-9.401c1.352,1.608,2.889,2.12,4.865,2.12c1.865,0,3.476-0.621,4.5-1.646c1.866-1.865,2.085-5.048,2.085-7.865
		C47.009,36.295,46.791,33.15,44.924,31.286"/>
</g>
<g id="g94" transform="translate(51.3107,20.1949)">
	<path id="path96" fill="#FFFFFF" d="M47.638,37.098h-4.354c-2.195,0-3.329,0.985-3.329,2.67c0,1.684,1.062,2.634,3.402,2.634
		c1.428,0,2.488-0.109,3.476-1.062c0.549-0.549,0.805-1.426,0.805-2.743V37.098z M47.711,45.294v-1.685
		c-1.353,1.354-2.634,1.903-4.938,1.903c-2.306,0-3.842-0.55-4.977-1.685c-0.95-0.988-1.463-2.414-1.463-3.985
		c0-3.11,2.159-5.341,6.404-5.341h4.901v-1.318c0-2.342-1.171-3.475-4.06-3.475c-2.05,0-3.036,0.475-4.062,1.791l-2.451-2.303
		c1.757-2.049,3.586-2.671,6.66-2.671c5.084,0,7.645,2.159,7.645,6.366v12.402H47.711z"/>
</g>
<g id="g98" transform="translate(59.3627,17.1264)">
	<path id="path100" fill="#FFFFFF" d="M52.737,45.178c-1.501,0-2.012-0.731-2.012-2.159l-0.003-20.7
		c-0.433-0.566-1.109-0.932-1.873-0.932c-0.768,0-1.426,0.365-1.856,0.932v20.921c0,2.743,1.535,5.121,5.084,5.121h2.306v-3.183
		H52.737z"/>
</g>
<g id="g102" transform="translate(67.5768,23.9807)">
	<path id="path104" fill="#FFFFFF" d="M57.938,27.129c-0.696-0.696-1.647-1.063-2.744-1.063c-1.098,0-2.012,0.366-2.708,1.063
		c-1.133,1.132-1.28,3.072-1.28,5.086c0,2.009,0.147,3.95,1.28,5.083c0.696,0.695,1.61,1.098,2.708,1.098
		c1.097,0,2.048-0.402,2.744-1.098c1.133-1.134,1.28-3.074,1.28-5.083C59.218,30.201,59.071,28.262,57.938,27.129 M60.752,39.53
		c-1.207,1.244-3.036,2.196-5.559,2.196c-2.525,0-4.317-0.952-5.523-2.196c-1.758-1.829-2.196-4.17-2.196-7.315
		c0-3.11,0.438-5.452,2.196-7.281c1.206-1.244,2.998-2.195,5.523-2.195c2.522,0,4.352,0.951,5.559,2.195
		c1.759,1.829,2.195,4.171,2.195,7.281C62.948,35.36,62.511,37.701,60.752,39.53"/>
</g>
<g id="g106" transform="translate(87.3217,17.1264)">
	<path id="path108" fill="#FFFFFF" d="M70.44,45.178c-1.499,0-2.012-0.731-2.012-2.159l-0.002-20.7
		c-0.433-0.566-1.107-0.932-1.874-0.932s-1.425,0.365-1.856,0.932v20.921c0,2.743,1.537,5.121,5.086,5.121h2.304v-3.183H70.44z"/>
</g>
<g id="g110" transform="translate(78.9608,20.1949)">
	<path id="path112" fill="#FFFFFF" d="M65.147,37.098h-4.354c-2.193,0-3.329,0.985-3.329,2.67c0,1.684,1.06,2.634,3.403,2.634
		c1.426,0,2.485-0.109,3.473-1.062c0.55-0.549,0.808-1.426,0.808-2.743V37.098z M65.218,45.294v-1.685
		c-1.353,1.354-2.633,1.903-4.938,1.903c-2.304,0-3.841-0.55-4.976-1.685c-0.952-0.988-1.463-2.414-1.463-3.985
		c0-3.11,2.156-5.341,6.401-5.341h4.903v-1.318c0-2.342-1.172-3.475-4.063-3.475c-2.048,0-3.036,0.475-4.06,1.791l-2.452-2.303
		c1.756-2.049,3.585-2.671,6.659-2.671c5.086,0,7.646,2.159,7.646,6.366v12.402H65.218z"/>
</g>
<g id="g114" transform="translate(94.677,24.5853)">
	<path id="path116" fill="#FFFFFF" d="M75.096,25.537v-2.853h-3.584v-5.618c-0.433-0.563-1.109-0.931-1.875-0.931
		c-0.769,0-1.424,0.365-1.855,0.933v5.616h-2.123v2.853h2.123v10.206c0,2.673,1.608,5.159,5.084,5.159h2.23v-3.183h-1.534
		c-1.392,0-2.05-0.806-2.05-2.159V25.537H75.096z"/>
</g>
<g id="g118" transform="translate(102.4509,23.9807)">
	<path id="path120" fill="#FFFFFF" d="M80.019,27.129c-0.693-0.696-1.645-1.063-2.741-1.063c-1.1,0-2.014,0.366-2.71,1.063
		c-1.131,1.132-1.278,3.072-1.278,5.086c0,2.009,0.147,3.95,1.278,5.083c0.696,0.695,1.61,1.098,2.71,1.098
		c1.097,0,2.048-0.402,2.741-1.098c1.136-1.134,1.281-3.074,1.281-5.083C81.3,30.201,81.155,28.262,80.019,27.129 M82.837,39.53
		c-1.207,1.244-3.037,2.196-5.56,2.196c-2.525,0-4.318-0.952-5.525-2.196c-1.756-1.829-2.195-4.17-2.195-7.315
		c0-3.11,0.439-5.452,2.195-7.281c1.207-1.244,3-2.195,5.525-2.195c2.522,0,4.353,0.951,5.56,2.195
		c1.757,1.829,2.195,4.171,2.195,7.281C85.033,35.36,84.594,37.701,82.837,39.53"/>
</g>
<g id="g122" transform="translate(107.2711,11.8602)">
	<path id="path124" fill="#FFFFFF" d="M83.073,59.044h-0.339v0.634h0.339c0.199,0,0.341-0.132,0.341-0.313
		C83.413,59.182,83.272,59.044,83.073,59.044 M83.422,60.632l-0.415-0.738h-0.273v0.738h-0.25v-1.812H83.1
		c0.313,0,0.569,0.236,0.569,0.544c0,0.265-0.165,0.429-0.389,0.496l0.434,0.771H83.422z M83.021,58.32
		c-0.766,0-1.386,0.634-1.386,1.408c0,0.776,0.62,1.411,1.386,1.411c0.768,0,1.391-0.635,1.391-1.411
		C84.411,58.954,83.788,58.32,83.021,58.32 M83.021,61.38c-0.912,0-1.651-0.738-1.651-1.652c0-0.912,0.739-1.65,1.651-1.65
		s1.651,0.738,1.651,1.65C84.672,60.642,83.933,61.38,83.021,61.38"/>
</g>
</svg>
