<?xml version="1.0" encoding="utf-8"?>
<!-- Generator: Adobe Illustrator 15.1.0, SVG Export Plug-In . SVG Version: 6.00 Build 0)  -->
<svg version="1.2" baseProfile="tiny" id="Layer_1" xmlns="http://www.w3.org/2000/svg" xmlns:xlink="http://www.w3.org/1999/xlink"
	 x="0px" y="0px" width="100px" height="100px" viewBox="233.465 233.465 100 100" xml:space="preserve">
<g>
	<path fill="#C1272D" stroke="#C1272D" stroke-miterlimit="10" d="M309.389,252.129c-3.36,0-6.093-2.733-6.093-6.094
		c0-3.36,2.732-6.093,6.093-6.093s6.094,2.733,6.094,6.093C315.483,249.396,312.749,252.129,309.389,252.129z M309.389,241.798
		c-2.336,0-4.237,1.903-4.237,4.237c0,2.338,1.901,4.238,4.237,4.238c2.339,0,4.238-1.899,4.238-4.238
		C313.627,243.701,311.728,241.798,309.389,241.798z"/>
	<path fill="#C1272D" stroke="#C1272D" stroke-miterlimit="10" d="M306.942,286.321c-3.374,0-6.117-2.733-6.117-6.093
		c0-3.361,2.743-6.093,6.117-6.093c3.375,0,6.12,2.732,6.12,6.093C313.062,283.589,310.317,286.321,306.942,286.321z
		 M306.942,275.991c-2.349,0-4.262,1.901-4.262,4.238s1.913,4.236,4.262,4.236c2.352,0,4.264-1.899,4.264-4.236
		S309.293,275.991,306.942,275.991z"/>
	<path fill="#C1272D" stroke="#C1272D" stroke-miterlimit="10" d="M319.13,313.545c-3.361,0-6.094-2.734-6.094-6.096
		c0-3.358,2.732-6.092,6.094-6.092c3.359,0,6.092,2.733,6.092,6.092C325.222,310.811,322.49,313.545,319.13,313.545z
		 M319.13,303.213c-2.339,0-4.238,1.9-4.238,4.236c0,2.338,1.899,4.239,4.238,4.239c2.335,0,4.237-1.901,4.237-4.239
		C323.367,305.113,321.465,303.213,319.13,303.213z"/>
	<path fill="#C1272D" stroke="#C1272D" stroke-miterlimit="10" d="M262.337,257.296c-3.361,0-6.097-2.735-6.097-6.095
		c0-3.36,2.736-6.094,6.097-6.094c3.359,0,6.092,2.733,6.092,6.094C268.429,254.561,265.696,257.296,262.337,257.296z
		 M262.337,246.963c-2.339,0-4.24,1.903-4.24,4.238c0,2.337,1.9,4.239,4.24,4.239c2.333,0,4.237-1.902,4.237-4.239
		C266.574,248.866,264.671,246.963,262.337,246.963z"/>
	<path fill="#C1272D" stroke="#C1272D" stroke-miterlimit="10" d="M283.418,294.459h-2.058v-10.942
		c0.009-5.093-1.971-9.881-5.574-13.485c-3.524-3.526-8.181-5.499-13.149-5.578c-0.085-0.007-0.149-0.022-0.261-0.011
		c-5.089,0-9.878,1.982-13.48,5.585c-3.605,3.607-5.589,8.398-5.587,13.489v10.942h-2.056c-3.75,0-6.787,3.038-6.787,6.787v20.208
		c0,3.749,3.038,6.789,6.787,6.789h42.166c3.748,0,6.787-3.04,6.787-6.789v-20.208C290.205,297.497,287.166,294.459,283.418,294.459
		z M248.875,283.517c-0.002-3.607,1.405-6.997,3.956-9.55c2.491-2.489,5.775-3.888,9.28-3.953c0.062,0.003,0.127,0.004,0.192,0.004
		c0.003-0.001,0.015,0,0.019,0c3.598,0,6.98,1.401,9.526,3.95c2.55,2.548,3.949,5.937,3.944,9.544v10.946h-26.917L248.875,283.517
		L248.875,283.517z M266.976,309.077c0,1.516-0.735,2.847-1.856,3.691v4.806c0,1.537-1.246,2.783-2.783,2.783
		c-1.539,0-2.785-1.246-2.785-2.783v-4.806c-1.122-0.845-1.856-2.176-1.856-3.691v-2.095c0-2.563,2.076-4.64,4.641-4.64
		c2.562,0,4.639,2.076,4.639,4.64L266.976,309.077L266.976,309.077z"/>
	<path fill="#C1272D" stroke="#C1272D" stroke-miterlimit="10" d="M258.15,257.932c-1.087-0.679-1.987-1.612-2.639-2.72
		c-2.043,2.735-3.749,5.734-5.082,8.927c1.676-1.041,3.465-1.868,5.346-2.435C256.503,260.403,257.281,259.136,258.15,257.932z
		 M271.101,279.301h-4.12c0.019-1.433,0.107-2.833,0.212-4.224c-0.58-0.339-1.19-0.608-1.827-0.819
		c-0.142,1.652-0.232,3.335-0.253,5.042h-11.537c-0.285,0.596-0.511,1.213-0.67,1.855h12.207c0.043,3.313,0.336,6.516,0.817,9.591
		h1.872c-0.486-3.064-0.777-6.271-0.821-9.591h4.787C271.609,280.514,271.385,279.896,271.101,279.301z M316.795,248.866
		c-0.463,1.207-1.212,2.259-2.164,3.1c0.776,0.707,1.536,1.432,2.257,2.197c-2.32,1.5-4.881,2.813-7.665,3.88
		c-0.581-1.528-1.219-2.987-1.906-4.366c-1.061-0.29-2.023-0.787-2.859-1.456c1.137,1.944,2.17,4.076,3.05,6.417
		c-5.347,1.826-11.319,2.858-17.499,2.952v-19.484c1.662,0.04,3.293,0.198,4.896,0.447c2.512,1.214,4.843,3.2,6.916,5.787
		c-0.224-0.734-0.379-1.495-0.379-2.304c0-0.264,0.051-0.518,0.078-0.779c-0.558-0.578-1.124-1.133-1.707-1.634
		c0.627,0.185,1.239,0.398,1.852,0.612c0.298-1.269,0.908-2.409,1.734-3.364c-4.471-1.631-9.291-2.523-14.319-2.523
		c-8.138,0-15.736,2.342-22.172,6.373c1.044,0.739,1.883,1.731,2.472,2.874c2.777-1.686,5.782-3.038,8.968-3.972
		c-3.838,3.294-7.089,8.297-9.41,14.422c-0.557-0.213-1.064-0.48-1.603-0.712c-0.576,0.47-1.196,0.887-1.889,1.184
		c0.943,0.438,1.869,0.895,2.865,1.276c-0.179,0.527-0.315,1.098-0.48,1.64c0.597,0.147,1.188,0.312,1.77,0.507
		c0.154-0.512,0.279-1.053,0.446-1.553c5.546,1.896,11.725,2.965,18.105,3.06v15.855h-3.473c0.114,0.614,0.208,1.231,0.271,1.855
		h3.201v10.766c0.658,0.337,1.286,0.715,1.855,1.175v-11.94h9.055c-0.038-0.308-0.095-0.609-0.095-0.928
		c0-0.318,0.057-0.62,0.095-0.928h-9.055v-15.855c6.381-0.094,12.557-1.164,18.103-3.06c1.315,3.924,2.228,8.296,2.7,12.934
		c0.757,0.423,1.436,0.953,2.016,1.587c-0.418-5.439-1.434-10.559-2.978-15.115c3.024-1.158,5.796-2.594,8.302-4.239
		c5.473,6.439,8.834,14.707,9.053,23.748h-12.379c0.034,0.308,0.093,0.61,0.093,0.928c0,0.319-0.059,0.62-0.093,0.928h12.379
		c-0.165,6.875-2.155,13.296-5.5,18.81c1.211,0.42,2.293,1.102,3.161,2.008c3.867-6.344,6.099-13.787,6.099-21.745
		C330.963,267.755,325.477,256.545,316.795,248.866z M288.153,261.59c-6.181-0.094-12.153-1.127-17.501-2.953
		c2.925-7.771,7.384-13.563,12.604-16.085c1.604-0.248,3.233-0.406,4.897-0.446V261.59z M311.909,310.734
		c-3.597,2.704-7.67,4.803-12.097,6.104c3.84-3.296,7.088-8.3,9.407-14.424c1.021,0.394,1.978,0.849,2.936,1.301
		c0.299-0.557,0.654-1.075,1.073-1.543c-1.098-0.529-2.203-1.055-3.381-1.504c1.545-4.558,2.561-9.679,2.979-15.12
		c-0.58,0.636-1.259,1.167-2.016,1.588c-0.473,4.64-1.385,9.012-2.7,12.935c-4.651-1.588-9.759-2.557-15.047-2.896
		c0.257,0.605,0.465,1.23,0.604,1.888c4.868,0.37,9.559,1.295,13.84,2.759c-2.924,7.771-7.383,13.563-12.603,16.087
		c-0.326,0.05-0.66,0.079-0.986,0.124v3.422c0,0.119-0.014,0.23-0.018,0.348c7.574-0.874,14.549-3.747,20.351-8.12
		C313.254,312.899,312.443,311.899,311.909,310.734z"/>
</g>
</svg>
