<?xml version="1.0" encoding="utf-8"?>
<!-- Generator: Adobe Illustrator 15.1.0, SVG Export Plug-In . SVG Version: 6.00 Build 0)  -->
<svg version="1.2" baseProfile="tiny" id="Layer_1" xmlns="http://www.w3.org/2000/svg" xmlns:xlink="http://www.w3.org/1999/xlink"
	 x="0px" y="0px" width="217.297px" height="114.609px" viewBox="0 0 217.297 114.609" xml:space="preserve">
<g>
	<path fill="#01B552" d="M17.866,37.839h26.613c0.001,8.041,0.001,16.082,0.001,24.126c-0.004,0.766,0.019,1.532-0.035,2.298
		c-0.323-0.749-0.565-1.528-0.863-2.285c-1.875-4.813-4.672-9.265-8.201-13.039C30.627,43.812,24.521,39.976,17.866,37.839
		L17.866,37.839z"/>
	<path fill="#008FC5" d="M45.841,43.052c2.777-0.052,5.556-0.074,8.334-0.005c1.75-0.055,3.502-0.042,5.252-0.009
		c0.847,0.019,1.692-0.088,2.538-0.031c1.483,0.133,2.976-0.165,4.458,0.05c-0.006,0.896-0.003,1.792-0.003,2.687
		c-2.759,0.021-5.517-0.009-8.276,0.015c0.023,8.74-0.004,17.479,0.013,26.218c-1.245-0.175-2.504-0.057-3.755-0.108
		c-0.061-4.319-0.01-8.641-0.027-12.961c0.003-4.039-0.012-8.08,0.011-12.12c-0.001-0.338-0.081-0.669-0.177-0.993l-0.012-0.045
		c-2.787-0.01-5.573,0.022-8.358-0.017C45.846,44.84,45.842,43.945,45.841,43.052L45.841,43.052z"/>
	<path fill="#008FC5" d="M5.55,39.726c8.989-0.062,17.928,3.357,24.615,9.357c-2.312,3.215-5.115,6.048-8.082,8.658
		c-5.097,4.414-10.761,8.124-16.533,11.587V39.726L5.55,39.726z"/>
	<path fill="#008FC5" d="M54.209,45.795c0.096,0.323,0.175,0.654,0.177,0.993c-0.023,4.04-0.007,8.081-0.011,12.12
		c0.017,4.32-0.034,8.642,0.026,12.961c1.251,0.053,2.511-0.066,3.756,0.108c-1.32,0.082-2.645,0.008-3.967,0.043
		c-0.035-7.512-0.004-15.024-0.015-22.535C54.193,48.254,54.135,47.024,54.209,45.795L54.209,45.795z"/>
	<path fill="#008FC5" d="M113.23,46.934c1.199-0.208,2.4-0.411,3.598-0.624c-0.022,1.686,0.065,3.377-0.046,5.059
		c-0.42-1.475,0.047-3.044-0.24-4.537c-0.134-0.312-0.527-0.157-0.781-0.141c-0.736,0.169-1.499,0.24-2.213,0.494
		c-0.146,0.451-0.124,0.933-0.124,1.399c0.027,0.994,0.016,1.988-0.006,2.982c-0.83,0.157-1.675,0.091-2.513,0.118
		c-0.178,0.031-0.466,0.012-0.523,0.231c-0.119,0.455-0.024,0.932,0,1.395c0.988,0.096,2.004-0.079,2.974,0.167
		c0.116,0.607,0.059,1.23,0.064,1.845c0.014,4.189-0.044,8.377-0.004,12.567c0.02,1.049,0.153,2.226,0.966,2.983
		c0.824,0.896,2.07,1.273,3.263,1.265c1.169,0.044,2.349-0.108,3.456-0.488c0.158-0.071,0.368-0.138,0.42-0.326
		c0.13-0.549,0.043-1.12,0.021-1.679c-1.023,0.234-2.105,0.502-3.144,0.198c-1.083-0.324-1.87-1.479-1.585-2.61
		c0.157,0.834,0.385,1.801,1.223,2.214c1.203,0.549,2.588,0.227,3.777-0.21c-0.007,0.816,0.008,1.632-0.013,2.449
		c-1.669,0.557-3.47,0.889-5.221,0.575c-1.255-0.228-2.514-0.972-3.024-2.186c-0.386-1.004-0.402-2.099-0.416-3.16
		c0.023-0.749,0.018-1.499-0.002-2.247c0.029-2.266-0.002-4.532,0.016-6.799c0.07-1.389,0.017-2.779,0.043-4.168l0.002-0.178
		c-1.014,0.001-2.028,0.001-3.043,0.009c0.015-0.708,0.019-1.417-0.035-2.124c1.038,0.012,2.081,0.017,3.121-0.005
		C113.218,49.914,113.23,48.424,113.23,46.934L113.23,46.934z"/>
	<path fill="#008FC5" d="M115.761,46.691c0.254-0.016,0.647-0.17,0.781,0.141c0.287,1.492-0.18,3.062,0.24,4.537
		c1.293,0.114,2.599,0.013,3.897,0.051c0.002,0.712,0.002,1.427,0.002,2.139c-1.287,0.009-2.573-0.003-3.859,0.008
		c-0.007,2.21,0.031,4.425-0.018,6.635c-0.084,1.065-0.037,2.135-0.044,3.202c0.008,1.113-0.045,2.229,0.045,3.339
		c0.01,0.163,0.011,0.326,0.006,0.489c-0.285,1.132,0.503,2.288,1.585,2.61c1.038,0.304,2.12,0.036,3.144-0.196
		c0.022,0.558,0.109,1.128-0.021,1.677c-0.052,0.188-0.262,0.255-0.42,0.326c-1.107,0.381-2.287,0.532-3.456,0.489
		c-1.192,0.008-2.438-0.369-3.264-1.266c-0.812-0.757-0.945-1.935-0.965-2.983c-0.039-4.189,0.019-8.378,0.004-12.566
		c-0.006-0.615,0.053-1.238-0.064-1.846c-0.97-0.246-1.985-0.071-2.974-0.167c-0.024-0.462-0.119-0.94,0-1.395
		c0.059-0.219,0.346-0.199,0.523-0.231c0.839-0.027,1.683,0.039,2.514-0.118c0.021-0.994,0.033-1.987,0.006-2.982
		c0-0.466-0.022-0.949,0.124-1.399C114.262,46.931,115.024,46.861,115.761,46.691L115.761,46.691z"/>
	<path fill="#008FC5" d="M96.981,52.479c1.599-1.26,3.721-1.56,5.7-1.507c1.809,0.063,3.731,0.511,5.073,1.804
		c1.219,1.163,1.671,2.919,1.589,4.561c-1.119,0.007-2.237-0.004-3.355,0.009c0.013-0.985-0.069-2.042-0.701-2.847
		c-0.834-1.115-2.343-1.412-3.66-1.296c-1.124,0.084-2.325,0.53-2.952,1.521c-0.623,0.922-0.625,2.27,0.146,3.11
		c0.927,1.016,2.3,1.402,3.576,1.776c1.938,0.577,4.035,0.994,5.604,2.364c1.189,1.004,1.792,2.576,1.759,4.113
		c0.041,1.458-0.405,2.96-1.389,4.059c-0.953,1.089-2.327,1.724-3.726,2.01c-1.802,0.363-3.677,0.352-5.476-0.021
		c-1.375-0.289-2.725-0.94-3.612-2.059c-0.978-1.242-1.309-2.904-1.151-4.453c1.171-0.034,2.342-0.003,3.515-0.014
		c-0.031,1.139,0.128,2.392,0.944,3.258c0.926,0.99,2.365,1.24,3.665,1.2c1.175-0.025,2.5-0.336,3.211-1.358
		c0.816-1.228,0.709-3.071-0.359-4.122c-1.036-0.949-2.461-1.227-3.756-1.642c-1.733-0.554-3.637-0.871-5.048-2.108
		c-0.923-0.771-1.517-1.914-1.612-3.112C94.77,55.8,95.417,53.697,96.981,52.479L96.981,52.479z"/>
	<path fill="#008FC5" d="M69.878,51.363c1.343-0.489,2.975-0.467,4.153,0.422c0.163,1.07,0.03,2.187,0.063,3.274
		c-0.863-0.56-1.814-1.031-2.856-1.108c-1.255-0.12-2.664,0.123-3.555,1.087c-0.684,0.708-0.987,1.713-1,2.681
		c0.002,4.763,0,9.525,0.001,14.288c-1.208,0.001-2.416-0.007-3.624,0.004c-0.009-6.862-0.001-13.724-0.004-20.585
		c1.208-0.023,2.418-0.007,3.625-0.008c0.002,0.853,0.009,1.707-0.003,2.561C67.514,52.873,68.539,51.831,69.878,51.363
		L69.878,51.363z"/>
	<path fill="#008FC5" d="M76.259,51.417c1.175,0,2.351-0.003,3.527,0.003c0.011,4.492-0.008,8.983,0.01,13.475
		c0.067,1.403,0.223,2.947,1.203,4.039c0.914,1.028,2.411,1.238,3.71,1.081c1.35-0.186,2.773-0.671,3.639-1.784
		c0.366-0.43,0.577-0.959,0.793-1.474c0.094,0.916-0.548,1.672-1.183,2.245c-1.174,0.887-2.67,1.328-4.138,1.264
		c-1.123,0.003-2.35-0.325-3.085-1.232c-0.838-1.021-1.079-2.399-1.087-3.688c-0.007-4.141,0-8.28,0.001-12.42
		c-0.008-0.428-0.033-0.854-0.059-1.279c-1.008-0.003-2.024-0.116-3.024,0.036c-0.215,0.796-0.092,1.63-0.109,2.445
		c-0.005,3.937-0.021,7.876,0.005,11.816c0.033,1.561,0.347,3.242,1.476,4.402c0.91,1.058,2.242,1.743,3.642,1.801
		c1.109,0.047,2.247,0.059,3.321-0.266c1.166-0.337,2.264-0.903,3.232-1.634c0.297-0.225,0.619-0.424,0.977-0.541
		c-1.287,1.32-3.025,2.172-4.821,2.543c-1.537,0.268-3.189,0.29-4.645-0.341c-1.252-0.557-2.306-1.585-2.823-2.861
		c-0.52-1.261-0.585-2.65-0.565-3.997C76.259,60.505,76.253,55.961,76.259,51.417L76.259,51.417z"/>
	<path fill="#008FC5" d="M89.203,51.42c1.191-0.006,2.384-0.009,3.575,0.002c-0.008,6.865,0.013,13.731-0.01,20.598
		c-1.185-0.005-2.37-0.011-3.554,0.005c-0.019-0.75-0.042-1.504,0.014-2.252c0.21,0.643,0.11,1.326,0.192,1.988
		c1.012,0.142,2.055,0.131,3.07,0.007c0.049-0.244,0.065-0.494,0.073-0.744c-0.017-4.484,0.003-8.971-0.004-13.456
		c-0.023-1.991,0.044-3.982-0.036-5.971c-0.954,0.012-1.91-0.064-2.859,0.026c-0.295-0.001-0.286,0.328-0.291,0.539
		c0.006,3.995-0.011,7.991,0,11.987c0.014,0.723,0.062,1.459-0.161,2.157C89.182,61.345,89.203,56.382,89.203,51.42L89.203,51.42z"
		/>
	<path fill="#008FC5" d="M110.062,53.624c-0.041-0.738-0.095-1.486,0.058-2.216c0.054,0.706,0.05,1.416,0.035,2.124
		c1.014-0.007,2.029-0.007,3.043-0.009l-0.003,0.178C112.15,53.667,111.104,53.695,110.062,53.624L110.062,53.624z"/>
	<path fill="#008FC5" d="M122.263,51.417c1.261-0.012,2.521-0.006,3.78-0.004c0.043,0.139,0.084,0.279,0.129,0.417
		c-1.128-0.266-2.293-0.151-3.439-0.135c-0.029,0.338-0.063,0.675-0.075,1.014C122.498,52.287,122.379,51.853,122.263,51.417
		L122.263,51.417z"/>
	<path fill="#008FC5" d="M135.694,51.447c1.103-0.057,2.206-0.054,3.309-0.004c1.542,5.587,3.093,11.173,4.646,16.756
		c1.57-5.572,3.087-11.161,4.616-16.746c1.044-0.078,2.09-0.03,3.135-0.039c-2,6.868-4.065,13.716-6.072,20.582
		c-1.281,0.017-2.563,0.017-3.843,0c-1.477-5.224-2.995-10.436-4.518-15.647c-1.699,5.201-3.304,10.434-4.953,15.653
		c-1.258,0.011-2.517,0.004-3.773,0.004c-1.771-6.063-3.519-12.131-5.283-18.194c-0.1-0.366-0.24-0.726-0.299-1.103
		c0.012-0.338,0.045-0.675,0.075-1.014c1.146-0.017,2.311-0.131,3.438,0.135c1.407,5.465,2.86,10.922,4.296,16.381
		C132.231,62.629,133.961,57.037,135.694,51.447L135.694,51.447z"/>
	<path fill="#008FC5" d="M168.279,51.417c1.304,0.004,2.611-0.042,3.916,0.03c1.7,5.577,3.384,11.157,5.105,16.727
		c1.941-5.576,3.849-11.165,5.769-16.75c1.083-0.028,2.166-0.011,3.25-0.007c-2.483,6.87-4.979,13.736-7.496,20.592
		c-1.251-0.008-2.502,0-3.752-0.003C172.797,65.145,170.532,58.284,168.279,51.417L168.279,51.417z"/>
	<path fill="#008FC5" d="M76.565,51.681c1.002-0.151,2.018-0.039,3.025-0.036c0.026,0.427,0.052,0.852,0.06,1.28
		c-0.002,4.14-0.01,8.28-0.002,12.42c0.01,1.288,0.249,2.666,1.088,3.688c0.735,0.907,1.961,1.235,3.085,1.232
		c1.468,0.064,2.963-0.377,4.138-1.264c0.634-0.573,1.277-1.329,1.182-2.245c0.008-0.152,0.034-0.303,0.074-0.449
		c0.223-0.699,0.174-1.436,0.162-2.158c-0.012-3.995,0.005-7.991,0-11.986c0.004-0.211-0.005-0.54,0.29-0.539
		c0.949-0.091,1.905-0.015,2.859-0.026c0.08,1.989,0.013,3.98,0.036,5.971c0.007,4.485-0.011,8.972,0.004,13.456
		c-0.008,0.25-0.024,0.5-0.073,0.743c-1.015,0.125-2.058,0.135-3.07-0.006c-0.083-0.663,0.018-1.347-0.192-1.988
		c-0.029-0.018-0.089-0.051-0.119-0.068c-0.358,0.117-0.68,0.316-0.977,0.541c-0.969,0.73-2.067,1.297-3.232,1.635
		c-1.075,0.323-2.211,0.312-3.321,0.265c-1.399-0.058-2.731-0.744-3.642-1.801c-1.129-1.159-1.443-2.842-1.476-4.401
		c-0.026-3.94-0.011-7.88-0.006-11.817C76.474,53.312,76.352,52.478,76.565,51.681L76.565,51.681z"/>
	<path fill="#008FC5" d="M207.679,51.354c1.28-0.354,2.769,0.153,3.512,1.266c0.889,1.259,0.691,3.148-0.435,4.199
		c-1.041,1.005-2.776,1.145-3.988,0.366c-0.958-0.616-1.53-1.77-1.454-2.908C205.352,52.924,206.359,51.667,207.679,51.354
		L207.679,51.354z M207.632,51.747c-1.184,0.37-2.019,1.585-1.954,2.822c0.013,1.269,0.99,2.439,2.23,2.699
		c1.346,0.332,2.824-0.508,3.29-1.801c0.481-1.207-0.019-2.691-1.098-3.397C209.386,51.583,208.446,51.484,207.632,51.747
		L207.632,51.747z"/>
	<path fill="#008FC5" d="M209.446,54.5c0.741-0.379,0.737-1.753-0.165-1.907c-0.676-0.097-1.364-0.027-2.044-0.04
		c0.017,1.278-0.051,2.56,0.03,3.835c0.223,0.016,0.447,0.026,0.676,0.031c0.002-0.558,0-1.117,0.007-1.676
		c0.347,0.056,0.779-0.039,1.052,0.236c0.227,0.419,0.255,0.912,0.449,1.348c0.218,0.133,0.499,0.055,0.75,0.095
		C209.958,55.778,209.915,55.036,209.446,54.5z M209.111,54.142c-0.36,0.175-0.771,0.156-1.158,0.192
		c-0.012-0.45-0.012-0.901-0.003-1.351c0.368,0.031,0.765-0.012,1.112,0.149C209.381,53.365,209.346,53.862,209.111,54.142z"/>
	<path fill="#235E89" d="M29.316,55.369c1.21-1.19,2.533-2.276,3.934-3.236c2.976,3.405,5.392,7.312,6.976,11.555
		c1.567,4.168,2.387,8.625,2.354,13.08c-9.867,0-19.731,0.008-29.598-0.007c0.781-1.302,1.514-2.642,2.404-3.874
		c-0.448,1.336-1.452,2.387-1.991,3.681c0.846,0.053,1.694,0.051,2.542,0.044c8.284,0.001,16.57-0.006,24.855,0.006
		c0.495-0.024,1.041,0.083,1.501-0.131c0.151-0.343,0.05-0.736,0.046-1.099c-0.204-7.815-3.115-15.508-8.012-21.589
		c-0.328-0.402-0.617-0.854-1.051-1.152c-0.208-0.171-0.438,0.057-0.621,0.154c-0.655,0.461-1.236,1.016-1.858,1.516
		C30.32,54.689,29.924,55.21,29.316,55.369L29.316,55.369z"/>
	<path fill="#008FC5" d="M32.656,52.802c0.182-0.097,0.412-0.325,0.621-0.154c0.434,0.298,0.723,0.75,1.051,1.152
		c4.896,6.082,7.808,13.774,8.011,21.589c0.004,0.362,0.106,0.756-0.045,1.1c-0.46,0.213-1.005,0.105-1.501,0.131
		c-8.285-0.013-16.571-0.005-24.854-0.006c-0.848,0.007-1.696,0.009-2.543-0.045c0.54-1.294,1.544-2.344,1.991-3.68
		c0.299-0.623,0.73-1.17,1.089-1.759c3.712-5.664,7.77-11.184,12.807-15.749l0.034-0.012c0.607-0.16,1.004-0.68,1.48-1.051
		C31.42,53.817,32.001,53.263,32.656,52.802L32.656,52.802z"/>
	<path fill="#008FC5" d="M190.498,52.001c1.473-0.792,3.176-1.054,4.835-1.037c1.644,0.028,3.335,0.368,4.714,1.307
		c1.504,0.997,2.434,2.665,2.871,4.381c0.428,1.625,0.467,3.316,0.458,4.986c-4.563,0.019-9.125,0.005-13.688,0.007
		c-0.023,1.726,0.06,3.494,0.653,5.132c0.363,0.969,0.943,1.9,1.82,2.483c1.302,0.88,3.014,1.006,4.497,0.564
		c1.027-0.295,1.962-0.967,2.48-1.913c0.393-0.676,0.545-1.454,0.63-2.222c1.165-0.006,2.329-0.004,3.494-0.003
		c0.091,2.354-1.391,4.568-3.451,5.623c-1.507,0.811-3.239,1.083-4.931,1.116c-2.138-0.021-4.393-0.495-6.039-1.942
		c-1.901-1.64-2.688-4.203-2.87-6.633c-0.199-2.87,0.025-5.885,1.317-8.502C187.994,53.951,189.103,52.734,190.498,52.001
		L190.498,52.001z M191.83,54.518c-1.381,1.243-1.913,3.152-2.018,4.951c3.339-0.01,6.68,0.009,10.018-0.01
		c-0.049-1.712-0.331-3.564-1.516-4.886C196.648,52.8,193.583,52.953,191.83,54.518L191.83,54.518z M189.761,59.594
		c0.357,0.063,0.72,0.112,1.091,0.112c2.146-0.012,4.292-0.003,6.437-0.009c0.854-0.009,1.722,0.092,2.564-0.105
		c-1.655-0.084-3.31-0.01-4.964-0.036C193.18,59.582,191.467,59.508,189.761,59.594L189.761,59.594z"/>
	<path fill="#008FC5" d="M116.806,60.201c0.15,1.109,0.046,2.234,0.071,3.351c-0.021,1.063,0.079,2.134-0.07,3.19
		c-0.09-1.11-0.037-2.227-0.046-3.339C116.769,62.336,116.721,61.267,116.806,60.201L116.806,60.201z"/>
	<path fill="#008FC5" d="M158.423,51.071c1.917-0.206,3.92-0.157,5.739,0.549c1.28,0.489,2.412,1.508,2.784,2.86
		c0.528,1.829,0.387,3.755,0.411,5.635c0.002,3.043,0,6.087,0,9.13c0.01,0.533,0.01,1.084,0.202,1.59
		c0.139,0.484,0.849,0.58,0.763,1.164c-0.973,0.007-1.946,0.015-2.917,0.003c-0.476-0.022-1.056-0.081-1.331-0.525
		c-0.295-0.499-0.202-1.104-0.219-1.654c-1.231,1.278-2.85,2.194-4.614,2.466c-1.873,0.302-3.914,0.102-5.553-0.908
		c-1.368-0.837-2.159-2.391-2.314-3.955c-0.223-1.642,0.123-3.424,1.22-4.706c0.768-0.954,1.917-1.486,3.057-1.86
		c2.661-0.806,5.454-0.978,8.195-1.338c-0.018-1.557,0.223-3.24-0.538-4.669c-0.542-1.032-1.737-1.472-2.838-1.531
		c-1.425-0.093-3.044,0.132-4.052,1.245c-0.839,0.919-0.993,2.212-1.025,3.403c-1.102-0.001-2.204-0.004-3.307,0.001
		c-0.142-1.652,0.232-3.433,1.384-4.681C154.732,51.906,156.61,51.296,158.423,51.071L158.423,51.071z M157.866,62.627
		c-1.207,0.375-2.287,1.301-2.616,2.553c-0.313,1.267-0.173,2.752,0.722,3.763c0.747,0.826,1.909,1.118,2.99,1.093
		c1.34-0.046,2.739-0.46,3.694-1.443c0.799-0.819,1.102-1.985,1.169-3.096c0.064-1.324,0.026-2.651,0.032-3.976
		C161.846,61.788,159.806,61.998,157.866,62.627L157.866,62.627z"/>
	<path fill="#008FC5" d="M113.139,66.914c-0.221-0.726-0.174-1.515-0.002-2.247C113.156,65.415,113.163,66.165,113.139,66.914
		L113.139,66.914z"/>
</g>
</svg>
