<?xml version="1.0" encoding="utf-8"?>
<!-- Generator: Adobe Illustrator 24.0.2, SVG Export Plug-In . SVG Version: 6.00 Build 0)  -->
<svg version="1.1" id="Layer_1" focusable="false" xmlns="http://www.w3.org/2000/svg" xmlns:xlink="http://www.w3.org/1999/xlink"
	 x="0px" y="0px" viewBox="0 0 700 448" style="enable-background:new 0 0 700 448;" xml:space="preserve">
<style type="text/css">
	.st0{fill:#FFFFFF;}
	.st1{fill-rule:evenodd;clip-rule:evenodd;fill:#FFFFFF;}
</style>
<path class="st0" d="M1172.1,143c-63.6,0-114.9,51.3-114.9,114.9s51.3,114.9,114.9,114.9S1287,321.5,1287,257.9
	S1235.7,143,1172.1,143z M1172.1,332.6c-41.1,0-74.7-33.5-74.7-74.7s33.5-74.7,74.7-74.7c41.2,0,74.7,33.5,74.7,74.7
	S1213.2,332.6,1172.1,332.6L1172.1,332.6z M1318.5,138.3c0,14.9-12,26.8-26.8,26.8c-14.9,0-26.8-12-26.8-26.8s12-26.8,26.8-26.8
	C1306.5,111.5,1318.5,123.5,1318.5,138.3z M1394.6,165.5c-1.7-35.9-9.9-67.7-36.2-93.9c-26.2-26.2-58-34.4-93.9-36.2
	c-37-2.1-147.9-2.1-184.9,0c-35.8,1.7-67.6,9.9-93.9,36.1s-34.4,58-36.2,93.9c-2.1,37-2.1,147.9,0,184.9
	c1.7,35.9,9.9,67.7,36.2,93.9s58,34.4,93.9,36.2c37,2.1,147.9,2.1,184.9,0c35.9-1.7,67.7-9.9,93.9-36.2c26.2-26.2,34.4-58,36.2-93.9
	C1396.7,313.3,1396.7,202.5,1394.6,165.5L1394.6,165.5z M1346.8,390c-7.8,19.6-22.9,34.7-42.6,42.6c-29.5,11.7-99.5,9-132.1,9
	s-102.7,2.6-132.1-9c-19.6-7.8-34.7-22.9-42.6-42.6c-11.7-29.5-9-99.5-9-132.1s-2.6-102.7,9-132.1c7.8-19.6,22.9-34.7,42.6-42.6
	c29.5-11.7,99.5-9,132.1-9s102.7-2.6,132.1,9c19.6,7.8,34.7,22.9,42.6,42.6c11.7,29.5,9,99.5,9,132.1S1358.5,360.6,1346.8,390z"/>
<path class="st1" d="M632.8,103.8c0,0-5.9-41.6-23.1-59.7c-21.9-23.8-46.6-24.1-57.5-25.6c-80.7-5.9-201.6-5.9-201.6-5.9h-0.6
	c0,0-120.7,0-201.3,5.9c-11.5,1.6-35.9,1.9-57.8,25.6c-17.2,18.1-23.1,59.7-23.1,59.7s-6,48.8-6,96.9v6.3v39.7c0,48.8,6,96.9,6,96.9
	s5.9,41.6,23.1,60c21.9,24.1,50.7,23.1,63.8,25.6c46,4.7,196,6.3,196,6.3s121-0.6,201.6-6.3c10.9-1.6,35.6-1.6,57.5-25.6
	c17.2-18.4,23.1-60,23.1-60s5.6-48.2,5.6-96.9v-37.2v-8.8C638.4,152.6,632.8,103.8,632.8,103.8L632.8,103.8z M446.5,217.6l-156,84.1
	V172.3v-39.4l70.7,38.5L446.5,217.6z"/>
</svg>
